<?xml version="1.0" encoding="UTF-8"?>
<svg version="1.1" xmlns="http://www.w3.org/2000/svg" width="640" height="640">
<path d="M0 0 C211.2 0 422.4 0 640 0 C640 211.2 640 422.4 640 640 C428.8 640 217.6 640 0 640 C0 428.8 0 217.6 0 0 Z " fill="#FDFDFD" transform="translate(0,0)"/>
<path d="M0 0 C8.58 0 17.16 0 26 0 C27.32 1.98 28.64 3.96 30 6 C30.66 6.33 31.32 6.66 32 7 C33.98128683 9.93230451 35.35389319 12.51102321 36 16 C36.66 16 37.32 16 38 16 C40.39731331 19.19641774 42.38479725 22.00118212 43 26 C43.99 26 44.98 26 46 26 C46.2475 26.7425 46.495 27.485 46.75 28.25 C48.12826234 31.28217714 49.65092084 32.65922147 52 35 C53.5729055 36.97552636 55.1131061 38.97739946 56.625 41 C57.78902344 42.546875 57.78902344 42.546875 58.9765625 44.125 C61 47 61 47 62.1484375 49.3125 C62.88612505 51.19182854 62.88612505 51.19182854 65 52 C65.625 55.0625 65.625 55.0625 66 58 C66.86625 58.0928125 66.86625 58.0928125 67.75 58.1875 C70.93353478 59.33710978 72.10585921 61.25676162 74 64 C74.33 64.99 74.66 65.98 75 67 C75.66 67.33 76.32 67.66 77 68 C77 69.32 77 70.64 77 72 C78.485 72.495 78.485 72.495 80 73 C84 78.37142857 84 78.37142857 84 81 C84.66 81 85.32 81 86 81 C85.67 80.34 85.34 79.68 85 79 C84.90711318 76.49763084 84.87417588 74.02337314 84.88647461 71.52099609 C84.88632858 70.75017197 84.88618256 69.97934784 84.8860321 69.18516541 C84.88673011 66.63122771 84.89451725 64.07736249 84.90234375 61.5234375 C84.90420833 59.75509684 84.90563204 57.98675567 84.90663147 56.21841431 C84.9104535 51.55935241 84.92028112 46.90032158 84.93133545 42.24127197 C84.94155631 37.48897726 84.94613054 32.73667753 84.95117188 27.984375 C84.96190366 18.65623414 84.97949793 9.32812451 85 0 C93.58 0 102.16 0 111 0 C111 40.26 111 80.52 111 122 C102.09 122 93.18 122 84 122 C82.68 119.69 81.36 117.38 80 115 C78.47335795 112.99485441 78.47335795 112.99485441 76.9375 111.375 C74.58506575 108.72703381 72.71999604 106.11237379 71 103 C69.12987508 99.35056462 69.12987508 99.35056462 66 97 C65.67 96.01 65.34 95.02 65 94 C63.515 93.01 63.515 93.01 62 92 C61.0696971 90.33874482 60.14242621 88.67563545 59.23828125 87 C57.36970452 83.98198333 54.98745372 81.48514179 52.6171875 78.85546875 C49.81531198 75.6407565 48 73.30883131 48 69 C47.34 69 46.68 69 46 69 C46 68.34 46 67.68 46 67 C45.01 67 44.02 67 43 67 C42.4225 65.96875 41.845 64.9375 41.25 63.875 C38.05524609 57.52349746 38.05524609 57.52349746 33 53 C32.375 50.4375 32.375 50.4375 32 48 C30.515 47.505 30.515 47.505 29 47 C28.67 46.01 28.34 45.02 28 44 C27.34 43.67 26.68 43.34 26 43 C26 69.07 26 95.14 26 122 C17.42 122 8.84 122 0 122 C0 81.74 0 41.48 0 0 Z " fill="#060606" transform="translate(66,320)"/>
<path d="M0 0 C1.216875 0.33 2.43375 0.66 3.6875 1 C6.95166902 1.98540951 8.60402275 2.63009397 11 5 C11.45410156 7.63549805 11.45410156 7.63549805 11.390625 10.76171875 C11.37773438 11.87998047 11.36484375 12.99824219 11.3515625 14.15039062 C11.31804687 15.31763672 11.28453125 16.48488281 11.25 17.6875 C11.23195313 18.86634766 11.21390625 20.04519531 11.1953125 21.25976562 C11.14811859 24.17398926 11.08229077 27.08659031 11 30 C9.54006618 29.53757497 8.08209718 29.0689433 6.625 28.59765625 C5.81289063 28.33734619 5.00078125 28.07703613 4.1640625 27.80883789 C2 27 2 27 0 25.4375 C-2.80999628 23.41781518 -5.70804808 23.05774553 -9.07421875 22.4296875 C-11 22 -11 22 -12 21 C-20.67468869 19.6058536 -29.35129549 19.52788008 -38 21 C-38 21.66 -38 22.32 -38 23 C-38.66 23.33 -39.32 23.66 -40 24 C-40.34212069 28.38421329 -40.51500557 32.62516317 -40 37 C-36.32483445 40.85444192 -32.07473481 41.70981318 -27 43 C-23.98777292 43.96370202 -20.99537256 44.98526328 -18 46 C-16.2365625 46.5878125 -16.2365625 46.5878125 -14.4375 47.1875 C-13.633125 47.455625 -12.82875 47.72375 -12 48 C-12 48.66 -12 49.32 -12 50 C-9.36 50.33 -6.72 50.66 -4 51 C-4 51.66 -4 52.32 -4 53 C-3.29875 53.0825 -2.5975 53.165 -1.875 53.25 C1.68527538 54.17876749 4.07030552 55.80272914 7 58 C7.33 58.66 7.66 59.32 8 60 C9.485 60.495 9.485 60.495 11 61 C15.55772804 67.38081925 16.36206299 73.64358311 16.3125 81.25 C16.30976074 82.09248291 16.30702148 82.93496582 16.30419922 83.80297852 C16.1722098 91.66090025 14.59006685 98.02278313 11 105 C10.34 105 9.68 105 9 105 C8.505 106.98 8.505 106.98 8 109 C6.68 109.33 5.36 109.66 4 110 C4 110.66 4 111.32 4 112 C2 113.375 2 113.375 -1 115 C-1.61617187 115.33386719 -2.23234375 115.66773438 -2.8671875 116.01171875 C-11.3144072 120.43253995 -18.46075838 121.38855451 -27.9375 121.375 C-29.04254883 121.37411377 -30.14759766 121.37322754 -31.28613281 121.37231445 C-42.23152891 121.21519969 -52.56686977 119.93636644 -62 114 C-62.99 113.67 -63.98 113.34 -65 113 C-65 104.42 -65 95.84 -65 87 C-63.35 87 -61.7 87 -60 87 C-59.67 87.66 -59.34 88.32 -59 89 C-56.47266765 89.65555119 -56.47266765 89.65555119 -54 90 C-54 90.66 -54 91.32 -54 92 C-52.16927083 92.45768229 -50.33854167 92.91536458 -48.5078125 93.37304688 C-47.01822917 93.74544271 -45.52864583 94.11783854 -44.0390625 94.49023438 C-42.97558594 94.75610352 -42.97558594 94.75610352 -41.890625 95.02734375 C-39.90935753 95.52266062 -37.93032126 96.01862097 -35.95727539 96.54589844 C-29.74464879 97.9872712 -21.53421975 98.32213945 -15.75 95.375 C-12.51682303 92.5827108 -11.64740196 91.20811277 -11 87 C-11.02015026 83.46027036 -11.18321036 80.18434497 -13.25 77.1875 C-13.8275 76.795625 -14.405 76.40375 -15 76 C-15.721875 75.484375 -16.44375 74.96875 -17.1875 74.4375 C-20.7458334 72.61879626 -24.09977623 71.85937134 -28 71 C-28 70.34 -28 69.68 -28 69 C-28.65226563 68.96261719 -29.30453125 68.92523438 -29.9765625 68.88671875 C-35.40466866 68.47840988 -39.19879171 67.70067966 -44 65 C-45.68348325 64.36425997 -47.37139331 63.7401743 -49.0625 63.125 C-53.36946181 61.43574252 -55.92132913 59.51848099 -59 56 C-59.86625 55.38125 -60.7325 54.7625 -61.625 54.125 C-66.1515854 50.07489728 -67.21185453 44.81523548 -68 39 C-68.40180246 31.02936056 -68.12482614 23.70249476 -66 16 C-65.34 16 -64.68 16 -64 16 C-63.67 14.68 -63.34 13.36 -63 12 C-62.34 12 -61.68 12 -61 12 C-60.9175 11.4225 -60.835 10.845 -60.75 10.25 C-59.773945 7.32183501 -58.29727415 6.03472854 -56 4 C-55.071875 3.1646875 -55.071875 3.1646875 -54.125 2.3125 C-51.45842307 0.6654966 -49.08808286 0.35091851 -46 0 C-46 -0.66 -46 -1.32 -46 -2 C-31.86493473 -5.41928145 -13.31325436 -6.40060306 0 0 Z " fill="#050505" transform="translate(556,323)"/>
<path d="M0 0 C0.78375 0.309375 1.5675 0.61875 2.375 0.9375 C4.45750561 2.29913828 4.99091844 3.76560511 6 6 C6.66 6.33 7.32 6.66 8 7 C11.59577635 14.3298518 11 18.01858512 11 27 C-3.85 27 -18.7 27 -34 27 C-31.53970066 34.56484041 -31.53970066 34.56484041 -28 41 C-28 41.66 -28 42.32 -28 43 C-26.8553125 43.433125 -26.8553125 43.433125 -25.6875 43.875 C-23 45 -23 45 -20 47 C-17.05920558 47.2501566 -14.25350581 47.37024494 -11.3125 47.375 C-10.14557617 47.41173828 -10.14557617 47.41173828 -8.95507812 47.44921875 C-3.71566608 47.47543766 -0.1575732 46.49061246 4.38208008 43.86181641 C6 43 6 43 8 43 C8 45.31 8 47.62 8 50 C7.34773438 50.19335938 6.69546875 50.38671875 6.0234375 50.5859375 C4.71246094 50.97652344 4.71246094 50.97652344 3.375 51.375 C2.45847656 51.64699219 1.54195313 51.91898438 0.59765625 52.19921875 C-1.350954 52.79991815 -3.2766975 53.4756324 -5.1875 54.1875 C-14.12363271 56.76904945 -22.16844074 53.21699345 -30 49 C-30 48.34 -30 47.68 -30 47 C-30.61875 46.7525 -31.2375 46.505 -31.875 46.25 C-34.35068687 44.79371361 -34.95125002 43.62187494 -36 41 C-36.66 41 -37.32 41 -38 41 C-41.13118498 33.43296963 -42.00638475 26.16947621 -41 18 C-39.55078125 15.2890625 -39.55078125 15.2890625 -38 13 C-37.608125 11.88625 -37.21625 10.7725 -36.8125 9.625 C-34.38600184 3.81919027 -29.37694764 0.05134223 -23.75 -2.4375 C-15.17402306 -3.72389654 -7.9174269 -3.67594821 0 0 Z " fill="#171717" transform="translate(316,157)"/>
<path d="M0 0 C2.85446444 2.01901143 5.19911687 4.24058306 7.5625 6.8125 C10.03817895 5.71219824 11.84878551 4.57141747 13.9375 2.8125 C20.20934289 -1.96604697 26.97908539 -1.67609584 34.5625 -1.1875 C39.3303237 -0.50759644 42.5146883 0.97451489 45.5625 4.8125 C47.49779415 7.90897064 47.5625 8.95180677 47.5625 12.8125 C48.2225 12.8125 48.8825 12.8125 49.5625 12.8125 C49.5625 26.6725 49.5625 40.5325 49.5625 54.8125 C46.9225 54.8125 44.2825 54.8125 41.5625 54.8125 C41.5531543 53.50055664 41.54380859 52.18861328 41.53417969 50.83691406 C41.49430339 45.96873029 41.42855087 41.10118005 41.35498047 36.23339844 C41.32675721 34.1267104 41.30554944 32.0199162 41.29150391 29.91308594 C41.27009339 26.8842122 41.2234524 23.85661669 41.171875 20.828125 C41.17064636 19.88632385 41.16941772 18.94452271 41.16815186 17.97418213 C41.11014285 12.74839217 41.11014285 12.74839217 38.66113281 8.26855469 C33.94511764 4.99653113 30.52098753 4.47879724 24.91015625 5.265625 C20.43821646 6.30734142 16.20198685 8.14102316 12.9609375 11.4453125 C11.5625 12.8125 11.5625 12.8125 9.5625 12.8125 C9.5625 26.6725 9.5625 40.5325 9.5625 54.8125 C7.2525 54.8125 4.9425 54.8125 2.5625 54.8125 C2.53744385 53.60190918 2.5123877 52.39131836 2.48657227 51.14404297 C2.39215116 46.63759413 2.29201612 42.131287 2.19018555 37.625 C2.14696764 35.67744266 2.10528369 33.72985063 2.06518555 31.78222656 C2.00716342 28.97710738 1.94356216 26.17216067 1.87890625 23.3671875 C1.86219376 22.50133026 1.84548126 21.63547302 1.82826233 20.74337769 C1.72117445 16.33858092 1.42928481 12.14950867 0.5625 7.8125 C-0.38625 7.503125 -1.335 7.19375 -2.3125 6.875 C-5.4375 5.8125 -5.4375 5.8125 -7.4375 4.8125 C-13.72076227 4.15799351 -18.86449737 5.88720743 -24.4375 8.8125 C-24.7675 9.4725 -25.0975 10.1325 -25.4375 10.8125 C-26.4275 11.1425 -27.4175 11.4725 -28.4375 11.8125 C-28.7675 26.0025 -29.0975 40.1925 -29.4375 54.8125 C-32.0775 54.8125 -34.7175 54.8125 -37.4375 54.8125 C-37.4375 36.6625 -37.4375 18.5125 -37.4375 -0.1875 C-34.7975 -0.1875 -32.1575 -0.1875 -29.4375 -0.1875 C-29.1075 1.4625 -28.7775 3.1125 -28.4375 4.8125 C-27.75042969 4.46316406 -27.06335938 4.11382812 -26.35546875 3.75390625 C-25.45441406 3.29886719 -24.55335938 2.84382812 -23.625 2.375 C-22.73167969 1.92253906 -21.83835937 1.47007812 -20.91796875 1.00390625 C-14.3883573 -2.13236382 -6.8363016 -2.36163146 0 0 Z " fill="#303030" transform="translate(371.4375,155.1875)"/>
<path d="M0 0 C3.18126622 2.68640259 5.53718103 5.10116264 7 9 C7.22481011 11.84536057 7.34840846 14.60193707 7.37890625 17.44921875 C7.39590073 18.26244095 7.4128952 19.07566315 7.43040466 19.91352844 C7.48343899 22.50477397 7.5238066 25.09600374 7.5625 27.6875 C7.60639249 30.28962888 7.65302197 32.89163245 7.70530701 35.49360657 C7.73733014 37.11166459 7.76419952 38.72983404 7.78553772 40.34806824 C7.51586764 43.97410896 7.51586764 43.97410896 9 47 C11.32817964 47.36760731 13.6618385 47.70241581 16 48 C16 50.31 16 52.62 16 55 C6.1122449 55.58163265 6.1122449 55.58163265 2 52 C2 51.01 2 50.02 2 49 C1.34 49 0.68 49 0 49 C0 49.66 0 50.32 0 51 C-2.475 51.495 -2.475 51.495 -5 52 C-5 52.66 -5 53.32 -5 54 C-14.47995202 56.40760686 -22.1909889 57.04577456 -31 52 C-31.495 50.515 -31.495 50.515 -32 49 C-32.66 48.67 -33.32 48.34 -34 48 C-34.9569431 45.20840804 -35.16173754 42.56191999 -35.1875 39.625 C-35.20167969 38.89539063 -35.21585937 38.16578125 -35.23046875 37.4140625 C-34.81608336 33.07355109 -34.15812305 29.97378512 -30.7421875 27.1015625 C-21.54286798 22.36403828 -11.09275556 20.88463413 -1 24 C-1 24.66 -1 25.32 -1 26 C-0.34 26 0.32 26 1 26 C0.77192927 23.39219129 0.5186505 20.7911711 0.25 18.1875 C0.188125 17.44951172 0.12625 16.71152344 0.0625 15.95117188 C-0.38076469 11.50237375 -0.38076469 11.50237375 -3.078125 8.11328125 C-3.71234375 7.74589844 -4.3465625 7.37851563 -5 7 C-5 6.34 -5 5.68 -5 5 C-13.29518139 3.29842433 -19.37331696 3.41097269 -27 7 C-28.32 7 -29.64 7 -31 7 C-31 5.35 -31 3.7 -31 2 C-30.34 2 -29.68 2 -29 2 C-29 1.34 -29 0.68 -29 0 C-20.02876155 -2.87079631 -8.78475706 -3.92510422 0 0 Z " fill="#161616" transform="translate(463,156)"/>
<path d="M0 0 C1.7421875 1.65625 1.7421875 1.65625 1.9921875 5.34375 C1.9096875 6.436875 1.8271875 7.53 1.7421875 8.65625 C1.17113281 8.35976562 0.60007813 8.06328125 0.01171875 7.7578125 C-11.59329091 2.12508836 -24.19176237 2.16823424 -36.37890625 6 C-36.99894531 6.2165625 -37.61898437 6.433125 -38.2578125 6.65625 C-38.2578125 7.31625 -38.2578125 7.97625 -38.2578125 8.65625 C-39.91629427 9.66976664 -41.58447211 10.66745795 -43.2578125 11.65625 C-49.48286761 16.93811494 -52.32224392 23.72673585 -53.2578125 31.65625 C-54.21474782 44.86485721 -52.3779196 54.24722098 -43.6171875 64.3828125 C-36.29508165 71.43821913 -28.8300825 73.17117863 -18.9453125 73.28125 C-18.09743164 73.29236816 -17.24955078 73.30348633 -16.37597656 73.31494141 C-10.50407852 73.17975603 -7.17022422 71.82833496 -2.2578125 68.65625 C1.1796875 67.90625 1.1796875 67.90625 3.7421875 67.65625 C3.7421875 69.96625 3.7421875 72.27625 3.7421875 74.65625 C1.7890625 75.37239583 -0.1640625 76.08854167 -2.1171875 76.8046875 C-4.25080549 77.5841248 -4.25080549 77.5841248 -6.02734375 78.734375 C-9.35242447 80.10866406 -12.65209829 80.03793531 -16.1953125 80.03125 C-16.94441895 80.03181396 -17.69352539 80.03237793 -18.46533203 80.03295898 C-25.51117556 79.8958774 -31.68805647 78.17297192 -38.2578125 75.65625 C-39.7428125 75.16125 -39.7428125 75.16125 -41.2578125 74.65625 C-41.2578125 73.99625 -41.2578125 73.33625 -41.2578125 72.65625 C-42.5778125 72.65625 -43.8978125 72.65625 -45.2578125 72.65625 C-47.98313213 70.27159532 -50.19262098 67.73820506 -52.4453125 64.90625 C-54.06090327 62.58137612 -54.06090327 62.58137612 -56.2578125 61.65625 C-57.29296875 59.80078125 -57.29296875 59.80078125 -58.3203125 57.46875 C-58.66191406 56.71207031 -59.00351563 55.95539063 -59.35546875 55.17578125 C-61.32576992 49.67429097 -61.4517523 44.13441534 -61.4453125 38.34375 C-61.44450684 37.59480469 -61.44370117 36.84585938 -61.44287109 36.07421875 C-61.38313515 30.67690067 -60.92026174 25.8283143 -59.2578125 20.65625 C-58.5978125 20.32625 -57.9378125 19.99625 -57.2578125 19.65625 C-56.53087346 17.67736039 -55.85964999 15.67670442 -55.2578125 13.65625 C-54.2678125 13.65625 -53.2778125 13.65625 -52.2578125 13.65625 C-52.1546875 12.893125 -52.0515625 12.13 -51.9453125 11.34375 C-51.20187116 8.43757022 -50.59894287 7.45711951 -48.2578125 5.65625 C-47.2678125 5.32625 -46.2778125 4.99625 -45.2578125 4.65625 C-44.8040625 4.2025 -44.3503125 3.74875 -43.8828125 3.28125 C-34.53756784 -6.06399466 -11.0637126 -6.58463172 0 0 Z " fill="#1B1B1B" transform="translate(188.2578125,131.34375)"/>
<path d="M0 0 C0.1875 3.125 0.1875 3.125 0 6 C-0.66386719 5.79503906 -1.32773437 5.59007812 -2.01171875 5.37890625 C-2.89472656 5.10949219 -3.77773438 4.84007812 -4.6875 4.5625 C-5.55761719 4.29566406 -6.42773438 4.02882812 -7.32421875 3.75390625 C-14.38096889 1.76565402 -21.60396888 0.54455809 -28.5 3.5 C-29.325 3.995 -30.15 4.49 -31 5 C-31.66 5 -32.32 5 -33 5 C-33 8.63 -33 12.26 -33 16 C-32.34 16 -31.68 16 -31 16 C-31 16.66 -31 17.32 -31 18 C-30.41508789 18.07516846 -29.83017578 18.15033691 -29.22753906 18.2277832 C-26.56655319 18.57689906 -23.90843634 18.94449332 -21.25 19.3125 C-20.32960938 19.43044922 -19.40921875 19.54839844 -18.4609375 19.66992188 C-17.12675781 19.85844727 -17.12675781 19.85844727 -15.765625 20.05078125 C-14.94868164 20.16075439 -14.13173828 20.27072754 -13.29003906 20.3840332 C-10.62901709 21.0997857 -9.1439416 22.29958564 -7 24 C-5.824375 24.45375 -4.64875 24.9075 -3.4375 25.375 C0.48386745 27.22873734 1.53689097 27.95493385 3 32 C3.71621622 40.56756757 3.71621622 40.56756757 2 44 C1.34 44 0.68 44 0 44 C0 44.99 0 45.98 0 47 C-0.66 47 -1.32 47 -2 47 C-2.33 47.99 -2.66 48.98 -3 50 C-11.74042875 55.2849104 -21.50486531 54.7766966 -31.15234375 52.6328125 C-33 52 -33 52 -35 50 C-37.06874034 49.3574765 -37.06874034 49.3574765 -39 49 C-39 47.02 -39 45.04 -39 43 C-37.51988629 43.30798326 -36.04092675 43.621518 -34.5625 43.9375 C-33.73878906 44.11152344 -32.91507812 44.28554687 -32.06640625 44.46484375 C-30 45 -30 45 -29 46 C-25.92633322 46.30593196 -22.8370208 46.27840183 -19.75 46.3125 C-18.89019531 46.34150391 -18.03039062 46.37050781 -17.14453125 46.40039062 C-12.94984284 46.44240214 -10.61565121 46.37096932 -6.953125 44.1640625 C-4.44041955 41.37998487 -4 39.73733133 -4 36 C-5.2794523 32.7637383 -6.54440953 31.32370902 -9.375 29.3125 C-13.79312718 27.71283326 -18.09780223 27.1703624 -22.73828125 26.51953125 C-28.44967519 25.60981222 -33.12792435 24.14616877 -38.0625 21.125 C-41.22781636 16.01965104 -40.89428644 10.82752232 -40 5 C-38.32118328 0.91077213 -35.44454215 -0.75303214 -31.625 -2.875 C-22.26074811 -5.87795744 -8.32357609 -5.54905073 0 0 Z " fill="#151515" transform="translate(525,158)"/>
<path d="M0 0 C7.08462525 6.55137389 7.08462525 6.55137389 7.3840332 12.49169922 C7.38324779 14.36444442 7.35536254 16.23731537 7.3046875 18.109375 C7.29761276 19.09970734 7.29053802 20.09003967 7.2832489 21.11038208 C7.25536218 24.25926711 7.19263303 27.4063441 7.12890625 30.5546875 C7.10381604 32.69528674 7.08100414 34.83591397 7.06054688 36.9765625 C7.0055548 42.21154962 6.92198657 47.44548937 6.81640625 52.6796875 C4.83640625 52.6796875 2.85640625 52.6796875 0.81640625 52.6796875 C0.78667725 50.95468018 0.78667725 50.95468018 0.75634766 49.19482422 C0.68004579 44.91189365 0.59136679 40.62929194 0.49902344 36.34667969 C0.46083503 34.49615999 0.42596474 32.64556863 0.39453125 30.79492188 C0.34865984 28.12864643 0.29070266 25.46286002 0.23046875 22.796875 C0.21891754 21.97476532 0.20736633 21.15265564 0.19546509 20.30563354 C0.0647406 15.17160006 -0.12396343 10.07331193 -3.62890625 6 C-8.3661274 2.62886123 -11.37950204 1.94265998 -17.18359375 2.6796875 C-19.21385265 3.61673007 -21.22055957 4.60894158 -23.18359375 5.6796875 C-24.50359375 5.6796875 -25.82359375 5.6796875 -27.18359375 5.6796875 C-27.18359375 6.3396875 -27.18359375 6.9996875 -27.18359375 7.6796875 C-27.84359375 7.6796875 -28.50359375 7.6796875 -29.18359375 7.6796875 C-29.18359375 8.3396875 -29.18359375 8.9996875 -29.18359375 9.6796875 C-30.17359375 10.3396875 -31.16359375 10.9996875 -32.18359375 11.6796875 C-32.65682305 13.52693978 -32.65682305 13.52693978 -32.6159668 15.67041016 C-32.63576096 16.49110992 -32.65555511 17.31180969 -32.6759491 18.15737915 C-32.68233902 19.04388153 -32.68872894 19.93038391 -32.6953125 20.84375 C-32.7222393 22.20456192 -32.7222393 22.20456192 -32.74971008 23.59286499 C-32.80398802 26.49675822 -32.83776448 29.4004855 -32.87109375 32.3046875 C-32.90425142 34.27085652 -32.93873962 36.23700359 -32.97460938 38.203125 C-33.0597244 43.02852638 -33.12645181 47.85387705 -33.18359375 52.6796875 C-35.16359375 52.6796875 -37.14359375 52.6796875 -39.18359375 52.6796875 C-39.18359375 34.5296875 -39.18359375 16.3796875 -39.18359375 -2.3203125 C-37.20359375 -2.3203125 -35.22359375 -2.3203125 -33.18359375 -2.3203125 C-33.18359375 0.3196875 -33.18359375 2.9596875 -33.18359375 5.6796875 C-32.52359375 5.3496875 -31.86359375 5.0196875 -31.18359375 4.6796875 C-30.85359375 3.6896875 -30.52359375 2.6996875 -30.18359375 1.6796875 C-21.62989481 -4.60979702 -8.92788089 -6.11170369 0 0 Z " fill="#0B0B0B" transform="translate(260.18359375,157.3203125)"/>
<path d="M0 0 C2.64 0 5.28 0 8 0 C7.65680705 10.22478299 6.82283333 19.92682845 4.76171875 29.9609375 C3.74992584 35.04629664 3.1956186 40.17780006 2.64672852 45.33032227 C2.2579873 48.95755328 1.71783744 52.4108128 1 56 C-2.96 55.67 -6.92 55.34 -11 55 C-10.73937604 52.7279723 -10.46586535 50.45742235 -10.1875 48.1875 C-9.96126953 46.29064453 -9.96126953 46.29064453 -9.73046875 44.35546875 C-9.25282082 41.06611532 -8.4683731 37.95659292 -7.5546875 34.76171875 C-5.86167912 28.77851436 -4.87131998 22.76592318 -3.9375 16.625 C-3.61870986 14.53301971 -3.29467686 12.44183014 -2.96484375 10.3515625 C-2.8268335 9.44229004 -2.68882324 8.53301758 -2.54663086 7.59619141 C-1.97822909 4.89660035 -1.09638534 2.52661418 0 0 Z " fill="#161616" transform="translate(317,459)"/>
<path d="M0 0 C0.70125 0.4125 1.4025 0.825 2.125 1.25 C2.125 1.91 2.125 2.57 2.125 3.25 C2.785 3.25 3.445 3.25 4.125 3.25 C6.03515625 5.515625 6.03515625 5.515625 8.1875 8.5 C9.25677734 9.96179688 9.25677734 9.96179688 10.34765625 11.453125 C11.87915249 13.86312787 12.69496146 15.47128943 13.125 18.25 C14.115 18.25 15.105 18.25 16.125 18.25 C17.87890625 20.40234375 17.87890625 20.40234375 19.6875 23.1875 C21.85774562 26.82286085 21.85774562 26.82286085 25.125 29.25 C26.11125295 30.95950511 27.09333178 32.67187136 28.03515625 34.40625 C29.19998327 36.49231337 29.19998327 36.49231337 31.4375 39 C31.994375 39.7425 32.55125 40.485 33.125 41.25 C32.125 44.25 32.125 44.25 29.125 46.25 C26.125 46.25 26.125 46.25 23.9375 44.3125 C22.99139068 43.29964063 22.0554449 42.27726785 21.125 41.25 C20.08472656 40.14591797 20.08472656 40.14591797 19.0234375 39.01953125 C13.125 32.63129417 13.125 32.63129417 13.125 29.25 C12.5475 29.023125 11.97 28.79625 11.375 28.5625 C8.52908619 26.90238361 7.12658079 24.85812043 5.125 22.25 C4.2175 21.363125 3.31 20.47625 2.375 19.5625 C0.125 17.25 0.125 17.25 0.125 15.25 C-0.535 15.25 -1.195 15.25 -1.875 15.25 C-3.6015625 13.640625 -3.6015625 13.640625 -5.5 11.5 C-6.13164062 10.80390625 -6.76328125 10.1078125 -7.4140625 9.390625 C-8.875 7.25 -8.875 7.25 -8.875 3.25 C-4.01280919 -1.04681979 -4.01280919 -1.04681979 0 0 Z " fill="#121212" transform="translate(253.875,275.75)"/>
<path d="M0 0 C1.31626692 3.61973402 2 6.09567131 2 10 C-1.83236362 12.10779999 -5.4110894 13.42952816 -9.66796875 14.40625 C-14.53155527 15.64455009 -19.25300331 17.37999319 -24 19 C-25.56200183 19.52232545 -27.12445434 20.04330651 -28.6875 20.5625 C-29.40035156 20.80097656 -30.11320312 21.03945313 -30.84765625 21.28515625 C-32.33258992 21.77833749 -33.81972591 22.26491988 -35.30859375 22.74609375 C-38.91089474 23.91851212 -42.41538455 25.13939477 -45.875 26.6875 C-49 28 -49 28 -52 28 C-52.66 25.69 -53.32 23.38 -54 21 C-48.23419538 16.93002027 -42.85958424 14.83504915 -36.05078125 12.9921875 C-33.00694166 12.0022576 -30.711069 10.67344487 -28 9 C-26.45444412 8.43085095 -24.89130731 7.90658536 -23.3125 7.4375 C-20.39544959 6.56973879 -19.19284102 6.19284102 -17 4 C-14.70985271 3.2224283 -12.39230045 2.5241704 -10.0625 1.875 C-8.81597656 1.52179688 -7.56945312 1.16859375 -6.28515625 0.8046875 C-3 0 -3 0 0 0 Z " fill="#121212" transform="translate(462,330)"/>
<path d="M0 0 C2.16874252 0.50603992 3.99967627 0.99983813 6 2 C5.46465288 6.50515188 3.74051417 9.19500166 1.0625 12.8125 C0.35222656 13.78832031 -0.35804688 14.76414062 -1.08984375 15.76953125 C-1.72019531 16.50558594 -2.35054688 17.24164063 -3 18 C-3.66 18 -4.32 18 -5 18 C-5.33 19.32 -5.66 20.64 -6 22 C-6.66 22 -7.32 22 -8 22 C-8.33 23.32 -8.66 24.64 -9 26 C-9.66 26 -10.32 26 -11 26 C-11.2475 26.78375 -11.495 27.5675 -11.75 28.375 C-13.15389099 31.32317108 -14.00675737 31.9024777 -17 33 C-17 34.32 -17 35.64 -17 37 C-18.485 37.495 -18.485 37.495 -20 38 C-20.33 38.99 -20.66 39.98 -21 41 C-22.33333333 42.33333333 -23.66666667 43.66666667 -25 45 C-25.33 45.99 -25.66 46.98 -26 48 C-29.11259604 47.654156 -30.82872813 47.12620033 -33.375 45.25 C-35 43 -35 43 -35 40.5625 C-33.79736755 37.48075434 -32.26420313 35.40142756 -30 33 C-29.34 33 -28.68 33 -28 33 C-27.67 31.68 -27.34 30.36 -27 29 C-26.01 29 -25.02 29 -24 29 C-24 28.01 -24 27.02 -24 26 C-23.01 25.34 -22.02 24.68 -21 24 C-20.67 23.01 -20.34 22.02 -20 21 C-19.01 21 -18.02 21 -17 21 C-16.34 19.35 -15.68 17.7 -15 16 C-14.34 16 -13.68 16 -13 16 C-12.731875 15.4225 -12.46375 14.845 -12.1875 14.25 C-10.97070811 11.94449957 -9.69666121 9.97943808 -8 8 C-7.34 8 -6.68 8 -6 8 C-5.34 6.68 -4.68 5.36 -4 4 C-3.01 4 -2.02 4 -1 4 C-0.67 2.68 -0.34 1.36 0 0 Z " fill="#0F0F0F" transform="translate(280,440)"/>
<path d="M0 0 C2.97845911 1.11692216 3.92918824 2.209248 5.5 4.9375 C5.5 5.5975 5.5 6.2575 5.5 6.9375 C7.15 6.9375 8.8 6.9375 10.5 6.9375 C10.62375 7.865625 10.62375 7.865625 10.75 8.8125 C11.28123457 11.07500713 11.28123457 11.07500713 13.26953125 11.89453125 C14.00558594 12.23871094 14.74164063 12.58289063 15.5 12.9375 C20.76346105 16.1483054 25.18741392 19.51709927 29.5 23.9375 C31.87549314 25.79272385 34.27924459 27.60053313 36.70703125 29.38671875 C37.29871094 29.89847656 37.89039063 30.41023438 38.5 30.9375 C38.5 31.5975 38.5 32.2575 38.5 32.9375 C39.82 33.2675 41.14 33.5975 42.5 33.9375 C42.5 36.9375 42.5 36.9375 40.25 39.625 C37.5 41.9375 37.5 41.9375 33.5 41.9375 C33.5 41.2775 33.5 40.6175 33.5 39.9375 C32.695625 39.61072266 32.695625 39.61072266 31.875 39.27734375 C28.66581321 37.46689791 26.15467067 35.01996585 23.5 32.5 C19.46715136 28.67625536 19.46715136 28.67625536 15.125 25.21484375 C14.320625 24.58255859 14.320625 24.58255859 13.5 23.9375 C13.5 23.2775 13.5 22.6175 13.5 21.9375 C12.9225 21.64875 12.345 21.36 11.75 21.0625 C11.0075 20.69125 10.265 20.32 9.5 19.9375 C8.860625 19.69 8.22125 19.4425 7.5625 19.1875 C5.10852398 17.70024181 3.69432576 15.76961901 1.9375 13.53515625 C-0.51431524 10.81017681 -3.45987836 8.96424776 -6.5 6.9375 C-5.57453067 2.79859551 -4.76536029 -0.11913401 0 0 Z " fill="#0C0C0C" transform="translate(399.5,429.0625)"/>
<path d="M0 0 C4 4.97297297 4 4.97297297 4 8 C0.53846154 11 0.53846154 11 -2 11 C-2.33 11.99 -2.66 12.98 -3 14 C-3.99 14 -4.98 14 -6 14 C-6.34224609 14.87591797 -6.34224609 14.87591797 -6.69140625 15.76953125 C-8.35483352 18.6048058 -10.22871385 19.83371091 -12.9375 21.6875 C-18.01587091 25.25572377 -22.82011562 29.05061167 -27.58984375 33.01953125 C-33.65088757 38 -33.65088757 38 -36 38 C-36 38.99 -36 39.98 -36 41 C-39.96 40.505 -39.96 40.505 -44 40 C-44 38.02 -44 36.04 -44 34 C-43.38125 33.9175 -42.7625 33.835 -42.125 33.75 C-39.84285809 33.22191119 -39.84285809 33.22191119 -39.08203125 31.15234375 C-37.86638917 28.73422539 -36.62481279 27.54895879 -34.5625 25.8125 C-33.85996094 25.21566406 -33.15742188 24.61882812 -32.43359375 24.00390625 C-28.75544926 20.97519337 -25.0469288 17.98446138 -21.3203125 15.015625 C-18.83048933 13.03213471 -18.83048933 13.03213471 -17 10 C-16.01 10 -15.02 10 -14 10 C-13.67 9.01 -13.34 8.02 -13 7 C-12.01 7 -11.02 7 -10 7 C-9.9175 6.401875 -9.835 5.80375 -9.75 5.1875 C-8.20508891 0.68150931 -4.55401912 -1.0246543 0 0 Z " fill="#101010" transform="translate(438,291)"/>
<path d="M0 0 C0.99 0 1.98 0 3 0 C5.35723489 2.53184488 6 3.47190093 6 7 C5.01 7 4.02 7 3 7 C2.61714844 7.88751953 2.61714844 7.88751953 2.2265625 8.79296875 C0.87444191 11.22592458 -0.49533457 12.53495057 -2.625 14.3125 C-3.68460937 15.20582031 -3.68460937 15.20582031 -4.765625 16.1171875 C-5.50296875 16.73851562 -6.2403125 17.35984375 -7 18 C-9.11556164 19.90104665 -11.22853926 21.80475172 -13.3359375 23.71484375 C-15 25 -15 25 -17 25 C-17 25.66 -17 26.32 -17 27 C-17.66 27 -18.32 27 -19 27 C-19.33 27.99 -19.66 28.98 -20 30 C-21.375 31.6875 -21.375 31.6875 -23 33 C-23.99 33 -24.98 33 -26 33 C-26.309375 33.86625 -26.309375 33.86625 -26.625 34.75 C-28.49169822 37.80459709 -31.0141907 39.09416428 -34 41 C-34.33 41.66 -34.66 42.32 -35 43 C-35.66 43 -36.32 43 -37 43 C-37 42.01 -37 41.02 -37 40 C-37.61875 39.7525 -38.2375 39.505 -38.875 39.25 C-41.35068687 37.79371361 -41.95125002 36.62187494 -43 34 C-37.25 29 -37.25 29 -35 29 C-35 28.34 -35 27.68 -35 27 C-34.38125 26.731875 -33.7625 26.46375 -33.125 26.1875 C-30.7004767 25.04443152 -30.7004767 25.04443152 -29 22 C-28.01 22 -27.02 22 -26 22 C-26 21.34 -26 20.68 -26 20 C-24.4011809 18.76969274 -22.74469415 17.61359837 -21.0625 16.5 C-17.43229314 14.29021822 -17.43229314 14.29021822 -15 11 C-13.68 11 -12.36 11 -11 11 C-11 10.01 -11 9.02 -11 8 C-9.68 7.67 -8.36 7.34 -7 7 C-7 6.34 -7 5.68 -7 5 C-2.61538462 2 -2.61538462 2 0 2 C0 1.34 0 0.68 0 0 Z " fill="#101010" transform="translate(271,429)"/>
<path d="M0 0 C3.93379462 2.33140489 5.86719798 4.24610773 8.69140625 8.01171875 C9.18640625 12.96171875 9.18640625 12.96171875 9.69140625 18.01171875 C-2.18859375 18.01171875 -14.06859375 18.01171875 -26.30859375 18.01171875 C-26.30859375 11.64407726 -26.17474988 11.33271678 -22.30859375 7.01171875 C-22.00695312 6.34914062 -21.7053125 5.6865625 -21.39453125 5.00390625 C-17.57782372 -1.99796727 -6.65531389 -2.84905992 0 0 Z " fill="#F8F8F8" transform="translate(309.30859375,159.98828125)"/>
<path d="M0 0 C0.66 0 1.32 0 2 0 C2.33 2.31 2.66 4.62 3 7 C3.99 7.33 4.98 7.66 6 8 C7.43196414 10.35818324 8.70557347 12.66583999 9.9375 15.125 C10.61222405 16.44064689 11.28800242 17.75575361 11.96484375 19.0703125 C12.29597168 19.72290039 12.62709961 20.37548828 12.96826172 21.04785156 C13.99640003 22.99318851 15.1134629 24.86103347 16.25390625 26.7421875 C18 30 18 30 18 34 C18.66 34 19.32 34 20 34 C26.70387244 45.33712984 26.70387244 45.33712984 27 52 C25.68 52 24.36 52 23 52 C23 52.66 23 53.32 23 54 C18.93521283 52.51630879 17.82558689 50.35377847 15.9375 46.5625 C14.24053056 43.18206485 12.79133204 40.55610743 10 38 C8.1086401 34.914097 8 33.82679269 8 30 C7.34 30 6.68 30 6 30 C3.43982595 27.85851393 1.92159394 25.39926837 0.3125 22.5 C-0.12449219 21.7265625 -0.56148438 20.953125 -1.01171875 20.15625 C-2 18 -2 18 -2 15 C-2.66 15 -3.32 15 -4 15 C-4 14.01 -4 13.02 -4 12 C-4.99 11.67 -5.98 11.34 -7 11 C-7.33 9.35 -7.66 7.7 -8 6 C-6.20963542 5.0234375 -4.41927083 4.046875 -2.62890625 3.0703125 C-0.83381685 2.08589976 -0.83381685 2.08589976 0 0 Z " fill="#111111" transform="translate(271,260)"/>
<path d="M0 0 C1.91789713 0.28346278 3.83429183 0.5771028 5.75 0.875 C7.35101563 1.11863281 7.35101563 1.11863281 8.984375 1.3671875 C11.70672688 1.93845823 13.57744405 2.70518561 16 4 C17.99110401 4.38290462 19.99100513 4.72604615 22 5 C22 5.66 22 6.32 22 7 C22.62648438 7.04898437 23.25296875 7.09796875 23.8984375 7.1484375 C24.71570313 7.22320312 25.53296875 7.29796875 26.375 7.375 C27.59316406 7.47941406 27.59316406 7.47941406 28.8359375 7.5859375 C31 8 31 8 33 10 C35.57061311 10.64767793 35.57061311 10.64767793 38 11 C38 11.66 38 12.32 38 13 C38.78375 12.9175 39.5675 12.835 40.375 12.75 C45.37626906 13.09491511 49.4515588 14.98646081 54 17 C54 18.32 54 19.64 54 21 C53.34 21 52.68 21 52 21 C52 22.65 52 24.3 52 26 C50.375 26.6875 50.375 26.6875 48 27 C45.97250996 26.05698138 43.97711651 25.04451438 42 24 C40.67641563 23.51423089 39.34172996 23.05813732 38 22.625 C33.83613447 21.27975114 29.69282495 19.88226822 25.5625 18.4375 C24.36753906 18.02371094 23.17257812 17.60992187 21.94140625 17.18359375 C19 16 19 16 17 14 C15.9275 13.855625 14.855 13.71125 13.75 13.5625 C9.92837766 12.98925665 7.34625009 11.87716468 4 10 C4 9.34 4 8.68 4 8 C2.35 7.67 0.7 7.34 -1 7 C-0.67 4.69 -0.34 2.38 0 0 Z " fill="#111111" transform="translate(410,405)"/>
<path d="M0 0 C3 0 3 0 5.6875 2.25 C8 5 8 5 8 9 C6.5390625 11.03515625 6.5390625 11.03515625 4.625 13.0625 C2.49968844 15.34086898 0.73810577 17.39284135 -1 20 C-1.99 20 -2.98 20 -4 20 C-4.0825 20.5775 -4.165 21.155 -4.25 21.75 C-5.21797787 24.6539336 -6.68694284 26.03740604 -9 28 C-9.66 28 -10.32 28 -11 28 C-11.27328125 28.59095459 -11.5465625 29.18190918 -11.828125 29.79077148 C-12.96329637 31.93080601 -14.15748812 33.53280274 -15.75 35.34765625 C-16.2759375 35.95287109 -16.801875 36.55808594 -17.34375 37.18164062 C-17.8903125 37.80232422 -18.436875 38.42300781 -19 39.0625 C-20.08480732 40.30209704 -21.16819583 41.54293749 -22.25 42.78515625 C-22.72953125 43.33051025 -23.2090625 43.87586426 -23.703125 44.43774414 C-25.19611743 46.18080524 -25.19611743 46.18080524 -27 49 C-27.99 48.67 -28.98 48.34 -30 48 C-30 47.34 -30 46.68 -30 46 C-30.99 46 -31.98 46 -33 46 C-32.5289356 41.85463326 -32.0080208 39.0080208 -29 36 C-28.01 36 -27.02 36 -26 36 C-25.67 34.35 -25.34 32.7 -25 31 C-24.34 31 -23.68 31 -23 31 C-22.67 29.68 -22.34 28.36 -22 27 C-21.34 27 -20.68 27 -20 27 C-19.731875 26.4225 -19.46375 25.845 -19.1875 25.25 C-17.97070811 22.94449957 -16.69666121 20.97943808 -15 19 C-14.34 19 -13.68 19 -13 19 C-12.9175 18.21625 -12.835 17.4325 -12.75 16.625 C-12.5025 15.75875 -12.255 14.8925 -12 14 C-10.0625 12.9375 -10.0625 12.9375 -8 12 C-7.30475914 10.68134069 -6.64275467 9.34502366 -6 8 C-5.05629414 6.55946848 -4.07586462 5.1424094 -3.0625 3.75 C-2.55847656 3.04359375 -2.05445313 2.3371875 -1.53515625 1.609375 C-1.02855469 1.07828125 -0.52195312 0.5471875 0 0 Z " fill="#101010" transform="translate(417,274)"/>
<path d="M0 0 C2.64 0.33 5.28 0.66 8 1 C7.28681576 4.05751265 6.34410302 6.97327361 5.3125 9.9375 C2.19165627 19.18487091 -0.3648259 28.60526108 -3 38 C-3.66 38 -4.32 38 -5 38 C-5.10957031 38.64066406 -5.21914063 39.28132813 -5.33203125 39.94140625 C-6.32460328 45.3561691 -7.62458653 50.03322639 -10 55 C-14.95 53.515 -14.95 53.515 -20 52 C-18.25 43.375 -18.25 43.375 -16 40 C-15.47714536 38.40953641 -15.00175157 36.80305237 -14.5625 35.1875 C-13.41151572 31.18812028 -11.96842318 27.68009551 -10 24 C-8.85091472 21.29626993 -7.86691428 18.60074284 -6.9375 15.8125 C-6 13 -6 13 -5 11 C-4.34 11 -3.68 11 -3 11 C-2.87625 9.741875 -2.7525 8.48375 -2.625 7.1875 C-2.30131941 3.89674737 -1.93395001 2.90092502 0 0 Z " fill="#121212" transform="translate(304,455)"/>
<path d="M0 0 C2.70392137 1.80261425 2.99158743 2.96099626 3.6875 6.1875 C3.8421875 7.5796875 3.8421875 7.5796875 4 9 C2.989375 9.495 1.97875 9.99 0.9375 10.5 C-11.90754873 16.92252436 -24.5032843 23.89903793 -37.02734375 30.921875 C-38.00380859 31.45554687 -38.00380859 31.45554687 -39 32 C-39.68707031 32.38414062 -40.37414062 32.76828125 -41.08203125 33.1640625 C-43.67622646 34.29473007 -45.33096225 33.74139938 -48 33 C-48.33 31.02 -48.66 29.04 -49 27 C-46 25 -46 25 -42 25 C-42 24.34 -42 23.68 -42 23 C-40.390625 21.7109375 -40.390625 21.7109375 -38.25 20.375 C-37.55390625 19.92898438 -36.8578125 19.48296875 -36.140625 19.0234375 C-34 18 -34 18 -30 18 C-30 17.01 -30 16.02 -30 15 C-29.07058594 14.48050781 -28.14117187 13.96101563 -27.18359375 13.42578125 C-19.35935997 9.09480604 -19.35935997 9.09480604 -11.9375 4.125 C-7.7461821 1.0929828 -5.17993339 0 0 0 Z " fill="#0F0F0F" transform="translate(451,310)"/>
<path d="M0 0 C1.9375 0.375 1.9375 0.375 4 1 C4.33 1.66 4.66 2.32 5 3 C7.01669827 4.13350534 7.01669827 4.13350534 9 5 C8.6875 7.875 8.6875 7.875 8 11 C7.01 11.66 6.02 12.32 5 13 C3.93753473 14.96752828 2.92862192 16.96587579 2 19 C1.34 19 0.68 19 0 19 C-0.144375 19.61875 -0.28875 20.2375 -0.4375 20.875 C-1 23 -1 23 -2 25 C-2.66 25 -3.32 25 -4 25 C-3.938125 25.763125 -3.87625 26.52625 -3.8125 27.3125 C-4.04183185 30.59958987 -4.71842177 30.7880474 -7 33 C-11.46429689 39.70269784 -15.19818187 46.90866548 -19 54 C-19.99 53.67 -20.98 53.34 -22 53 C-22 52.34 -22 51.68 -22 51 C-23.32 51 -24.64 51 -26 51 C-25.25 45.25 -25.25 45.25 -23 43 C-21.93844995 40.53307801 -21.02651163 38.02737973 -20.09765625 35.5078125 C-18.99160469 32.98081926 -17.83305483 31.05799889 -16 29 C-15.34 29 -14.68 29 -14 29 C-13.9175 28.175 -13.835 27.35 -13.75 26.5 C-12.83552731 22.23246079 -11.07776822 18.80763106 -9 15 C-8.34 15 -7.68 15 -7 15 C-6.896875 14.29875 -6.79375 13.5975 -6.6875 12.875 C-5.50854384 7.94481969 -3.16806375 3.92236464 0 0 Z " fill="#101010" transform="translate(398,261)"/>
<path d="M0 0 C4.20629759 0.50126863 5.98996488 1.56785592 8.8125 4.6875 C12.58384559 8.65659404 16.56531257 11.81463683 21 15 C22.65453232 16.19639442 24.30035901 17.4049155 25.9375 18.625 C26.68902344 19.17414063 27.44054687 19.72328125 28.21484375 20.2890625 C30.19683557 22.18865204 30.63123093 23.31910741 31 26 C31.99 26 32.98 26 34 26 C34.495 26.99 34.495 26.99 35 28 C35.99 28.33 36.98 28.66 38 29 C38.495 30.485 38.495 30.485 39 32 C40.62652316 33.70586575 42.29006566 35.3777546 44 37 C42.71937515 38.7074998 41.38232443 40.37373596 40 42 C39.34 42 38.68 42 38 42 C38 41.34 38 40.68 38 40 C37.0409375 39.814375 37.0409375 39.814375 36.0625 39.625 C35.381875 39.41875 34.70125 39.2125 34 39 C33.67 38.34 33.34 37.68 33 37 C31.31186895 36.04008234 29.62226752 35.0825577 27.921875 34.14453125 C24.95834903 32.37966721 22.53078658 30.34560707 20 28 C20 27.34 20 26.68 20 26 C19.360625 25.896875 18.72125 25.79375 18.0625 25.6875 C17.381875 25.460625 16.70125 25.23375 16 25 C15.67 24.01 15.34 23.02 15 22 C13.34302621 21.30959426 11.6744239 20.6469365 10 20 C8.321702 18.68133728 6.65385233 17.34919532 5 16 C4.01 15.67 3.02 15.34 2 15 C1.690625 14.360625 1.38125 13.72125 1.0625 13.0625 C-0.2342338 10.54531085 -1.4221737 10.03113052 -4 9 C-4 7.35 -4 5.7 -4 4 C-2.68 3.34 -1.36 2.68 0 2 C0 1.34 0 0.68 0 0 Z " fill="#101010" transform="translate(233,291)"/>
<path d="M0 0 C1.32 0 2.64 0 4 0 C6.41847197 2.50484597 7 3.46013806 7 7 C7.59167969 7.09152344 8.18335938 7.18304688 8.79296875 7.27734375 C11.54602559 8.17878714 12.48592464 9.33486275 14.3125 11.5625 C15.21162109 12.63757813 15.21162109 12.63757813 16.12890625 13.734375 C16.74636719 14.48203125 17.36382812 15.2296875 18 16 C19.24499236 17.4418392 20.49481794 18.87952259 21.75 20.3125 C22.30171875 20.94800781 22.8534375 21.58351563 23.421875 22.23828125 C24.97343746 24.02016501 24.97343746 24.02016501 26.703125 25.60546875 C28 27 28 27 28 29 C28.66 29 29.32 29 30 29 C30 29.99 30 30.98 30 32 C30.639375 32.268125 31.27875 32.53625 31.9375 32.8125 C34 34 34 34 35 37 C35.99 37.33 36.98 37.66 38 38 C38.6875 40.0625 38.6875 40.0625 39 42 C37.8803014 43.00593243 36.7540588 44.0045849 35.625 45 C34.99851562 45.556875 34.37203125 46.11375 33.7265625 46.6875 C32 48 32 48 30 48 C26.36576343 45.04718279 25.44936561 42.34809684 24 38 C22.515 37.505 22.515 37.505 21 37 C19.5 34.75 19.5 34.75 18 32 C16.1296594 28.6489731 15.2500454 27.16669693 12 25 C12 24.01 12 23.02 12 22 C11.01 22 10.02 22 9 22 C8.5978125 21.1028125 8.5978125 21.1028125 8.1875 20.1875 C6.98459106 17.97161512 5.84066067 16.69907139 4 15 C0.11428571 11.34285714 0.11428571 11.34285714 -1 8 C-1.66 7.67 -2.32 7.34 -3 7 C-2.25 2.25 -2.25 2.25 0 0 Z " fill="#0F0F0F" transform="translate(387,440)"/>
<path d="M0 0 C1.2684375 0.12375 1.2684375 0.12375 2.5625 0.25 C4.5625 3.25 4.5625 3.25 4.5625 7.25 C2.83531484 8.21189997 1.10565942 9.16936508 -0.625 10.125 C-2.06939453 10.92550781 -2.06939453 10.92550781 -3.54296875 11.7421875 C-6.4375 13.25 -6.4375 13.25 -9.23828125 14.2578125 C-9.96402344 14.58523438 -10.68976563 14.91265625 -11.4375 15.25 C-11.7675 16.24 -12.0975 17.23 -12.4375 18.25 C-14.08954456 18.95211894 -15.75673769 19.61971413 -17.4375 20.25 C-17.7675 20.91 -18.0975 21.57 -18.4375 22.25 C-20.33981892 23.33498371 -22.28508494 24.34548618 -24.25 25.3125 C-25.30832031 25.83972656 -26.36664063 26.36695313 -27.45703125 26.91015625 C-29.83101834 27.97736146 -31.89989975 28.75231085 -34.4375 29.25 C-34.4375 29.91 -34.4375 30.57 -34.4375 31.25 C-41.1875 35.25 -41.1875 35.25 -43.4375 35.25 C-43.705625 34.280625 -43.97375 33.31125 -44.25 32.3125 C-44.641875 31.301875 -45.03375 30.29125 -45.4375 29.25 C-46.4275 28.92 -47.4175 28.59 -48.4375 28.25 C-48.4375 27.26 -48.4375 26.27 -48.4375 25.25 C-46.9812455 24.57880451 -45.52242133 23.91318193 -44.0625 23.25 C-43.25039062 22.87875 -42.43828125 22.5075 -41.6015625 22.125 C-39.4375 21.25 -39.4375 21.25 -37.4375 21.25 C-37.4375 20.59 -37.4375 19.93 -37.4375 19.25 C-35.4575 18.92 -33.4775 18.59 -31.4375 18.25 C-31.4375 17.59 -31.4375 16.93 -31.4375 16.25 C-30.86902344 15.93546875 -30.30054688 15.6209375 -29.71484375 15.296875 C-28.55662109 14.65492188 -28.55662109 14.65492188 -27.375 14 C-26.13943359 13.31744141 -26.13943359 13.31744141 -24.87890625 12.62109375 C-22.83105351 11.47101965 -20.82277588 10.27599227 -18.8125 9.0625 C-15.30052001 7.17643667 -12.28519834 6.19229347 -8.4375 5.25 C-8.4375 4.59 -8.4375 3.93 -8.4375 3.25 C-7.633125 2.940625 -6.82875 2.63125 -6 2.3125 C-0.5617485 0.05761523 -0.5617485 0.05761523 0 0 Z " fill="#0F0F0F" transform="translate(263.4375,417.75)"/>
<path d="M0 0 C1.4391134 0.28359887 2.87625518 0.57721399 4.3125 0.875 C5.11300781 1.03742188 5.91351563 1.19984375 6.73828125 1.3671875 C9 2 9 2 12 4 C13.40077323 4.54293536 14.81985918 5.0399547 16.25 5.5 C17.03761719 5.75394531 17.82523438 6.00789063 18.63671875 6.26953125 C21.74527083 7.23035644 24.86409586 8.13262226 28 9 C28 9.66 28 10.32 28 11 C29.27875 11.2475 30.5575 11.495 31.875 11.75 C39.43088428 13.43966231 46.94687397 16.0619235 53 21 C53 21.99 53 22.98 53 24 C52.34 24 51.68 24 51 24 C51 24.99 51 25.98 51 27 C48.36 26.67 45.72 26.34 43 26 C43 25.34 43 24.68 43 24 C41.82630859 23.80083984 41.82630859 23.80083984 40.62890625 23.59765625 C39.61699219 23.42105469 38.60507813 23.24445313 37.5625 23.0625 C36.04849609 22.80146484 36.04849609 22.80146484 34.50390625 22.53515625 C32 22 32 22 31 21 C29.46470393 20.67647018 27.92125483 20.39127349 26.375 20.125 C21.85151128 19.26031029 18.15733004 17.95639061 14 16 C11.14871822 14.78820524 8.42840185 13.8395514 5.4375 13 C2.70637966 12.20549227 0.46293365 11.37924285 -2 10 C-2.18311068 5.9715651 -1.94158017 3.51624755 0 0 Z " fill="#0F0F0F" transform="translate(209,330)"/>
<path d="M0 0 C0.99 0 1.98 0 3 0 C3.268125 0.763125 3.53625 1.52625 3.8125 2.3125 C4.80258135 4.99059911 4.80258135 4.99059911 6.5625 6.5625 C8.31723441 8.31723441 8.40761117 9.63044469 9 12 C9.495 12.495 9.99 12.99 10.5 13.5 C12.27253927 15.27253927 12.58037981 16.56620292 13 19 C13.66 19 14.32 19 15 19 C15.2578125 19.70898438 15.515625 20.41796875 15.78125 21.1484375 C17.09062742 24.21204493 18.68495948 26.83322157 20.5 29.625 C21.1084375 30.56601562 21.716875 31.50703125 22.34375 32.4765625 C23.55529651 34.32245648 24.77523383 36.16285075 26 38 C26 38.99 26 39.98 26 41 C26.639375 41.20625 27.27875 41.4125 27.9375 41.625 C30 43 30 43 30.75 46.125 C30.8325 47.07375 30.915 48.0225 31 49 C28.8125 51.0625 28.8125 51.0625 26 53 C23.5078125 52.92578125 23.5078125 52.92578125 21 52 C19.41015625 49.8828125 19.41015625 49.8828125 18.0625 47.125 C17.30839844 45.63226563 17.30839844 45.63226563 16.5390625 44.109375 C16.03117187 43.08328125 15.52328125 42.0571875 15 41 C13.98815862 39.12013226 12.96755662 37.24494894 11.9375 35.375 C11.44894531 34.47523438 10.96039063 33.57546875 10.45703125 32.6484375 C9.49201108 30.89432576 8.51036821 29.14924871 7.51171875 27.4140625 C7.05410156 26.61742187 6.59648437 25.82078125 6.125 25 C5.71507812 24.29875 5.30515625 23.5975 4.8828125 22.875 C4 21 4 21 4 18 C3.34 18 2.68 18 2 18 C1.73445313 17.36191406 1.46890625 16.72382813 1.1953125 16.06640625 C0.84210938 15.24011719 0.48890625 14.41382813 0.125 13.5625 C-0.22304688 12.73878906 -0.57109375 11.91507812 -0.9296875 11.06640625 C-1.8244937 8.84253285 -1.8244937 8.84253285 -4 8 C-4 6.35 -4 4.7 -4 3 C-2.68 2.67 -1.36 2.34 0 2 C0 1.34 0 0.68 0 0 Z " fill="#0D0D0D" transform="translate(376,447)"/>
<path d="M0 0 C4.9993348 0.37495011 7.9848651 2.09149818 12.03515625 4.796875 C14.55268693 6.3384246 17.1976965 7.11146475 20 8 C20.33 8.66 20.66 9.32 21 10 C23.30965848 11.05352843 25.6429774 12.05719096 28 13 C28 13.66 28 14.32 28 15 C28.73605469 14.94328125 29.47210938 14.8865625 30.23046875 14.828125 C33.48338351 15.02999841 34.71779426 15.8336177 37.3125 17.75 C40.29964229 19.88152867 43.15264022 21.62259435 46.5 23.125 C50 25 50 25 50.8046875 27.01953125 C50.90136719 27.99986328 50.90136719 27.99986328 51 29 C49.625 30.5625 49.625 30.5625 48 32 C47.67 32.99 47.34 33.98 47 35 C43.34435091 34.31238981 40.48132728 32.74550455 37.25 30.9375 C36.26515625 30.38964844 35.2803125 29.84179688 34.265625 29.27734375 C33.51796875 28.85582031 32.7703125 28.43429687 32 28 C32 27.34 32 26.68 32 26 C30.68 26 29.36 26 28 26 C28 25.34 28 24.68 28 24 C26.906875 23.731875 25.81375 23.46375 24.6875 23.1875 C21.16796376 22.05409002 20.24873178 21.6575921 18 19 C15.60186095 16.91740556 13.58967948 15.23276822 10.625 14.0625 C7.56698423 12.82473171 5.25954333 11.11191426 2.6484375 9.12109375 C0.87939685 7.80867708 0.87939685 7.80867708 -2 7 C-1.125 2.25 -1.125 2.25 0 0 Z " fill="#0D0D0D" transform="translate(404,418)"/>
<path d="M0 0 C0.66 2.31 1.32 4.62 2 7 C-4.52261777 9.97443449 -11.08288047 12.61526861 -17.83984375 15.00390625 C-18.82082031 15.35324219 -19.80179688 15.70257813 -20.8125 16.0625 C-22.18341797 16.54396484 -22.18341797 16.54396484 -23.58203125 17.03515625 C-26.19710999 17.98203062 -26.19710999 17.98203062 -29 20 C-32.20269765 21.05616331 -35.43438178 21.97246492 -38.67578125 22.90234375 C-42.05366045 23.91287092 -42.05366045 23.91287092 -45.16796875 25.69140625 C-48 27 -48 27 -52 26 C-52.33 23.03 -52.66 20.06 -53 17 C-48.43572105 15.10816607 -43.95227199 13.26538728 -39.1875 11.9375 C-36.05071156 11.17665879 -36.05071156 11.17665879 -33.8125 9.59765625 C-30.26748805 7.58389252 -26.72514438 6.58028928 -22.8125 5.5 C-21.29416873 5.06937026 -19.77593907 4.63838207 -18.2578125 4.20703125 C-17.52723633 4.00158691 -16.79666016 3.79614258 -16.04394531 3.58447266 C-12.66803008 2.61911897 -9.32407699 1.55160697 -5.98046875 0.48046875 C-4 0 -4 0 0 0 Z " fill="#080808" transform="translate(260,405)"/>
<path d="M0 0 C2.9375 0.375 2.9375 0.375 6 1 C6.33 1.66 6.66 2.32 7 3 C8.65869478 3.96781488 10.35291227 4.87521784 12.0625 5.75 C16.38719197 8.0434818 20.17907426 10.53068655 24.015625 13.55078125 C26.88843203 15.64883521 29.96900331 17.27648256 33.1171875 18.921875 C35 20 35 20 37 22 C38.27519326 22.50234886 39.56991875 22.95638903 40.875 23.375 C44.41226932 24.62912276 46.56658763 26.05962671 49 29 C48.34 30.98 47.68 32.96 47 35 C41.72856559 35 37.49169957 32.38549729 33.1875 29.5625 C30.1583201 27.5941224 27.19257881 26.21129824 23.8125 24.9375 C19.9050546 23.45433856 17.18102741 21.75115884 14 19 C10.17454469 16.5567022 6.233176 14.62814461 2 13 C-0.00751815 12.01517978 -2.00934459 11.01847486 -4 10 C-4 9.34 -4 8.68 -4 8 C-3.34 8 -2.68 8 -2 8 C-1.34 5.36 -0.68 2.72 0 0 Z " fill="#0C0C0C" transform="translate(219,309)"/>
<path d="M0 0 C2.64 0 5.28 0 8 0 C8 10.23 8 20.46 8 31 C8.66 31 9.32 31 10 31 C10 39.58 10 48.16 10 57 C6.37 57 2.74 57 -1 57 C-1.17430231 37.981681 -0.63299045 19.00486483 0 0 Z " fill="#131313" transform="translate(331,460)"/>
<path d="M0 0 C2.625 0.375 2.625 0.375 5 1 C5.495 4.465 5.495 4.465 6 8 C5.34 8 4.68 8 4 8 C2.94822872 10.02841603 1.99013453 12.02602606 1.1796875 14.1640625 C-0.33123804 17.79628748 -2.14436462 21.2216303 -4 24.6875 C-4.35578125 25.36361328 -4.7115625 26.03972656 -5.078125 26.73632812 C-6.5323222 29.46294787 -7.8022874 31.8022874 -10 34 C-10.70710678 35.64991582 -11.36562656 37.3207762 -12 39 C-12.98541314 41.33974942 -13.99439254 43.66881907 -15 46 C-15.66 46 -16.32 46 -17 46 C-17.66 47.98 -18.32 49.96 -19 52 C-22.79303725 50.99806563 -25.71536341 50.18975773 -29 48 C-28.32902328 43.80639551 -26.1441606 40.59665648 -24 37 C-23.01 37 -22.02 37 -21 37 C-20.896875 36.113125 -20.79375 35.22625 -20.6875 34.3125 C-19.97901716 30.89890084 -18.93546956 28.86449495 -17 26 C-16.34 25.01 -15.68 24.02 -15 23 C-14.34 23 -13.68 23 -13 23 C-12.9175 22.29875 -12.835 21.5975 -12.75 20.875 C-12.00978671 18.0375157 -10.93491295 16.18570205 -9.24609375 13.81640625 C-7.11391164 10.7083665 -5.26924372 7.42409547 -3.3671875 4.171875 C-2 2 -2 2 0 0 Z " fill="#0E0E0E" transform="translate(292,448)"/>
<path d="M0 0 C8.25 0 16.5 0 25 0 C25.72022864 12.96411559 25.72022864 12.96411559 23.734375 15.8203125 C21.54797616 17.25314669 19.62576715 18 17 18 C17 18.66 17 19.32 17 20 C14.24835568 20.13517903 11.50335479 20.23415251 8.75 20.3125 C7.97269531 20.35439453 7.19539063 20.39628906 6.39453125 20.43945312 C0.62113913 20.5628162 0.62113913 20.5628162 -2.49609375 17.73828125 C-4.60968764 13.88989341 -4.78824036 11.37636599 -5 7 C-4.67 6.01 -4.34 5.02 -4 4 C-3.34 4 -2.68 4 -2 4 C-2 3.34 -2 2.68 -2 2 C-1.34 2 -0.68 2 0 2 C0 1.34 0 0.68 0 0 Z " fill="#EFEFEF" transform="translate(439,185)"/>
<path d="M0 0 C10.80065378 -0.68294532 21.37398152 1.32398785 32 3 C33.12196777 3.17644043 34.24393555 3.35288086 35.39990234 3.53466797 C42.60296087 4.67136159 49.80242266 5.82913069 57 7 C56.67 10.3 56.34 13.6 56 17 C51.98897062 18.08465223 49.40916191 17.82766417 45.4375 16.6875 C41.46389021 15.61823773 37.5658035 14.69688069 33.5 14.0625 C27.86729336 13.17469591 22.27968749 12.11060274 16.6875 11 C15.41519531 10.75068726 15.41519531 10.75068726 14.1171875 10.49633789 C9.33205276 9.53883996 4.67158142 8.41219195 0 7 C0 4.69 0 2.38 0 0 Z " fill="#0C0C0C" transform="translate(413,392)"/>
<path d="M0 0 C2.34564431 4.29816387 3.66797759 8.20437122 4.625 13 C4.86476563 14.175625 5.10453125 15.35125 5.3515625 16.5625 C5.94391532 19.70268363 6.4902717 22.84545508 7 26 C7.66 26 8.32 26 9 26 C9.18175781 26.78503906 9.36351562 27.57007813 9.55078125 28.37890625 C10.94918811 34.22352979 12.5345053 39.53303348 15 45 C15.74253423 47.31927359 16.37520956 49.64502064 17 52 C12.375 55 12.375 55 9 55 C8.20752336 52.79195441 7.4159987 50.58357503 6.625 48.375 C6.18414062 47.14523437 5.74328125 45.91546875 5.2890625 44.6484375 C2 35.33939394 2 35.33939394 2 33 C1.34 33 0.68 33 0 33 C-0.18175781 32.40832031 -0.36351562 31.81664062 -0.55078125 31.20703125 C-1.97262327 26.73734324 -3.56667804 23.02027107 -6 19 C-6.7013284 16.67684969 -7.36485174 14.34210921 -8 12 C-8.52791104 10.55739161 -9.06972491 9.11979836 -9.625 7.6875 C-11 4 -11 4 -11 2 C-7.17010894 0.19769832 -4.21878192 -0.19622241 0 0 Z " fill="#0D0D0D" transform="translate(295,253)"/>
<path d="M0 0 C1.55657356 6.22629423 2.35752582 12.18694791 2.75390625 18.59375 C2.73892232 20.94942066 2.73892232 20.94942066 4 22 C4.28719086 23.98327089 4.51559916 25.9751172 4.71875 27.96875 C4.84636719 29.17917969 4.97398437 30.38960938 5.10546875 31.63671875 C5.36848958 34.21223958 5.63151042 36.78776042 5.89453125 39.36328125 C6.08595703 41.17892578 6.08595703 41.17892578 6.28125 43.03125 C6.39533203 44.15080078 6.50941406 45.27035156 6.62695312 46.42382812 C6.72700755 48.92649785 6.72700755 48.92649785 8 50 C8.04080783 51.99958364 8.04254356 54.00045254 8 56 C4.535 56.495 4.535 56.495 1 57 C0.67 55.02 0.34 53.04 0 51 C-0.66 51 -1.32 51 -2 51 C-2.04898437 50.18015625 -2.09796875 49.3603125 -2.1484375 48.515625 C-2.26058594 46.89914062 -2.26058594 46.89914062 -2.375 45.25 C-2.44460938 44.18265625 -2.51421875 43.1153125 -2.5859375 42.015625 C-2.98665934 39.09716028 -3.68525292 37.57084373 -5 35 C-5.54087169 32.63828801 -6.01108452 30.26003575 -6.4375 27.875 C-6.56165283 27.18792969 -6.68580566 26.50085938 -6.8137207 25.79296875 C-8.29027275 17.54279207 -9.65010721 9.27168349 -11 1 C-3.375 0 -3.375 0 0 0 Z " fill="#0D0D0D" transform="translate(317,247)"/>
<path d="M0 0 C6.75 0.875 6.75 0.875 9 2 C8.06898067 8.15568076 7.20578207 13.60845743 4 19 C3.34 19 2.68 19 2 19 C1.9071875 20.3921875 1.9071875 20.3921875 1.8125 21.8125 C1.18057631 26.39394677 -0.83273313 30.22998958 -2.8046875 34.37109375 C-4.23133282 37.50878101 -5.0939232 40.67771839 -6 44 C-6.61919392 45.80104665 -7.26684709 47.59247516 -7.9375 49.375 C-8.25589844 50.22835937 -8.57429688 51.08171875 -8.90234375 51.9609375 C-10 54 -10 54 -13 55 C-15.6875 53.5625 -15.6875 53.5625 -18 52 C-17.54901762 50.06077578 -17.08894441 48.12366406 -16.625 46.1875 C-16.36976563 45.10855469 -16.11453125 44.02960938 -15.8515625 42.91796875 C-15 40 -15 40 -13 37 C-12.15342252 34.19247264 -11.36840269 31.39695881 -10.625 28.5625 C-5.02539694 7.89705233 -5.02539694 7.89705233 0 0 Z " fill="#080808" transform="translate(377,253)"/>
<path d="M0 0 C2.3129482 2.3129482 2.49580975 3.47904875 3.125 6.625 C3.29257812 7.44226563 3.46015625 8.25953125 3.6328125 9.1015625 C3.81457031 10.04128906 3.81457031 10.04128906 4 11 C4.66 11 5.32 11 6 11 C6.17450684 11.53729736 6.34901367 12.07459473 6.52880859 12.62817383 C8.69159435 19.21084274 11.09461174 25.68762159 13.5703125 32.15820312 C15.17520199 36.43675549 16.45374774 40.43067366 17 45 C17.66 45 18.32 45 19 45 C19.33 47.31 19.66 49.62 20 52 C13.375 55 13.375 55 10 55 C8.00584251 50.27597643 6.04570581 45.62882322 4.875 40.625 C4.19050597 37.19362902 4.19050597 37.19362902 3 35 C1.77700689 32.55401378 1.25555654 30.05203827 0.62890625 27.40234375 C-0.88533356 21.61813579 -2.96408124 15.9809983 -4.92578125 10.3359375 C-5.19777344 9.54445313 -5.46976562 8.75296875 -5.75 7.9375 C-5.99234375 7.24527344 -6.2346875 6.55304688 -6.484375 5.83984375 C-7 4 -7 4 -7 1 C-4.48718205 -0.25640898 -2.78302919 -0.20872719 0 0 Z " fill="#0A0A0A" transform="translate(366,455)"/>
<path d="M0 0 C1.43279297 -0.00386719 1.43279297 -0.00386719 2.89453125 -0.0078125 C5.1875 0.125 5.1875 0.125 6.1875 1.125 C6.22830783 3.12458364 6.23004356 5.12545254 6.1875 7.125 C-1.1636751 8.9035101 -8.47684367 10.49085364 -15.9609375 11.59765625 C-18.91931097 12.0974649 -18.91931097 12.0974649 -22.1640625 13.0859375 C-26.02778444 14.18631227 -29.86402177 14.97268929 -33.8125 15.6875 C-34.48539063 15.81318359 -35.15828125 15.93886719 -35.8515625 16.06835938 C-40.16089417 16.86284041 -44.47223161 17.53160393 -48.8125 18.125 C-50.00537411 14.24815913 -50.8125 11.20878077 -50.8125 7.125 C-38.93441006 4.97982445 -27.08512404 2.88932313 -15.08984375 1.51953125 C-12.96633715 1.26390054 -10.84834483 0.95449419 -8.7421875 0.58203125 C-5.78197684 0.12023839 -2.99364274 -0.00819054 0 0 Z " fill="#0A0A0A" transform="translate(251.8125,391.875)"/>
<path d="M0 0 C0.495 4.95 0.495 4.95 1 10 C-0.30453125 10.19335938 -1.6090625 10.38671875 -2.953125 10.5859375 C-4.71878639 10.84871394 -6.48440875 11.11175271 -8.25 11.375 C-9.17079346 11.51220459 -10.09158691 11.64940918 -11.0402832 11.79077148 C-15.76567888 12.49931072 -20.48079098 13.23734063 -25.1875 14.0625 C-32.07061768 15.23742763 -39.00301605 15.98160605 -45.93945312 16.76220703 C-49.29619237 17.14958429 -52.64779222 17.57533691 -56 18 C-56 15.36 -56 12.72 -56 10 C-49.85592531 8.05018786 -43.67285253 7.05593495 -37.3125 6.0625 C-29.87657877 4.86888019 -22.61127672 3.55842499 -15.33984375 1.59375 C-10.22628498 0.29615245 -5.27967826 0 0 0 Z " fill="#060606" transform="translate(469,353)"/>
<path d="M0 0 C7.625 0.875 7.625 0.875 11 2 C11.042721 3.66611905 11.04063832 5.33382885 11 7 C10.67 7.33 10.34 7.66 10 8 C9.835 9.155 9.67 10.31 9.5 11.5 C9 15 9 15 8 16 C7.686944 17.42889919 7.42761741 18.86955143 7.1875 20.3125 C6.21223669 25.91476444 5.1219087 31.4881943 4 37.0625 C3.83395264 37.88854736 3.66790527 38.71459473 3.49682617 39.56567383 C3.167447 41.20285826 2.83777904 42.83998463 2.5078125 44.47705078 C1.66778209 48.65054802 0.83394528 52.82528325 0 57 C-2.31 56.67 -4.62 56.34 -7 56 C-7.3823038 48.5238369 -6.72030301 41.69044108 -5.20996094 34.36083984 C-4.15388543 29.13363709 -3.47501062 23.92932289 -2.9375 18.625 C-2.29570025 12.31441664 -1.39936887 6.19720501 0 0 Z " fill="#0C0C0C" transform="translate(353,247)"/>
<path d="M0 0 C2.31 0 4.62 0 7 0 C9.35075399 9.6312445 11.48331196 19.19668004 13 29 C13.83298608 33.96486149 14.66762927 38.84647806 16.0625 43.6875 C17.13704705 47.48423289 17.58733831 51.0797139 18 55 C12.555 55.495 12.555 55.495 7 56 C4.71829206 43.79852635 2.9297857 31.56718904 1.31518555 19.26074219 C1.0569599 17.40855821 0.74496728 15.56394328 0.41796875 13.72265625 C-0.02858167 10.81381848 -0.09836212 8.06569405 -0.0625 5.125 C-0.05347656 4.15820312 -0.04445313 3.19140625 -0.03515625 2.1953125 C-0.02355469 1.47085937 -0.01195312 0.74640625 0 0 Z " fill="#080808" transform="translate(346,459)"/>
<path d="M0 0 C7.29835357 0.33649007 13.99078475 1.08352532 20.9921875 3.17578125 C30.29360256 5.72461057 40.0329927 7.05553236 49.546875 8.5703125 C51.71703583 8.95043621 53.86258164 9.46564541 56 10 C55.34 12.64 54.68 15.28 54 18 C52.99324219 17.85900879 51.98648438 17.71801758 50.94921875 17.57275391 C47.13232516 17.03853817 43.31521577 16.50587749 39.49804688 15.97363281 C37.86127097 15.74520083 36.22455008 15.51637422 34.58789062 15.28710938 C32.20457872 14.95332859 29.82109944 14.62078355 27.4375 14.2890625 C26.65141357 14.1795929 25.86532715 14.07012329 25.05541992 13.95733643 C18.4208811 13.04137398 11.77656171 12.22486543 5.125 11.44287109 C2 11 2 11 -1 10 C-0.67 6.7 -0.34 3.4 0 0 Z " fill="#060606" transform="translate(202,353)"/>
<path d="M0 0 C0 3.63 0 7.26 0 11 C-18.81 10.34 -37.62 9.68 -57 9 C-57 6.36 -57 3.72 -57 1 C-51.29327043 0.85518456 -45.58648514 0.71288694 -39.87963867 0.57275391 C-37.94505183 0.52491498 -36.01048082 0.47643105 -34.07592773 0.42724609 C-22.71446532 0.13886917 -11.36551408 -0.07959508 0 0 Z " fill="#060606" transform="translate(471,376)"/>
<path d="M0 0 C3.3 0 6.6 0 10 0 C10.1418703 18.69535229 9.73229947 37.32246822 9 56 C6.36 56 3.72 56 1 56 C-0.19388403 18.54823897 -0.19388403 18.54823897 0 0 Z " fill="#0B0B0B" transform="translate(330,246)"/>
<path d="M0 0 C18.15 0.33 36.3 0.66 55 1 C55.495 4.96 55.495 4.96 56 9 C37.52 9.66 19.04 10.32 0 11 C0 7.37 0 3.74 0 0 Z " fill="#040404" transform="translate(200,376)"/>
<path d="M0 0 C4 4.11111111 4 4.11111111 4 8 C4.99 8.33 5.98 8.66 7 9 C7 9.66 7 10.32 7 11 C7.66 11 8.32 11 9 11 C9.4125 12.216875 9.825 13.43375 10.25 14.6875 C11.65272251 18.42591861 13.4323226 20.91878712 16 24 C17.58905354 26.6062112 19.11924938 29.23992896 20.6328125 31.890625 C21.82797828 34.12537406 21.82797828 34.12537406 24 35 C24 34.34 24 33.68 24 33 C25.32 33 26.64 33 28 33 C27.34 30.36 26.68 27.72 26 25 C27.65 25 29.3 25 31 25 C31.495 23.515 31.495 23.515 32 22 C33.42944945 24.35438733 34.08661261 25.48032433 33.625 28.25 C33.41875 28.8275 33.2125 29.405 33 30 C32.34 30 31.68 30 31 30 C29.2463436 32.33942344 29.2463436 32.33942344 28 35 C28.33 35.66 28.66 36.32 29 37 C27.02 37.495 27.02 37.495 25 38 C25 37.34 25 36.68 25 36 C22.69 36.66 20.38 37.32 18 38 C18 38.99 18 39.98 18 41 C16 40 16 40 15.1875 37.8125 C14.10104459 35.23931613 13.18314529 33.91744018 11.375 31.875 C9 29 9 29 9 26 C8.443125 25.814375 7.88625 25.62875 7.3125 25.4375 C3.96865193 23.35889174 1.95192172 20.39186398 0 17 C0 16.34 0 15.68 0 15 C-0.99 15 -1.98 15 -3 15 C-4.4375 12.8125 -4.4375 12.8125 -6 10 C-6.7425 9.13375 -7.485 8.2675 -8.25 7.375 C-8.8275 6.59125 -9.405 5.8075 -10 5 C-9 2 -9 2 -6.6875 0.8125 C-4 0 -4 0 0 0 Z " fill="#EEEEEE" transform="translate(270,279)"/>
<path d="M0 0 C2.31 0 4.62 0 7 0 C7 18.15 7 36.3 7 55 C4.69 55 2.38 55 0 55 C0 36.85 0 18.7 0 0 Z " fill="#121212" transform="translate(203,155)"/>
<path d="M0 0 C1.98 0 3.96 0 6 0 C6.06058594 0.60328125 6.12117187 1.2065625 6.18359375 1.828125 C6.26738281 2.62734375 6.35117188 3.4265625 6.4375 4.25 C6.55931641 5.43335938 6.55931641 5.43335938 6.68359375 6.640625 C6.94871809 8.9987921 6.94871809 8.9987921 7.59765625 11.234375 C7.73042969 11.81703125 7.86320313 12.3996875 8 13 C7.67 13.33 7.34 13.66 7 14 C6.8396444 17.02807044 6.74039552 20.03585454 6.68359375 23.06640625 C6.66281265 23.97502914 6.64203156 24.88365204 6.62062073 25.81980896 C6.55502328 28.73395946 6.4961932 31.64820304 6.4375 34.5625 C6.39432446 36.53321291 6.35071049 38.50391626 6.30664062 40.47460938 C6.19933157 45.31630988 6.09809325 50.15810437 6 55 C4.02 55 2.04 55 0 55 C0 36.85 0 18.7 0 0 Z " fill="#070707" transform="translate(221,155)"/>
<path d="M0 0 C3.41194728 0.6092763 5.28093404 1.90531215 8 4 C14.37991143 8.71847616 20.45963782 9.49847638 28.1875 9.5625 C29.04279297 9.57692139 29.89808594 9.59134277 30.77929688 9.60620117 C36.71406497 9.51224554 40.04100106 8.21647916 45 5 C48.4375 4.25 48.4375 4.25 51 4 C51 6.31 51 8.62 51 11 C49.046875 11.71614583 47.09375 12.43229167 45.140625 13.1484375 C43.00700701 13.9278748 43.00700701 13.9278748 41.23046875 15.078125 C37.90538803 16.45241406 34.60571421 16.38168531 31.0625 16.375 C30.31339355 16.37556396 29.56428711 16.37612793 28.79248047 16.37670898 C21.74663694 16.2396274 15.56975603 14.51672192 9 12 C8.01 11.67 7.02 11.34 6 11 C6 10.34 6 9.68 6 9 C4.68 9 3.36 9 2 9 C-0.25 7 -0.25 7 -2 5 C-1.34 3.35 -0.68 1.7 0 0 Z " fill="#0C0C0C" transform="translate(141,195)"/>
<path d="M0 0 C1.98 0 3.96 0 6 0 C6 1.98 6 3.96 6 6 C6.99 6.33 7.98 6.66 9 7 C8.67854004 7.62994873 8.35708008 8.25989746 8.02587891 8.90893555 C6.62879113 13.11848536 6.64441048 17.04787796 6.5859375 21.45703125 C6.56657135 22.35999435 6.5472052 23.26295746 6.5272522 24.19328308 C6.46765918 27.06626047 6.42115231 29.93927837 6.375 32.8125 C6.33680155 34.76499105 6.29774873 36.71746559 6.2578125 38.66992188 C6.16197431 43.44647984 6.07786848 48.22311667 6 53 C4.02 53 2.04 53 0 53 C0 35.51 0 18.02 0 0 Z " fill="#010101" transform="translate(335,156)"/>
<path d="M0 0 C1.7421875 1.65625 1.7421875 1.65625 1.9921875 5.34375 C1.9096875 6.436875 1.8271875 7.53 1.7421875 8.65625 C1.17113281 8.35976562 0.60007813 8.06328125 0.01171875 7.7578125 C-11.59329091 2.12508836 -24.19176237 2.16823424 -36.37890625 6 C-36.99894531 6.2165625 -37.61898437 6.433125 -38.2578125 6.65625 C-38.2578125 7.31625 -38.2578125 7.97625 -38.2578125 8.65625 C-41.62465165 11.08785605 -42.99131614 11.65625 -47.2578125 11.65625 C-47.5878125 10.66625 -47.9178125 9.67625 -48.2578125 8.65625 C-47.5978125 8.223125 -46.9378125 7.79 -46.2578125 7.34375 C-45.2678125 6.5084375 -45.2678125 6.5084375 -44.2578125 5.65625 C-44.2578125 4.66625 -44.2578125 3.67625 -44.2578125 2.65625 C-32.93113905 -4.89486563 -12.06587279 -7.18107308 0 0 Z " fill="#0F0F0F" transform="translate(188.2578125,131.34375)"/>
<path d="M0 0 C0.1875 3.125 0.1875 3.125 0 6 C-0.66386719 5.79503906 -1.32773437 5.59007812 -2.01171875 5.37890625 C-2.89472656 5.10949219 -3.77773438 4.84007812 -4.6875 4.5625 C-5.55761719 4.29566406 -6.42773438 4.02882812 -7.32421875 3.75390625 C-14.38096889 1.76565402 -21.60396888 0.54455809 -28.5 3.5 C-29.325 3.995 -30.15 4.49 -31 5 C-31.66 5 -32.32 5 -33 5 C-33 6.32 -33 7.64 -33 9 C-33.66 9 -34.32 9 -35 9 C-34.62875 10.60875 -34.62875 10.60875 -34.25 12.25 C-34 16 -34 16 -35.9375 18.4375 C-36.618125 18.953125 -37.29875 19.46875 -38 20 C-40.73821055 17.26178945 -40.36332385 15.57225338 -40.4375 11.75 C-40.30007927 4.42628361 -40.30007927 4.42628361 -38 1.375 C-28.20387944 -6.38026211 -10.50964753 -7.00643169 0 0 Z " fill="#0F0F0F" transform="translate(525,158)"/>
<path d="M0 0 C4.875 2.75 4.875 2.75 6 5 C6.99 5.33 7.98 5.66 9 6 C8.33333333 8 7.66666667 10 7 12 C6.566875 13.546875 6.566875 13.546875 6.125 15.125 C5 18 5 18 3.08984375 19.83203125 C0.73318451 22.2767899 -0.27355384 24.43584842 -1.5625 27.5625 C-2.9913318 31.01511978 -4.14614466 33.54320279 -7 36 C-7.66 35.01 -8.32 34.02 -9 33 C-9.99 33.66 -10.98 34.32 -12 35 C-11.71640113 33.5608866 -11.42278601 32.12374482 -11.125 30.6875 C-10.96257812 29.88699219 -10.80015625 29.08648437 -10.6328125 28.26171875 C-10 26 -10 26 -8 23 C-7.52049351 21.74441363 -7.08741331 20.47065742 -6.6875 19.1875 C-5.31254625 14.90671614 -3.83182971 10.66880913 -2.3125 6.4375 C-1.87550781 5.21933594 -1.43851562 4.00117188 -0.98828125 2.74609375 C-0.66214844 1.83988281 -0.33601563 0.93367188 0 0 Z " fill="#EBEBEB" transform="translate(379,272)"/>
<path d="M0 0 C3 3 3 3 4 5 C3.64869684 6.88426238 3.29372974 8.76894662 2.86328125 10.63671875 C3.08097767 14.39975694 4.38071018 17.34720302 7 20 C9.91883782 20.99244188 12.6879102 20.98066379 15.75 20.9375 C16.93916016 20.96166992 16.93916016 20.96166992 18.15234375 20.98632812 C20.10124959 21.02154931 22.05083284 21.01489538 24 21 C24.33 21.99 24.66 22.98 25 24 C19.90438945 26.96471886 16.03970535 28.83306281 10 28 C6.52819053 26.94089146 3.15589668 25.80768795 0 24 C-0.33 23.01 -0.66 22.02 -1 21 C-1.66 20.67 -2.32 20.34 -3 20 C-5.09474271 13.8892219 -4.62553543 6.83452317 -2 1 C-1.34 0.67 -0.68 0.34 0 0 Z " fill="#0E0E0E" transform="translate(432,184)"/>
<path d="M0 0 C0.66 0.33 1.32 0.66 2 1 C1.67 2.32 1.34 3.64 1 5 C1.53625 5.0825 2.0725 5.165 2.625 5.25 C5.8384276 6.26476661 8.21907502 8.10897101 11 10 C11.969375 10.474375 12.93875 10.94875 13.9375 11.4375 C17.63512005 13.32404084 20.72461885 15.44520271 24 18 C24 18.66 24 19.32 24 20 C25.32 20.33 26.64 20.66 28 21 C26.02 21.99 26.02 21.99 24 23 C23.7018576 26.7763932 23.7018576 26.7763932 25 29 C27.01669827 30.13350534 27.01669827 30.13350534 29 31 C28.34 31.66 27.68 32.32 27 33 C26.52691406 32.56429687 26.05382812 32.12859375 25.56640625 31.6796875 C21.21019209 27.75654726 16.82569708 24.45714732 11.78515625 21.45703125 C9.67435575 19.73421158 9.35809418 18.65444413 9 16 C8.236875 16.0825 7.47375 16.165 6.6875 16.25 C4 16 4 16 2.1875 14.125 C1 12 1 12 1 10 C-0.65 9.67 -2.3 9.34 -4 9 C-2.68 8.34 -1.36 7.68 0 7 C-0.33 6.01 -0.66 5.02 -1 4 C-0.5625 1.8125 -0.5625 1.8125 0 0 Z " fill="#ECECEC" transform="translate(401,420)"/>
<path d="M0 0 C0.66 2.31 1.32 4.62 2 7 C-2.39281683 9.00320582 -6.77874369 10.96006124 -11.3125 12.625 C-14.8285735 13.83133715 -14.8285735 13.83133715 -17.25 15.25 C-19 16 -19 16 -21.0625 15.8125 C-23.29554926 14.87605999 -24.49157644 13.88552944 -26 12 C-26 11.34 -26 10.68 -26 10 C-27.98 10 -29.96 10 -32 10 C-31 8 -31 8 -27.53515625 6.81640625 C-26.04652402 6.39048222 -24.55545996 5.97299697 -23.0625 5.5625 C-21.50771128 5.12275357 -19.9530233 4.68265076 -18.3984375 4.2421875 C-17.64272461 4.03045898 -16.88701172 3.81873047 -16.10839844 3.60058594 C-12.71005155 2.6325529 -9.34528933 1.55840242 -5.98046875 0.48046875 C-4 0 -4 0 0 0 Z " fill="#181818" transform="translate(260,405)"/>
<path d="M0 0 C1.65 0 3.3 0 5 0 C4.34 0.66 3.68 1.32 3 2 C2.68600328 4.17323021 2.68600328 4.17323021 2.7215271 6.72024536 C2.71036362 7.71586487 2.69920013 8.71148437 2.68769836 9.73727417 C2.68553818 10.83347076 2.68337799 11.92966736 2.68115234 13.05908203 C2.67110672 14.21029541 2.6610611 15.36150879 2.65071106 16.54760742 C2.6197235 20.36767051 2.60280064 24.18766305 2.5859375 28.0078125 C2.56723839 30.65054946 2.54766594 33.29328037 2.5272522 35.93600464 C2.48041848 42.19036347 2.4436967 48.44473945 2.41057932 54.6991843 C2.37239029 61.81886151 2.32297177 68.93844679 2.27259517 76.05804658 C2.16920708 90.70529365 2.07996911 105.35260659 2 120 C1.34 120 0.68 120 0 120 C0 80.4 0 40.8 0 0 Z " fill="#000000" transform="translate(67,321)"/>
<path d="M0 0 C3.03412705 2.23600595 5.53158885 4.56034246 7.5 7.8125 C7.17 8.8025 6.84 9.7925 6.5 10.8125 C4.3125 11.625 4.3125 11.625 1.5 11.8125 C-1.0625 9.5625 -1.0625 9.5625 -3.5 6.8125 C-6.25244047 4.06005953 -7.37661464 3.82444052 -11.375 3.4375 C-15.33379324 3.56995033 -18.02446278 4.91675242 -21.5 6.8125 C-22.82 6.8125 -24.14 6.8125 -25.5 6.8125 C-25.5 7.4725 -25.5 8.1325 -25.5 8.8125 C-26.16 8.8125 -26.82 8.8125 -27.5 8.8125 C-27.5 9.4725 -27.5 10.1325 -27.5 10.8125 C-28.49 10.4825 -29.48 10.1525 -30.5 9.8125 C-30.83 8.8225 -31.16 7.8325 -31.5 6.8125 C-30.84 6.4825 -30.18 6.1525 -29.5 5.8125 C-29.17 4.8225 -28.84 3.8325 -28.5 2.8125 C-20.77762314 -2.86571828 -8.50622773 -5.05603816 0 0 Z " fill="#0C0C0C" transform="translate(258.5,156.1875)"/>
<path d="M0 0 C1.296875 2.07421875 1.296875 2.07421875 2 5 C1.36324988 7.72851747 0.66659324 10.09252538 -0.3125 12.6875 C-0.55162109 13.36361328 -0.79074219 14.03972656 -1.03710938 14.73632812 C-1.92284528 17.21589522 -2.82155339 19.64310679 -4 22 C-7.3 21.01 -10.6 20.02 -14 19 C-12.25 10.375 -12.25 10.375 -10 7 C-9.690625 5.80375 -9.38125 4.6075 -9.0625 3.375 C-8.5365625 1.704375 -8.5365625 1.704375 -8 0 C-4.65284689 -1.1157177 -3.28928478 -1.1807689 0 0 Z " fill="#090909" transform="translate(298,488)"/>
<path d="M0 0 C2.625 0.9375 2.625 0.9375 5 2 C4.01 2.66 3.02 3.32 2 4 C1.67 4.99 1.34 5.98 1 7 C-0.31647119 7.69937532 -1.65022151 8.36729133 -3 9 C-3.33 9.66 -3.66 10.32 -4 11 C-4.66 11 -5.32 11 -6 11 C-6.226875 11.556875 -6.45375 12.11375 -6.6875 12.6875 C-8.71496648 16.25970284 -11.22080731 19.31972044 -15.125 20.8125 C-17 21 -17 21 -20 21 C-20.66 20.34 -21.32 19.68 -22 19 C-22.99 19.99 -23.98 20.98 -25 22 C-25.66 21.67 -26.32 21.34 -27 21 C-26.67 20.34 -26.34 19.68 -26 19 C-25.34 19 -24.68 19 -24 19 C-24 18.34 -24 17.68 -24 17 C-22.171875 15.4140625 -22.171875 15.4140625 -19.75 13.625 C-17.2543718 11.77366797 -15.00074253 10.00076123 -12.828125 7.7734375 C-11 6 -11 6 -9 6 C-8.67 5.01 -8.34 4.02 -8 3 C-5.85412616 1.684787 -4.52986895 1 -2 1 C-1.34 0.67 -0.68 0.34 0 0 Z " fill="#EEEEEE" transform="translate(278,437)"/>
<path d="M0 0 C5 1 5 1 6 2 C6.08868299 4.95705321 6.11520296 7.89065056 6.09765625 10.84765625 C6.0962413 11.7340831 6.09482635 12.62050995 6.09336853 13.53379822 C6.08775215 16.37673254 6.07519691 19.21958931 6.0625 22.0625 C6.05748711 23.98502491 6.05292384 25.90755104 6.04882812 27.83007812 C6.03777741 32.55341549 6.02050183 37.27669458 6 42 C4.35 42 2.7 42 1 42 C0.505 21.21 0.505 21.21 0 0 Z " fill="#020202" transform="translate(374,167)"/>
<path d="M0 0 C0.33 0 0.66 0 1 0 C0.32545897 7.8246759 -1.26876958 15.34556614 -3 23 C-5.31 22.67 -7.62 22.34 -10 22 C-10.02721176 20.10424749 -10.04649136 18.20838021 -10.0625 16.3125 C-10.07410156 15.25675781 -10.08570313 14.20101563 -10.09765625 13.11328125 C-10.00865425 10.27589738 -9.64939838 7.7561081 -9 5 C-8.360625 4.87625 -7.72125 4.7525 -7.0625 4.625 C-6.381875 4.41875 -5.70125 4.2125 -5 4 C-4.67 3.34 -4.34 2.68 -4 2 C-3.01 2.33 -2.02 2.66 -1 3 C-0.67 2.01 -0.34 1.02 0 0 Z " fill="#060606" transform="translate(356,281)"/>
<path d="M0 0 C2.97845911 1.11692216 3.92918824 2.209248 5.5 4.9375 C5.5 5.5975 5.5 6.2575 5.5 6.9375 C7.15 6.9375 8.8 6.9375 10.5 6.9375 C10.83 7.9275 11.16 8.9175 11.5 9.9375 C10.51 9.9375 9.52 9.9375 8.5 9.9375 C8.83 11.2575 9.16 12.5775 9.5 13.9375 C8.51 13.9375 7.52 13.9375 6.5 13.9375 C6.17 15.2575 5.84 16.5775 5.5 17.9375 C4.819375 17.050625 4.13875 16.16375 3.4375 15.25 C0.54430309 11.74989684 -2.73312161 9.44875226 -6.5 6.9375 C-5.57453067 2.79859551 -4.76536029 -0.11913401 0 0 Z " fill="#131313" transform="translate(399.5,429.0625)"/>
<path d="M0 0 C3.96 0 7.92 0 12 0 C12 0.33 12 0.66 12 1 C8.37 1 4.74 1 1 1 C1 3.31 1 5.62 1 8 C1.9075 8.12375 2.815 8.2475 3.75 8.375 C9.18285445 9.14792156 14.58965229 10.0849494 20 11 C20 11.33 20 11.66 20 12 C19.05125 12.12375 18.1025 12.2475 17.125 12.375 C13.91332809 12.71687177 13.91332809 12.71687177 12 15 C7.17339223 16.7551301 2.78098669 15.26034725 -2 14 C-2.33 15.32 -2.66 16.64 -3 18 C-3.125 15.625 -3.125 15.625 -3 13 C-2.34 12.34 -1.68 11.68 -1 11 C-0.53709779 8.33757179 -0.53709779 8.33757179 -0.375 5.375 C-0.25125 3.60125 -0.1275 1.8275 0 0 Z M0 9 C1 11 1 11 1 11 Z " fill="#E1E1E1" transform="translate(412,391)"/>
<path d="M0 0 C1.32 0 2.64 0 4 0 C4 0.66 4 1.32 4 2 C4.804375 2.144375 5.60875 2.28875 6.4375 2.4375 C9 3 9 3 10 4 C11.155 4.144375 12.31 4.28875 13.5 4.4375 C14.655 4.623125 15.81 4.80875 17 5 C17.33 5.66 17.66 6.32 18 7 C17.01 7.33 16.02 7.66 15 8 C14.67 8.66 14.34 9.32 14 10 C13.34 10 12.68 10 12 10 C12 10.66 12 11.32 12 12 C7.76677156 11.37954537 4.47709705 9.89476441 0.6875 7.9375 C-0.38113281 7.38964844 -1.44976562 6.84179688 -2.55078125 6.27734375 C-3.76314453 5.64505859 -3.76314453 5.64505859 -5 5 C-4.360625 4.54625 -3.72125 4.0925 -3.0625 3.625 C-0.90297594 2.16078274 -0.90297594 2.16078274 0 0 Z " fill="#E8E8E8" transform="translate(410,413)"/>
<path d="M0 0 C0.99 0 1.98 0 3 0 C3.28875 0.78375 3.5775 1.5675 3.875 2.375 C4.84912254 5.09671632 4.84912254 5.09671632 7 7 C6.6875 9.1875 6.6875 9.1875 6 12 C5.65596692 14.33177975 5.32050798 16.66487041 5 19 C2 18 2 18 0.90234375 15.96875 C0.58394531 15.1540625 0.26554687 14.339375 -0.0625 13.5 C-1.22702003 10.03943188 -1.22702003 10.03943188 -4 8 C-4 6.35 -4 4.7 -4 3 C-2.68 2.67 -1.36 2.34 0 2 C0 1.34 0 0.68 0 0 Z " fill="#181818" transform="translate(376,447)"/>
<path d="M0 0 C1.32 0.99 2.64 1.98 4 3 C4.99 3.33 5.98 3.66 7 4 C7 4.33 7 4.66 7 5 C7.33 5.66 7.66 6.32 8 7 C4.01811282 8.71767682 0.03520597 10.41037341 -4 12 C-4 12.66 -4 13.32 -4 14 C-6.97 13.505 -6.97 13.505 -10 13 C-9.01 11.35 -8.02 9.7 -7 8 C-7.66 7.67 -8.32 7.34 -9 7 C-6.03 4.69 -3.06 2.38 0 0 Z " fill="#E3E3E3" transform="translate(413,321)"/>
<path d="M0 0 C0 0.33 0 0.66 0 1 C-3.3 1.33 -6.6 1.66 -10 2 C-7.03 2.495 -7.03 2.495 -4 3 C-4 3.33 -4 3.66 -4 4 C-5.03125 4.268125 -6.0625 4.53625 -7.125 4.8125 C-9.73661548 5.54586273 -11.72768135 6.3709748 -14.1875 7.625 C-17 9 -17 9 -21 9 C-21 9.66 -21 10.32 -21 11 C-21.66 11 -22.32 11 -23 11 C-23 11.66 -23 12.32 -23 13 C-23.99 12.67 -24.98 12.34 -26 12 C-26.33 11.01 -26.66 10.02 -27 9 C-26.34 8.67 -25.68 8.34 -25 8 C-24.67 7.01 -24.34 6.02 -24 5 C-16.54028449 -0.48508494 -8.88149751 -0.26250732 0 0 Z " fill="#111111" transform="translate(254,154)"/>
<path d="M0 0 C0.66 0.33 1.32 0.66 2 1 C2.33 1.99 2.66 2.98 3 4 C3.680625 4.680625 4.36125 5.36125 5.0625 6.0625 C5.701875 6.701875 6.34125 7.34125 7 8 C7 8.66 7 9.32 7 10 C7.99 10.33 8.98 10.66 10 11 C10.6875 13.0625 10.6875 13.0625 11 15 C10.360625 15.28875 9.72125 15.5775 9.0625 15.875 C6.84793921 16.82823451 6.84793921 16.82823451 6 19 C5.34 19 4.68 19 4 19 C3.731875 18.030625 3.46375 17.06125 3.1875 16.0625 C2.795625 15.051875 2.40375 14.04125 2 13 C1.01 12.67 0.02 12.34 -1 12 C-2.1875 8.9375 -2.1875 8.9375 -3 6 C-2.01 6 -1.02 6 0 6 C0 4.02 0 2.04 0 0 Z " fill="#E9E9E9" transform="translate(385,447)"/>
<path d="M0 0 C2.9375 0.375 2.9375 0.375 6 1 C6.33 1.66 6.66 2.32 7 3 C9.01669827 4.13350534 9.01669827 4.13350534 11 5 C10.67 5.66 10.34 6.32 10 7 C9.01 7 8.02 7 7 7 C7 7.66 7 8.32 7 9 C6.01 9.495 6.01 9.495 5 10 C3.86649466 12.01669827 3.86649466 12.01669827 3 14 C2.1028125 13.2884375 2.1028125 13.2884375 1.1875 12.5625 C-1.00382924 10.83534256 -1.00382924 10.83534256 -4 10 C-4 9.34 -4 8.68 -4 8 C-3.34 8 -2.68 8 -2 8 C-1.34 5.36 -0.68 2.72 0 0 Z " fill="#141414" transform="translate(219,309)"/>
<path d="M0 0 C2 3 2 3 2 7 C2.66 7 3.32 7 4 7 C4 7.66 4 8.32 4 9 C10.6 9.99 17.2 10.98 24 12 C24 12.33 24 12.66 24 13 C19.38 13 14.76 13 10 13 C9.67 14.32 9.34 15.64 9 17 C7.5410574 16.52269162 6.08286504 16.04308958 4.625 15.5625 C3.81289063 15.29566406 3.00078125 15.02882812 2.1640625 14.75390625 C0 14 0 14 -2 13 C-1.125 6.25 -1.125 6.25 0 4 C0 2.68 0 1.36 0 0 Z " fill="#232323" transform="translate(490,167)"/>
<path d="M0 0 C4.7517398 0.43197635 6.92000054 1.32769295 10 5 C9.34 6.98 8.68 8.96 8 11 C2.63626649 11 -1.95001278 8.40198926 -6 5 C-4.35 4.67 -2.7 4.34 -1 4 C-0.67 2.68 -0.34 1.36 0 0 Z " fill="#0D0D0D" transform="translate(258,333)"/>
<path d="M0 0 C0 0.33 0 0.66 0 1 C-2.64 1.33 -5.28 1.66 -8 2 C-8 2.99 -8 3.98 -8 5 C-9.72856459 5.4813341 -11.45788071 5.95996971 -13.1875 6.4375 C-14.63189453 6.83775391 -14.63189453 6.83775391 -16.10546875 7.24609375 C-18.72663697 7.92880018 -21.338935 8.49892195 -24 9 C-24 7.35 -24 5.7 -24 4 C-23.34 4 -22.68 4 -22 4 C-22 3.34 -22 2.68 -22 2 C-14.66258031 -0.3479743 -7.65606218 -0.19355213 0 0 Z " fill="#121212" transform="translate(456,154)"/>
<path d="M0 0 C0 0.99 0 1.98 0 3 C0.66 3.66 1.32 4.32 2 5 C2 5.99 2 6.98 2 8 C-3.5 11.125 -3.5 11.125 -8 10 C-8.33 7.03 -8.66 4.06 -9 1 C-5.57367167 -0.61798838 -3.61944899 -1.34053666 0 0 Z " fill="#0E0E0E" transform="translate(216,421)"/>
<path d="M0 0 C0.33 0.99 0.66 1.98 1 3 C1.99 3.33 2.98 3.66 4 4 C5.74672985 7.4934597 7 10.06845568 7 14 C5.68 14 4.36 14 3 14 C3 14.66 3 15.32 3 16 C0.2556051 14.95902262 -0.9787139 14.02715813 -2.8125 11.6875 C-4.18729237 8.5761278 -4.00295901 7.19123321 -3 4 C-2.34 4 -1.68 4 -1 4 C-0.67 2.68 -0.34 1.36 0 0 Z " fill="#0A0A0A" transform="translate(291,298)"/>
<path d="M0 0 C0.33 0 0.66 0 1 0 C1.33 26.73 1.66 53.46 2 81 C1.34 81 0.68 81 0 81 C-1.98 77.535 -1.98 77.535 -4 74 C-3.01 74.33 -2.02 74.66 -1 75 C-0.67 50.25 -0.34 25.5 0 0 Z " fill="#949494" transform="translate(150,320)"/>
<path d="M0 0 C1.34430424 3.0552369 0.9389554 4.16482042 -0.25 7.375 C-0.81942549 8.58994931 -1.4030452 9.79833774 -2 11 C-2.556875 12.134375 -3.11375 13.26875 -3.6875 14.4375 C-4.3371875 15.7059375 -4.3371875 15.7059375 -5 17 C-7.02045442 16.39816251 -9.02111039 15.72693904 -11 15 C-11.33 14.34 -11.66 13.68 -12 13 C-11.67 12.01 -11.34 11.02 -11 10 C-10.34 10 -9.68 10 -9 10 C-8.7525 9.195625 -8.505 8.39125 -8.25 7.5625 C-7.8375 6.716875 -7.425 5.87125 -7 5 C-5.0625 4.4375 -5.0625 4.4375 -3 4 C-1.24577228 2.02329393 -1.24577228 2.02329393 0 0 Z " fill="#121212" transform="translate(371,291)"/>
<path d="M0 0 C2.625 0.9375 2.625 0.9375 5 2 C4.01 2.66 3.02 3.32 2 4 C1.67 4.99 1.34 5.98 1 7 C-0.31647119 7.69937532 -1.65022151 8.36729133 -3 9 C-3.33 9.66 -3.66 10.32 -4 11 C-4.66 11 -5.32 11 -6 11 C-6.33 11.99 -6.66 12.98 -7 14 C-7.33 13.01 -7.66 12.02 -8 11 C-8.99 10.67 -9.98 10.34 -11 10 C-11.33 9.01 -11.66 8.02 -12 7 C-11.01 6.67 -10.02 6.34 -9 6 C-8.67 5.01 -8.34 4.02 -8 3 C-5.85412616 1.684787 -4.52986895 1 -2 1 C-1.34 0.67 -0.68 0.34 0 0 Z M-8 6 C-8.66 6.66 -9.32 7.32 -10 8 C-8.68 7.67 -7.36 7.34 -6 7 C-6.66 6.67 -7.32 6.34 -8 6 Z " fill="#ECECEC" transform="translate(278,437)"/>
<path d="M0 0 C0.99 0.33 1.98 0.66 3 1 C3 1.99 3 2.98 3 4 C2.34 4 1.68 4 1 4 C1 28.75 1 53.5 1 79 C0.67 79 0.34 79 0 79 C0 52.93 0 26.86 0 0 Z " fill="#E4E4E4" transform="translate(92,363)"/>
<path d="M0 0 C0.66 0.33 1.32 0.66 2 1 C1.67 2.32 1.34 3.64 1 5 C1.53625 5.0825 2.0725 5.165 2.625 5.25 C5.8352431 6.26376098 8.26292392 8.07160549 11 10 C10.505 10.61875 10.01 11.2375 9.5 11.875 C7.80777227 13.83880904 7.80777227 13.83880904 8 16 C6.68 16 5.36 16 4 16 C1 12.78571429 1 12.78571429 1 10 C-0.65 9.67 -2.3 9.34 -4 9 C-2.68 8.34 -1.36 7.68 0 7 C-0.33 6.01 -0.66 5.02 -1 4 C-0.5625 1.8125 -0.5625 1.8125 0 0 Z " fill="#E4E4E4" transform="translate(401,420)"/>
<path d="M0 0 C-2.25495944 3.56910799 -4.16748278 4.75198382 -8.125 6.125 C-11.81823308 7.17352898 -11.81823308 7.17352898 -14 10 C-16.0625 10.625 -16.0625 10.625 -18 11 C-17.18396192 6.75660197 -16.59792568 4.52839944 -13.3125 1.625 C-8.70940497 -0.63312209 -4.93574934 -1.64524978 0 0 Z " fill="#151515" transform="translate(360,156)"/>
<path d="M0 0 C5.52677733 -0.19392201 9.75614911 0.2520497 15 2 C14.34 4.64 13.68 7.28 13 10 C10.36 9.67 7.72 9.34 5 9 C4.95745644 7.00045254 4.95919217 4.99958364 5 3 C5.33 2.67 5.66 2.34 6 2 C3.03 1.505 3.03 1.505 0 1 C0 0.67 0 0.34 0 0 Z " fill="#0F0F0F" transform="translate(243,361)"/>
<path d="M0 0 C2.31 0 4.62 0 7 0 C8.125 5.625 8.125 5.625 7 9 C4.69 9 2.38 9 0 9 C0 8.34 0 7.68 0 7 C-0.66 7 -1.32 7 -2 7 C-2 5.35 -2 3.7 -2 2 C-1.34 2 -0.68 2 0 2 C0 1.34 0 0.68 0 0 Z " fill="#111111" transform="translate(203,131)"/>
<path d="M0 0 C1.6875 0.9375 1.6875 0.9375 2.6875 2.9375 C0.46269366 6.33325704 -1.7745023 7.99160126 -5.3125 9.9375 C-6.3025 10.5975 -7.2925 11.2575 -8.3125 11.9375 C-8.3125 10.9475 -8.3125 9.9575 -8.3125 8.9375 C-10.7875 7.9475 -10.7875 7.9475 -13.3125 6.9375 C-12.9825 6.2775 -12.6525 5.6175 -12.3125 4.9375 C-10.9925 4.9375 -9.6725 4.9375 -8.3125 4.9375 C-7.3225 4.091875 -6.3325 3.24625 -5.3125 2.375 C-2.3125 -0.0625 -2.3125 -0.0625 0 0 Z " fill="#1E1E1E" transform="translate(390.3125,156.0625)"/>
<path d="M0 0 C2.98109853 0.71307141 5.22034131 1.63639385 8 3 C8.33 3.66 8.66 4.32 9 5 C7.68 5 6.36 5 5 5 C4.67 5.99 4.34 6.98 4 8 C0.65750371 7.40312566 -1.46436342 6.26396123 -4 4 C-4 3.34 -4 2.68 -4 2 C-7.63 2 -11.26 2 -15 2 C-10.31709586 -1.12193609 -5.48613898 -0.46410519 0 0 Z " fill="#262626" transform="translate(308,154)"/>
<path d="M0 0 C0.33 0.66 0.66 1.32 1 2 C2.65 2 4.3 2 6 2 C6 2.66 6 3.32 6 4 C6.66 4 7.32 4 8 4 C8.33 3.34 8.66 2.68 9 2 C11 5 11 5 11 8 C9.02 8.66 7.04 9.32 5 10 C5 9.34 5 8.68 5 8 C4.401875 7.95875 3.80375 7.9175 3.1875 7.875 C1 7 1 7 -0.75 3.9375 C-1.1625 2.968125 -1.575 1.99875 -2 1 C-1.34 0.67 -0.68 0.34 0 0 Z " fill="#E3E3E3" transform="translate(393,440)"/>
<path d="M0 0 C0.66 0.33 1.32 0.66 2 1 C2.625 4.0625 2.625 4.0625 3 7 C2.01 7.33 1.02 7.66 0 8 C-1.80787306 10.37402417 -1.80787306 10.37402417 -3 13 C-2.67 13.66 -2.34 14.32 -2 15 C-3.32 15.33 -4.64 15.66 -6 16 C-6 15.34 -6 14.68 -6 14 C-7.32 14 -8.64 14 -10 14 C-9.67 13.34 -9.34 12.68 -9 12 C-8.34 12.33 -7.68 12.66 -7 13 C-7 12.34 -7 11.68 -7 11 C-5.68 11 -4.36 11 -3 11 C-3.66 8.36 -4.32 5.72 -5 3 C-3.35 3 -1.7 3 0 3 C0 2.01 0 1.02 0 0 Z " fill="#CFCFCF" transform="translate(301,301)"/>
<path d="M0 0 C0 0.99 0 1.98 0 3 C1.32 3.33 2.64 3.66 4 4 C4.33 5.32 4.66 6.64 5 8 C4.34 8 3.68 8 3 8 C3 7.01 3 6.02 3 5 C2.34 5 1.68 5 1 5 C1 5.66 1 6.32 1 7 C-0.65 7.33 -2.3 7.66 -4 8 C-4 8.66 -4 9.32 -4 10 C-6.64 10.33 -9.28 10.66 -12 11 C-11.38125 10.71125 -10.7625 10.4225 -10.125 10.125 C-7.86674235 9.06279958 -7.86674235 9.06279958 -6 7 C-6 5.68 -6 4.36 -6 3 C-2.78571429 0 -2.78571429 0 0 0 Z " fill="#494949" transform="translate(462,200)"/>
<path d="M0 0 C0 0.33 0 0.66 0 1 C-3.3 1.33 -6.6 1.66 -10 2 C-7.03 2.495 -7.03 2.495 -4 3 C-4 3.33 -4 3.66 -4 4 C-8.33085971 5.29925791 -12.51474352 6.343621 -17 7 C-16.67 6.34 -16.34 5.68 -16 5 C-15.01 5 -14.02 5 -13 5 C-13 4.34 -13 3.68 -13 3 C-15.64 3.66 -18.28 4.32 -21 5 C-18.87419021 1.81128532 -17.88617828 1.26494707 -14.28515625 0.33984375 C-9.55596623 -0.36347169 -4.76686366 -0.14089252 0 0 Z " fill="#252525" transform="translate(254,154)"/>
<path d="M0 0 C0.33 3.3 0.66 6.6 1 10 C-0.65 10 -2.3 10 -4 10 C-4.12375 8.865625 -4.2475 7.73125 -4.375 6.5625 C-4.58125 5.386875 -4.7875 4.21125 -5 3 C-5.66 2.67 -6.32 2.34 -7 2 C-4 0 -4 0 0 0 Z M-4 3 C-3 5 -3 5 -3 5 Z " fill="#1A1A1A" transform="translate(469,353)"/>
<path d="M0 0 C1.32 0 2.64 0 4 0 C4 0.66 4 1.32 4 2 C4.99 2.33 5.98 2.66 7 3 C6.07736896 5.38346353 5.54335142 6.70891888 3.25 7.9375 C-0.03763977 8.02882333 -2.19018916 6.59648343 -5 5 C-4.360625 4.54625 -3.72125 4.0925 -3.0625 3.625 C-0.90297594 2.16078274 -0.90297594 2.16078274 0 0 Z " fill="#E1E1E1" transform="translate(410,413)"/>
<path d="M0 0 C3.93846154 4.30769231 3.93846154 4.30769231 4.25 7.8125 C4.1675 8.534375 4.085 9.25625 4 10 C3.01 10 2.02 10 1 10 C1 9.34 1 8.68 1 8 C0.34 8 -0.32 8 -1 8 C-0.67 9.32 -0.34 10.64 0 12 C-0.66 11.67 -1.32 11.34 -2 11 C-2 10.34 -2 9.68 -2 9 C-2.66 9 -3.32 9 -4 9 C-4.33 7.35 -4.66 5.7 -5 4 C-2.525 4.495 -2.525 4.495 0 5 C0 3.35 0 1.7 0 0 Z " fill="#282828" transform="translate(282,189)"/>
<path d="M0 0 C4.21912747 0.4794463 6.79663178 1.16625119 10 4 C6.00999834 5.42500059 2.19469571 6.40075776 -2 7 C-1.125 2.25 -1.125 2.25 0 0 Z " fill="#1D1D1D" transform="translate(404,418)"/>
<path d="M0 0 C0.87527344 -0.01417969 1.75054687 -0.02835938 2.65234375 -0.04296875 C5.0625 0.1875 5.0625 0.1875 8.0625 2.1875 C5.0925 1.6925 5.0925 1.6925 2.0625 1.1875 C1.7325 2.1775 1.4025 3.1675 1.0625 4.1875 C-1.89534231 5.41143475 -3.93477245 5.15266243 -6.9375 4.1875 C-6.9375 3.1975 -6.9375 2.2075 -6.9375 1.1875 C-4.47380468 -0.04434766 -2.7480499 0.02017658 0 0 Z " fill="#1A1A1A" transform="translate(454.9375,154.8125)"/>
<path d="M0 0 C0 1.98 0 3.96 0 6 C-4.35535069 4.83857315 -6.64619703 3.92300495 -9 0 C-5.93109813 -1.53445094 -3.29905734 -0.54984289 0 0 Z " fill="#050505" transform="translate(525,158)"/>
<path d="M0 0 C2.97 0.495 2.97 0.495 6 1 C4.625 3 4.625 3 3 5 C2.34 5 1.68 5 1 5 C1.33 6.32 1.66 7.64 2 9 C-1.35595828 8.40072174 -3.37801226 7.15377564 -6 5 C-4.35 4.67 -2.7 4.34 -1 4 C-0.67 2.68 -0.34 1.36 0 0 Z " fill="#222222" transform="translate(258,333)"/>
<path d="M0 0 C-0.928125 0.3403125 -0.928125 0.3403125 -1.875 0.6875 C-4.61410209 2.37929835 -5.05024472 3.99244161 -6 7 C-6.66 7 -7.32 7 -8 7 C-7.690625 7.804375 -7.690625 7.804375 -7.375 8.625 C-6.8685253 11.83267308 -7.84599775 14.01317066 -9 17 C-9.33 17 -9.66 17 -10 17 C-10 12.71 -10 8.42 -10 4 C-9.01 3.67 -8.02 3.34 -7 3 C-7 2.34 -7 1.68 -7 1 C-4.53721199 -0.231394 -2.7204945 -0.07159196 0 0 Z " fill="#E2E2E2" transform="translate(525,343)"/>
<path d="M0 0 C0.66 0.33 1.32 0.66 2 1 C2.3125 3.6875 2.3125 3.6875 2 7 C-0.3125 9.625 -0.3125 9.625 -3 12 C-3.556875 12.763125 -4.11375 13.52625 -4.6875 14.3125 C-5.3371875 15.1478125 -5.3371875 15.1478125 -6 16 C-6.66 16 -7.32 16 -8 16 C-6.54997977 11.89160936 -4.6020866 8.49655387 -2 5 C-1.34 5 -0.68 5 0 5 C0 3.35 0 1.7 0 0 Z " fill="#CBCBCB" transform="translate(394,286)"/>
<path d="M0 0 C2.31 0 4.62 0 7 0 C7 1.65 7 3.3 7 5 C4.36 5 1.72 5 -1 5 C-0.67 3.35 -0.34 1.7 0 0 Z " fill="#040404" transform="translate(472,205)"/>
<path d="M0 0 C2.475 0.495 2.475 0.495 5 1 C5 1.66 5 2.32 5 3 C5.66 3.33 6.32 3.66 7 4 C7 4.99 7 5.98 7 7 C4.69 6.67 2.38 6.34 0 6 C0 4.02 0 2.04 0 0 Z " fill="#050505" transform="translate(486,201)"/>
<path d="M0 0 C0.91007812 0.00902344 1.82015625 0.01804688 2.7578125 0.02734375 C3.45648438 0.03894531 4.15515625 0.05054688 4.875 0.0625 C2.44721007 3.89182166 2.44721007 3.89182166 -0.16796875 4.671875 C-3.14648438 4.8671875 -3.14648438 4.8671875 -6.125 5.0625 C-6.455 3.7425 -6.785 2.4225 -7.125 1.0625 C-4.60024538 -0.19987731 -2.81299534 -0.03606404 0 0 Z " fill="#020202" transform="translate(302.125,154.9375)"/>
<path d="M0 0 C9.24 0 18.48 0 28 0 C28.33 0.66 28.66 1.32 29 2 C28.34 2.66 27.68 3.32 27 4 C26.67 3.34 26.34 2.68 26 2 C13.13 1.505 13.13 1.505 0 1 C0 0.67 0 0.34 0 0 Z " fill="#DCDCDC" transform="translate(66,319)"/>
<path d="M0 0 C0.99 0.33 1.98 0.66 3 1 C2.34 2.98 1.68 4.96 1 7 C-0.65 6.67 -2.3 6.34 -4 6 C-4 5.34 -4 4.68 -4 4 C-4.99 3.67 -5.98 3.34 -7 3 C-5.35 3 -3.7 3 -2 3 C-2 2.34 -2 1.68 -2 1 C-1.34 0.67 -0.68 0.34 0 0 Z " fill="#E9E9E9" transform="translate(271,313)"/>
<path d="M0 0 C0.66 0.33 1.32 0.66 2 1 C-0.97 3.64 -3.94 6.28 -7 9 C-8.32 8.34 -9.64 7.68 -11 7 C-10.34 7 -9.68 7 -9 7 C-9 6.34 -9 5.68 -9 5 C-7.54735962 4.1361871 -6.0876837 3.28419546 -4.625 2.4375 C-3.40683594 1.72400391 -3.40683594 1.72400391 -2.1640625 0.99609375 C-1.44992188 0.66738281 -0.73578125 0.33867187 0 0 Z " fill="#C9C9C9" transform="translate(238,442)"/>
<path d="M0 0 C0.33 0 0.66 0 1 0 C1.33 5.61 1.66 11.22 2 17 C1.34 17 0.68 17 0 17 C-1.98 13.535 -1.98 13.535 -4 10 C-3.01 10.33 -2.02 10.66 -1 11 C-0.67 7.37 -0.34 3.74 0 0 Z " fill="#ABABAB" transform="translate(150,384)"/>
<path d="M0 0 C2.475 0.495 2.475 0.495 5 1 C5 3.31 5 5.62 5 8 C3.0625 7.375 3.0625 7.375 1 6 C0.25 2.875 0.25 2.875 0 0 Z " fill="#151515" transform="translate(185,132)"/>
<path d="M0 0 C2.64 0.33 5.28 0.66 8 1 C6.02 1.99 6.02 1.99 4 3 C3.8509288 5.0745356 3.8509288 5.0745356 5 7 C0.545 6.01 0.545 6.01 -4 5 C-1 3 -1 3 1 3 C0.67 2.01 0.34 1.02 0 0 Z " fill="#232323" transform="translate(514,155)"/>
<path d="M0 0 C0.66 1.32 1.32 2.64 2 4 C1.01 4.99 0.02 5.98 -1 7 C-1.99 6.67 -2.98 6.34 -4 6 C-4.33 5.01 -4.66 4.02 -5 3 C-3.35 2.01 -1.7 1.02 0 0 Z " fill="#040404" transform="translate(145,137)"/>
<path d="M0 0 C-2.46153846 3.81538462 -2.46153846 3.81538462 -5.1875 4.75 C-5.785625 4.8325 -6.38375 4.915 -7 5 C-7.33 3.68 -7.66 2.36 -8 1 C-3.375 -1.125 -3.375 -1.125 0 0 Z " fill="#050505" transform="translate(360,156)"/>
<path d="M0 0 C0.66 0.66 1.32 1.32 2 2 C0.7934375 2.6496875 0.7934375 2.6496875 -0.4375 3.3125 C-3.27846354 4.80474002 -3.27846354 4.80474002 -4 8 C-6.475 7.01 -6.475 7.01 -9 6 C-6.11912454 3.59927045 -3.43595166 1.52708963 0 0 Z " fill="#CDCDCD" transform="translate(263,427)"/>
<path d="M0 0 C0.33 0.99 0.66 1.98 1 3 C-0.4375 5.6875 -0.4375 5.6875 -2 8 C-3.5 6.625 -3.5 6.625 -5 5 C-5 4.34 -5 3.68 -5 3 C-2.5 1.375 -2.5 1.375 0 0 Z " fill="#DDDDDD" transform="translate(278,167)"/>
<path d="M0 0 C0 0.66 0 1.32 0 2 C-0.66 2.66 -1.32 3.32 -2 4 C-2 4.66 -2 5.32 -2 6 C-3.32 6 -4.64 6 -6 6 C-6 4.35 -6 2.7 -6 1 C-4 0 -4 0 0 0 Z " fill="#050505" transform="translate(438,157)"/>
<path d="M0 0 C2 1 2 1 2.8515625 3.06640625 C3.10679687 3.89011719 3.36203125 4.71382813 3.625 5.5625 C3.88539063 6.38878906 4.14578125 7.21507812 4.4140625 8.06640625 C4.60742188 8.70449219 4.80078125 9.34257812 5 10 C3.35 9.67 1.7 9.34 0 9 C0 6.03 0 3.06 0 0 Z " fill="#DEDEDE" transform="translate(373,455)"/>
<path d="M0 0 C3 3 3 3 3.07421875 6.57421875 C2.96149977 7.94673808 2.83199844 9.31796172 2.6875 10.6875 C2.62626953 11.38939453 2.56503906 12.09128906 2.50195312 12.81445312 C2.34897376 14.5442967 2.17637398 16.27238497 2 18 C1.67 18 1.34 18 1 18 C0.67 12.06 0.34 6.12 0 0 Z " fill="#989898" transform="translate(322,278)"/>
<path d="M0 0 C2 3 2 3 3 5 C4.98 5 6.96 5 9 5 C9 5.33 9 5.66 9 6 C4.545 6.495 4.545 6.495 0 7 C-0.66 5.35 -1.32 3.7 -2 2 C-1.34 2 -0.68 2 0 2 C0 1.34 0 0.68 0 0 Z " fill="#B8B8B8" transform="translate(316,298)"/>
<path d="M0 0 C0 2.70254461 -0.03430669 4.50529228 -1 7 C-3.0625 8.25 -3.0625 8.25 -5 9 C-5 9.99 -5 10.98 -5 12 C-5.66 11.67 -6.32 11.34 -7 11 C-6.67 10.01 -6.34 9.02 -6 8 C-5.34 8 -4.68 8 -4 8 C-3.71125 7.05125 -3.4225 6.1025 -3.125 5.125 C-2 2 -2 2 0 0 Z " fill="#BEBEBE" transform="translate(404,272)"/>
<path d="M0 0 C2.475 0.495 2.475 0.495 5 1 C5 3.31 5 5.62 5 8 C4.34 7.67 3.68 7.34 3 7 C3 6.34 3 5.68 3 5 C2.34 5 1.68 5 1 5 C0.67 3.35 0.34 1.7 0 0 Z " fill="#333333" transform="translate(277,193)"/>
<path d="M0 0 C2.475 0.495 2.475 0.495 5 1 C4.34 2.65 3.68 4.3 3 6 C2.01 6 1.02 6 0 6 C0 4.02 0 2.04 0 0 Z " fill="#161616" transform="translate(413,365)"/>
<path d="M0 0 C0.66 0.66 1.32 1.32 2 2 C-0.64 4.64 -3.28 7.28 -6 10 C-6.66 9.67 -7.32 9.34 -8 9 C-5.36 6.03 -2.72 3.06 0 0 Z " fill="#C9C9C9" transform="translate(399,311)"/>
<path d="M0 0 C0.99 0.495 0.99 0.495 2 1 C2 1.66 2 2.32 2 3 C2.66 3 3.32 3 4 3 C4.66 4.32 5.32 5.64 6 7 C4.68 7.33 3.36 7.66 2 8 C2 7.01 2 6.02 2 5 C1.34 5 0.68 5 0 5 C0 3.35 0 1.7 0 0 Z " fill="#E0E0E0" transform="translate(250,288)"/>
<path d="M0 0 C2.64 0.66 5.28 1.32 8 2 C7.67 2.66 7.34 3.32 7 4 C5.35 4 3.7 4 2 4 C1.34 5.65 0.68 7.3 0 9 C-1.10844919 5.67465243 -0.84454356 3.37817425 0 0 Z " fill="#BFBFBF" transform="translate(375,250)"/>
<path d="M0 0 C0.33 0.66 0.66 1.32 1 2 C0.37943989 3.68437744 -0.29289322 5.35008418 -1 7 C-1.35858516 8.32676508 -1.7018576 9.65835921 -2 11 C-2.66 10.34 -3.32 9.68 -4 9 C-3.69670231 5.15822926 -2.47524576 2.90572328 0 0 Z " fill="#2F2F2F" transform="translate(249,474)"/>
<path d="M0 0 C1.1446875 0.3403125 1.1446875 0.3403125 2.3125 0.6875 C1.9825 1.3475 1.6525 2.0075 1.3125 2.6875 C-0.5625 3.25 -0.5625 3.25 -2.6875 3.6875 C-5.80535113 4.33394661 -5.80535113 4.33394661 -6.6875 6.6875 C-6.28750283 4.36751641 -5.78182121 2.82426576 -4.4375 0.875 C-2.6875 -0.3125 -2.6875 -0.3125 0 0 Z " fill="#595959" transform="translate(399.6875,429.3125)"/>
<path d="M0 0 C0.33 0.66 0.66 1.32 1 2 C-0.98 2.66 -2.96 3.32 -5 4 C-5 4.66 -5 5.32 -5 6 C-5.66 6 -6.32 6 -7 6 C-7 5.34 -7 4.68 -7 4 C-8.32 3.67 -9.64 3.34 -11 3 C-7.34920174 1.38935371 -3.9492568 0.55105909 0 0 Z " fill="#C8C8C8" transform="translate(458,342)"/>
<path d="M0 0 C0.99 0 1.98 0 3 0 C3.6875 1.75 3.6875 1.75 4 4 C2.5625 6.25 2.5625 6.25 1 8 C-0.42944945 5.64561267 -1.08661261 4.51967567 -0.625 1.75 C-0.41875 1.1725 -0.2125 0.595 0 0 Z " fill="#2B2B2B" transform="translate(380,262)"/>
<path d="M0 0 C0.33 0.66 0.66 1.32 1 2 C0.0625 4.125 0.0625 4.125 -1 6 C-3.475 5.01 -3.475 5.01 -6 4 C-4.60804085 1.2160817 -2.84424221 1.02101003 0 0 Z " fill="#E7E7E7" transform="translate(269,342)"/>
<path d="M0 0 C1.2065625 0.0309375 1.2065625 0.0309375 2.4375 0.0625 C2.4375 1.7125 2.4375 3.3625 2.4375 5.0625 C1.1175 5.0625 -0.2025 5.0625 -1.5625 5.0625 C-1.5625 4.4025 -1.5625 3.7425 -1.5625 3.0625 C-2.2225 2.4025 -2.8825 1.7425 -3.5625 1.0625 C-2.5625 0.0625 -2.5625 0.0625 0 0 Z " fill="#000000" transform="translate(218.5625,422.9375)"/>
<path d="M0 0 C1.68496298 0.96885372 3.35178756 1.96986723 5 3 C5 3.33 5 3.66 5 4 C2.69 4.33 0.38 4.66 -2 5 C-1.34 3.35 -0.68 1.7 0 0 Z " fill="#0C0C0C" transform="translate(205,405)"/>
<path d="M0 0 C2.475 0.99 2.475 0.99 5 2 C5 3.32 5 4.64 5 6 C4.01 6 3.02 6 2 6 C0 3 0 3 0 0 Z " fill="#090909" transform="translate(278,316)"/>
<path d="M0 0 C2 1 2 1 3 3 C-0.75 6 -0.75 6 -3 6 C-3 6.66 -3 7.32 -3 8 C-3.66 7.67 -4.32 7.34 -5 7 C-3.35 4.69 -1.7 2.38 0 0 Z " fill="#B4B4B4" transform="translate(406,302)"/>
<path d="M0 0 C1.65 0 3.3 0 5 0 C5 0.66 5 1.32 5 2 C5.99 2.33 6.98 2.66 8 3 C7.01 4.485 7.01 4.485 6 6 C3.97945196 4.35830472 1.97956942 2.69088222 0 1 C0 0.67 0 0.34 0 0 Z " fill="#E1E1E1" transform="translate(248,301)"/>
<path d="M0 0 C0.66 0.33 1.32 0.66 2 1 C1.4225 1.2475 0.845 1.495 0.25 1.75 C-2.3002997 3.16683317 -4.01785701 4.87627537 -6 7 C-6.66 6.34 -7.32 5.68 -8 5 C-7.360625 4.896875 -6.72125 4.79375 -6.0625 4.6875 C-5.381875 4.460625 -4.70125 4.23375 -4 4 C-3.67 3.01 -3.34 2.02 -3 1 C-2.01 0.67 -1.02 0.34 0 0 Z " fill="#A8A8A8" transform="translate(350,162)"/>
<path d="M0 0 C0 1.98 0 3.96 0 6 C-1.32 5.67 -2.64 5.34 -4 5 C-4 3.68 -4 2.36 -4 1 C-2 0 -2 0 0 0 Z " fill="#0B0B0B" transform="translate(525,158)"/>
<path d="M0 0 C0.66 0.66 1.32 1.32 2 2 C0.8553125 2.6496875 0.8553125 2.6496875 -0.3125 3.3125 C-2.58093768 4.73686785 -4.2199723 6.03260097 -6 8 C-6 4 -6 4 -4.6875 2.3125 C-3 1 -3 1 0 0 Z " fill="#303030" transform="translate(143,136)"/>
<path d="M0 0 C1.98 0 3.96 0 6 0 C5.67 1.32 5.34 2.64 5 4 C3.35 3.67 1.7 3.34 0 3 C0 2.01 0 1.02 0 0 Z " fill="#121212" transform="translate(289,506)"/>
<path d="M0 0 C0.99 0 1.98 0 3 0 C3.625 2.8125 3.625 2.8125 4 6 C3.01 7.485 3.01 7.485 2 9 C1.34 6.03 0.68 3.06 0 0 Z " fill="#BABABA" transform="translate(299,267)"/>
<path d="M0 0 C-6.4 3.07692308 -6.4 3.07692308 -9.4375 2.6875 C-9.953125 2.460625 -10.46875 2.23375 -11 2 C-3.57142857 -1.57142857 -3.57142857 -1.57142857 0 0 Z " fill="#B6B6B6" transform="translate(323,208)"/>
<path d="M0 0 C0.33 0.99 0.66 1.98 1 3 C-0.98 4.32 -2.96 5.64 -5 7 C-5.66 6.67 -6.32 6.34 -7 6 C-6.01 5.67 -5.02 5.34 -4 5 C-3.67 4.01 -3.34 3.02 -3 2 C-2.01 1.34 -1.02 0.68 0 0 Z " fill="#BFBFBF" transform="translate(273,438)"/>
<path d="M0 0 C-0.33 1.32 -0.66 2.64 -1 4 C-2.65 3.67 -4.3 3.34 -6 3 C-3.375 0 -3.375 0 0 0 Z " fill="#151515" transform="translate(455,316)"/>
<path d="M0 0 C0.66 0.33 1.32 0.66 2 1 C-1.465 3.97 -1.465 3.97 -5 7 C-5 5.68 -5 4.36 -5 3 C-2.625 1.1875 -2.625 1.1875 0 0 Z " fill="#C8C8C8" transform="translate(497,160)"/>
<path d="M0 0 C-1.75 4.875 -1.75 4.875 -4 6 C-4.33 5.67 -4.66 5.34 -5 5 C-5.66 4.67 -6.32 4.34 -7 4 C-5.53303752 1.06607504 -3.25996861 0 0 0 Z " fill="#C1C1C1" transform="translate(295,161)"/>
</svg>
