<?xml version="1.0" encoding="UTF-8"?>
<svg version="1.1" xmlns="http://www.w3.org/2000/svg" width="2400" height="2400">
<path d="M0 0 C2.56094654 0.23372402 5.12281718 0.45186236 7.68548584 0.66583252 C101.33659584 8.51987752 194.11171126 27.46136457 537.496521 176.22784424 C538.37904541 176.77585693 539.26156982 177.32386963 540.1708374 177.88848877 C586.84465647 206.96637238 631.76699874 239.50996997 673.65643311 275.13970947 C677.10791958 278.07068085 680.59870362 280.94499174 684.121521 283.79034424 C688.88459317 287.66597356 693.43016349 291.74018712 697.949646 295.89581299 C700.08593848 297.85189675 702.24432757 299.76972121 704.434021 301.66534424 C708.75899107 305.42771658 712.97884349 309.30216878 717.19110107 313.18951416 C719.15020784 314.9949082 721.11837069 316.78682664 723.09979248 318.56793213 C733.95983468 328.40682191 744.25235623 338.83137267 754.6005249 349.20147705 C757.33686045 351.94354486 760.07771282 354.68104719 762.81989098 357.41727066 C764.95971621 359.55346086 767.09712785 361.69205335 769.23384476 363.83135223 C770.24327187 364.84143863 771.25342055 365.85080454 772.26435471 366.85938263 C777.34930754 371.93506475 782.34479548 377.03144451 787.00744629 382.50065613 C789.68934796 385.61141253 792.54662723 388.56000994 795.371521 391.54034424 C800.2617743 396.73543108 804.90081817 402.04137181 809.355896 407.61846924 C811.64772564 410.41215939 814.04883912 413.06993202 816.496521 415.72784424 C820.91029212 420.53425144 825.06012409 425.49894507 829.1552124 430.57745361 C830.69839136 432.47623224 832.25842896 434.36040163 833.82073975 436.24346924 C840.38286499 444.1549842 846.83556554 452.1137734 853.03997803 460.31036377 C854.75570412 462.56904843 856.48340828 464.81834661 858.21136475 467.06768799 C866.28194063 477.58888702 874.22450795 488.18516713 881.90765381 498.99298096 C882.96172149 500.47560781 884.01833996 501.9564247 885.07757568 503.43536377 C933.54130599 571.15728379 974.63266167 644.74339667 1007.496521 721.22784424 C1007.79129333 721.91169189 1008.08606567 722.59553955 1008.38977051 723.30010986 C1042.66807567 802.83015388 1067.82312565 885.85728426 1102.73480225 1115.77862549 C1102.79805695 1116.62697464 1102.86131165 1117.47532379 1102.92648315 1118.34938049 C1104.14419735 1135.54710151 1104.66259631 1152.72075457 1104.699646 1169.95831299 C1104.70666742 1171.98963442 1104.71375424 1174.02095562 1104.72090149 1176.05227661 C1104.74029971 1182.50663572 1104.74533535 1188.96095892 1104.746521 1195.41534424 C1104.74696285 1196.51454571 1104.74740471 1197.61374718 1104.74785995 1198.74625778 C1104.75453474 1230.39833667 1104.66345519 1261.92738993 1101.74975586 1293.4710083 C1101.48301348 1296.3748935 1101.22901406 1299.27972012 1100.97650146 1302.18487549 C1092.79508967 1395.266953 1074.11491601 1487.381583 955.496521 1779.22784424 C954.89275635 1780.3011499 954.2889917 1781.37445557 953.66693115 1782.48028564 C944.59802544 1798.59285892 935.26394319 1814.52646569 925.496521 1830.22784424 C924.95914307 1831.0944165 924.42176514 1831.96098877 923.86810303 1832.8538208 C916.42329268 1844.82214556 908.64635497 1856.55697033 900.746521 1868.22784424 C900.31048553 1868.87261719 899.87445007 1869.51739014 899.42520142 1870.18170166 C893.25280519 1879.297874 886.92504472 1888.29083205 880.496521 1897.22784424 C879.38650101 1898.78467623 878.27703159 1900.3419011 877.168396 1901.89971924 C870.06345347 1911.8366686 862.70064205 1921.54045869 855.14251709 1931.13653564 C853.58521822 1933.11515061 852.03387682 1935.09825592 850.48480225 1937.08331299 C845.61690239 1943.31445884 840.69178278 1949.49109719 835.66448975 1955.59503174 C834.22337727 1957.3451395 832.78842696 1959.10034036 831.35980225 1960.86065674 C823.00993417 1971.14433627 814.40242727 1981.19937686 805.50042725 1991.00909424 C803.68340118 1993.02092817 801.89707707 1995.05444857 800.121521 1997.10284424 C796.33549993 2001.4458891 792.4422611 2005.68847735 788.53509521 2009.92218018 C786.72961772 2011.88136688 784.93761573 2013.84960812 783.15643311 2015.83111572 C773.31754332 2026.69115793 762.89299256 2036.98367947 752.52288818 2047.33184814 C749.78082038 2050.06818369 747.04331805 2052.80903606 744.30709457 2055.55121422 C742.17090438 2057.69103946 740.03231189 2059.82845109 737.893013 2061.965168 C736.88292661 2062.97459512 735.87356069 2063.98474379 734.8649826 2064.99567795 C729.78930049 2070.08063078 724.69292072 2075.07611872 719.22370911 2079.73876953 C716.1129527 2082.4206712 713.16435529 2085.27795047 710.184021 2088.10284424 C704.98893415 2092.99309754 699.68299342 2097.63214141 694.105896 2102.08721924 C691.31220584 2104.37904889 688.65443322 2106.78016236 685.996521 2109.22784424 C681.19011379 2113.64161536 676.22542016 2117.79144734 671.14691162 2121.88653564 C669.24813299 2123.42971461 667.36396361 2124.98975221 665.480896 2126.55206299 C656.94835653 2133.62867628 648.32414294 2140.52332124 639.496521 2147.22784424 C637.45454149 2148.81077409 635.41288272 2150.39411776 633.371521 2151.97784424 C628.04458379 2156.08443452 622.65611705 2160.10593122 617.246521 2164.10284424 C616.5335083 2164.6310376 615.82049561 2165.15923096 615.08587646 2165.70343018 C601.12715016 2175.97915556 586.84915119 2185.7764991 572.42327881 2195.38189697 C569.75994769 2197.15639842 567.10078892 2198.93702932 564.4418335 2200.71807861 C548.78566585 2211.17479029 532.85647796 2221.19189056 516.621521 2230.72784424 C515.7233667 2231.25644043 514.8252124 2231.78503662 513.89984131 2232.32965088 C503.50478443 2238.42526179 493.03345848 2244.38113953 482.496521 2250.22784424 C481.06106934 2251.02496826 481.06106934 2251.02496826 479.59661865 2251.8381958 C406.96120285 2291.9823311 329.57772441 2324.30055179 81.496521 2385.22784424 C80.74209717 2385.33743469 79.98767334 2385.44702515 79.21038818 2385.55993652 C54.59367617 2389.11526563 29.90720525 2391.89692208 5.12506104 2394.00067139 C2.57960062 2394.22066404 0.0356356 2394.45351123 -2.50836182 2394.6897583 C-64.31775614 2400.33182453 -129.00857376 2400.30520535 -190.79089355 2394.4810791 C-193.66412226 2394.2128473 -196.5384011 2393.95925187 -199.41314697 2393.70782471 C-292.00919081 2385.53657918 -383.14086428 2367.07725746 -471.503479 2338.22784424 C-472.29864929 2337.96852112 -473.09381958 2337.709198 -473.91308594 2337.4420166 C-561.97516349 2308.65022513 -647.08904465 2268.74600286 -728.503479 2218.22784424 C-729.37005127 2217.69046631 -730.23662354 2217.15308838 -731.12945557 2216.59942627 C-743.09778032 2209.15461592 -754.8326051 2201.37767821 -766.503479 2193.47784424 C-767.14825195 2193.04180878 -767.7930249 2192.60577332 -768.45733643 2192.15652466 C-777.57350877 2185.98412843 -786.56646681 2179.65636796 -795.503479 2173.22784424 C-797.06031099 2172.11782425 -798.61753587 2171.00835483 -800.175354 2169.89971924 C-810.11230336 2162.79477671 -819.81609345 2155.43196529 -829.41217041 2147.87384033 C-831.39078538 2146.31654146 -833.37389069 2144.76520007 -835.35894775 2143.21612549 C-841.59009361 2138.34822563 -847.76673196 2133.42310602 -853.8706665 2128.39581299 C-855.62077427 2126.95470051 -857.37597512 2125.51975021 -859.1362915 2124.09112549 C-869.41997103 2115.74125742 -879.47501162 2107.13375052 -889.284729 2098.23175049 C-891.29656293 2096.41472442 -893.33008334 2094.62840032 -895.378479 2092.85284424 C-900.31035498 2088.55351347 -905.1129394 2084.11439595 -909.92242432 2079.67950439 C-911.44029358 2078.28585853 -912.96651722 2076.90206094 -914.4956665 2075.52081299 C-923.76991738 2067.10564748 -932.58530071 2058.24352911 -941.39801025 2049.34918213 C-945.15030547 2045.56860547 -948.92285242 2041.8085776 -952.70205688 2038.05491638 C-954.86237964 2035.90817275 -957.01986988 2033.75859079 -959.17730713 2031.60894775 C-960.30693821 2030.4843423 -961.43746561 2029.36063642 -962.56890869 2028.237854 C-968.21785068 2022.63085961 -973.82365966 2017.04836989 -978.99127197 2010.98736572 C-981.52388024 2008.04056111 -984.21264171 2005.24111545 -986.878479 2002.41534424 C-991.56136104 1997.41661191 -995.97880696 1992.28796573 -1000.2612915 1986.93878174 C-1002.74256734 1983.93877228 -1005.35255013 1981.07672617 -1008.003479 1978.22784424 C-1013.08735087 1972.75034843 -1017.82330494 1967.05172643 -1022.503479 1961.22784424 C-1023.49967746 1960.01071739 -1024.49715165 1958.79463397 -1025.4956665 1957.57940674 C-1032.81906963 1948.65171296 -1039.90505627 1939.56746943 -1046.878479 1930.36456299 C-1048.49480197 1928.2392537 -1050.12208322 1926.12284983 -1051.753479 1924.00909424 C-1059.55072899 1913.89785947 -1067.09762917 1903.62872312 -1074.503479 1893.22784424 C-1075.29262695 1892.1264209 -1075.29262695 1892.1264209 -1076.09771729 1891.00274658 C-1102.60017548 1853.96736401 -1126.41678839 1815.03250172 -1148.503479 1775.22784424 C-1149.30060303 1773.79239258 -1149.30060303 1773.79239258 -1150.11383057 1772.32794189 C-1167.55000659 1740.77952552 -1183.38795958 1708.41952991 -1197.6114502 1675.30291748 C-1198.47905608 1673.28465781 -1199.35082469 1671.26824637 -1200.22369385 1669.2522583 C-1237.81430205 1582.28875787 -1263.73366161 1490.92170904 -1293.74176025 1278.67706299 C-1293.80501495 1277.82871384 -1293.86826965 1276.98036469 -1293.93344116 1276.10630798 C-1295.15115536 1258.90858697 -1295.66955432 1241.7349339 -1295.706604 1224.49737549 C-1295.71362543 1222.46605406 -1295.72071225 1220.43473286 -1295.7278595 1218.40341187 C-1295.74725772 1211.94905275 -1295.75229336 1205.49472956 -1295.753479 1199.04034424 C-1295.75392086 1197.94114277 -1295.75436272 1196.8419413 -1295.75481796 1195.70943069 C-1295.76149275 1164.05735181 -1295.6704132 1132.52829854 -1292.75671387 1100.98468018 C-1292.48997149 1098.08079497 -1292.23597207 1095.17596835 -1291.98345947 1092.27081299 C-1283.77414912 998.87132617 -1264.90862271 906.60371641 -1145.90338135 614.66485596 C-1144.06437263 611.4634285 -1142.31376495 608.21788898 -1140.56304932 604.96759033 C-1133.06769689 591.07519775 -1124.80829527 577.64573706 -1116.503479 564.22784424 C-1115.91196045 563.271521 -1115.32044189 562.31519775 -1114.71099854 561.32989502 C-1100.4955023 538.44813422 -1085.30373694 516.04622821 -1069.503479 494.22784424 C-1068.96739014 493.48743896 -1068.43130127 492.74703369 -1067.87896729 491.98419189 C-1056.1804508 475.87667005 -1043.99639518 460.17986349 -1031.394104 444.77081299 C-1029.03030697 441.88028369 -1026.69730083 438.96714984 -1024.378479 436.04034424 C-1020.02180373 430.58082857 -1015.50317805 425.26113813 -1010.9697876 419.94854736 C-1009.49405486 418.21678507 -1008.0238778 416.4804223 -1006.55426025 414.74346924 C-1000.58330001 407.70741879 -994.45328713 400.85498573 -988.16363525 394.10284424 C-986.10926406 391.88255467 -984.10011251 389.64567117 -982.128479 387.35284424 C-971.48594864 375.10244957 -960.02727383 363.62093156 -948.50128174 352.20977783 C-944.71015654 348.44876667 -940.94185605 344.66514601 -937.17808533 340.87680054 C-934.93973878 338.62489353 -932.69857285 336.37580042 -930.45733643 334.12677002 C-929.28422888 332.94863602 -928.11202072 331.76960575 -926.94073486 330.58966064 C-915.38098892 318.94700836 -915.38098892 318.94700836 -909.24542236 313.72247314 C-906.30285456 311.19767986 -903.51069121 308.51296546 -900.690979 305.85284424 C-895.69224668 301.1699622 -890.56360049 296.75251628 -885.2144165 292.47003174 C-882.21440705 289.98875591 -879.35236093 287.37877312 -876.503479 284.72784424 C-871.02598319 279.64397237 -865.32736119 274.9080183 -859.503479 270.22784424 C-858.28635215 269.23164578 -857.07026873 268.23417159 -855.8550415 267.23565674 C-846.92734773 259.91225361 -837.8431042 252.82626697 -828.64019775 245.85284424 C-826.51488846 244.23652127 -824.3984846 242.60924002 -822.284729 240.97784424 C-812.17349424 233.18059425 -801.90435788 225.63369408 -791.503479 218.22784424 C-790.76919678 217.70174561 -790.03491455 217.17564697 -789.27838135 216.63360596 C-752.24299878 190.13114777 -713.30813648 166.31453485 -673.503479 144.22784424 C-672.54651123 143.69642822 -671.58954346 143.16501221 -670.60357666 142.61749268 C-639.05516028 125.18131665 -606.69516467 109.34336366 -573.57855225 95.11987305 C-571.56029258 94.25226716 -569.54388113 93.38049855 -567.52789307 92.50762939 C-490.0637697 59.02301552 -408.85893626 34.59384865 -197.43609619 0.48498535 C-194.64657073 0.24039097 -191.85823857 -0.01508249 -189.06988525 -0.27264404 C-126.9566769 -5.88846246 -62.09534174 -5.75628239 0 0 Z M-352.503479 633.22784424 C-353.63114685 633.27167236 -354.7588147 633.31550049 -355.9206543 633.36065674 C-449.49798425 637.05156597 -542.69860145 645.17630741 -829.13076782 702.66900635 C-830.83301165 703.15340931 -832.53658307 703.63317996 -834.2416687 704.10748291 C-852.24204017 709.13994787 -868.91185755 716.40192473 -883.503479 728.22784424 C-884.46640869 729.00772705 -885.42933838 729.78760986 -886.42144775 730.59112549 C-908.5345207 749.64766649 -922.17876732 777.78564913 -924.37457275 806.84503174 C-924.41711182 807.63135986 -924.45965088 808.41768799 -924.503479 809.22784424 C-924.55633057 809.99354736 -924.60918213 810.75925049 -924.66363525 811.54815674 C-925.79196739 842.84710897 -912.88987475 871.20566913 -891.92144775 893.79815674 C-870.74442372 915.07781578 -842.98565073 926.33876384 -813.065979 926.47784424 C-811.99154541 926.49846924 -810.91711182 926.51909424 -809.81011963 926.54034424 C-794.80147449 926.61134906 -780.89368841 922.67812615 -766.63864136 918.4453125 C-729.68018547 907.50616769 -692.27626573 898.84641221 -654.503479 891.22784424 C-653.61567749 891.04844299 -652.72787598 890.86904175 -651.81317139 890.6842041 C-575.84586314 875.38890389 -498.60700439 866.73947351 -421.3550415 861.25518799 C-420.48374603 861.19295547 -419.61245056 861.13072296 -418.7147522 861.06660461 C-371.59924432 857.84139264 -324.47044772 856.88903348 -277.25943851 856.97070622 C-272.39430536 856.97824854 -267.52925372 856.97551721 -262.66412354 856.96710205 C-226.90451139 856.90694639 -191.22425487 857.41111206 -155.503479 859.22784424 C-154.71011391 859.26778252 -153.91674881 859.30772079 -153.09934235 859.34886932 C-143.49974531 859.83488373 -133.90706003 860.40723625 -124.315979 861.04034424 C-122.37456024 861.16631485 -122.37456024 861.16631485 -120.3939209 861.29483032 C-5.4411192 868.77324916 109.03351832 884.52484894 484.496521 995.22784424 C485.14264343 995.50416687 485.78876587 995.7804895 486.45446777 996.06518555 C527.81480203 1013.78710729 568.26246209 1033.68959297 607.059021 1056.49346924 C635.40020774 1073.08324753 665.87101897 1081.54107312 698.496521 1073.22784424 C715.46959887 1068.67039541 729.86189059 1061.30093905 743.496521 1050.22784424 C744.22355225 1049.65421143 744.9505835 1049.08057861 745.699646 1048.48956299 C751.44447829 1043.75120722 755.97125535 1038.11396876 760.496521 1032.22784424 C761.1049585 1031.44667236 761.713396 1030.66550049 762.340271 1029.86065674 C779.68073219 1006.45103412 786.61643666 976.66450681 782.371521 947.97784424 C777.5677145 918.65816111 762.05417877 891.34919286 737.746521 873.85284424 C720.95640928 862.76616737 703.11349761 853.28040258 685.39300537 843.78936768 C682.58964825 842.27805006 679.79883291 840.746213 677.012146 839.20440674 C654.65168732 826.84017411 631.72220732 815.72457604 608.47589111 805.13220215 C606.43557547 804.19999873 604.39792022 803.26217735 602.36077881 802.32305908 C564.25588894 784.77406444 525.23877723 769.20457253 485.75415039 755.03790283 C484.20833625 754.48325023 482.66290344 753.92753401 481.11779785 753.37091064 C421.42930019 731.87137082 360.61041782 714.1042977 299.04071045 698.85882568 C296.55055382 698.24124485 294.06152577 697.61929028 291.57269287 696.99639893 C196.84140669 673.34859183 99.85699275 657.52780644 -352.503479 633.22784424 Z M-588.503479 1069.22784424 C-589.83493958 1069.45217133 -589.83493958 1069.45217133 -591.19329834 1069.68103027 C-647.56171269 1079.2189044 -703.553009 1091.70801664 -758.440979 1107.72784424 C-759.2785675 1107.97146698 -760.11615601 1108.21508972 -760.97912598 1108.46609497 C-790.28001035 1117.03392723 -816.02846706 1129.48195912 -831.56890869 1157.12286377 C-843.75418607 1180.40480294 -846.77238319 1205.86002518 -839.22369385 1231.07647705 C-835.51835871 1242.14475271 -829.94768575 1252.24394388 -822.503479 1261.22784424 C-821.79320557 1262.08893799 -821.08293213 1262.95003174 -820.35113525 1263.83721924 C-803.98000017 1282.82658506 -780.75260651 1294.01885481 -755.878479 1295.97784424 C-741.23233281 1296.82126791 -728.288274 1293.52504229 -714.34332275 1289.47784424 C-621.96467614 1262.73762367 -527.28170529 1246.36311928 335.496521 1360.22784424 C336.71981416 1360.76400928 337.94312168 1361.30014158 339.16644287 1361.83624268 C371.75917265 1376.15492168 404.14702911 1391.65560246 434.85345459 1409.69464111 C440.06669013 1412.71876075 445.35270088 1415.61455481 450.621521 1418.54034424 C457.09897579 1422.14902942 463.52714453 1425.78759914 469.809021 1429.72784424 C491.38746072 1443.16780205 515.29775283 1448.70761404 540.559021 1444.04034424 C556.48507386 1440.28172583 571.28758295 1433.17712994 583.496521 1422.22784424 C584.39113037 1421.42733643 585.28573975 1420.62682861 586.2074585 1419.80206299 C597.39029729 1409.23005152 605.37435585 1396.76198783 610.496521 1382.22784424 C610.909021 1381.07800049 611.321521 1379.92815674 611.746521 1378.74346924 C618.54284915 1356.37222239 615.45107007 1332.06836219 605.496521 1311.22784424 C604.83523193 1309.84339111 604.83523193 1309.84339111 604.1605835 1308.43096924 C600.49103668 1301.25406553 595.83840532 1295.24091196 590.496521 1289.22784424 C589.88163818 1288.52917236 589.26675537 1287.83050049 588.63323975 1287.11065674 C576.46252623 1274.13203719 559.76083157 1265.91200901 544.496521 1257.22784424 C542.55771073 1256.11848355 540.61890843 1255.00910892 538.68011475 1253.89971924 C460.42628288 1209.27335942 378.4912414 1172.71859695 -588.503479 1069.22784424 Z M-405.253479 1441.04034424 C-406.40073456 1441.12465698 -407.54799011 1441.20896973 -408.73001099 1441.2958374 C-505.08776074 1448.40585362 -600.53425371 1462.66391953 -695.065979 1482.54034424 C-696.84147125 1482.91361847 -696.84147125 1482.91361847 -698.65283203 1483.29443359 C-706.27769179 1484.90311631 -713.89463779 1486.54501171 -721.503479 1488.22784424 C-722.50665161 1488.44925079 -723.50982422 1488.67065735 -724.543396 1488.89877319 C-727.40395374 1489.53599151 -730.26082365 1490.18744446 -733.11676025 1490.84503174 C-733.9446254 1491.02967484 -734.77249054 1491.21431793 -735.6254425 1491.40455627 C-755.33445726 1496.03522046 -771.81030998 1508.64377301 -782.753479 1525.47784424 C-793.85181156 1544.31405806 -795.75837665 1564.33755725 -790.503479 1585.22784424 C-784.84433013 1604.41321637 -771.76056899 1620.22823016 -754.3706665 1629.98565674 C-729.25276529 1642.26689099 -706.18807416 1638.37573387 -680.01113892 1632.44619751 C-672.92398307 1630.84138918 -665.81973017 1629.31476314 -658.71688271 1627.78121376 C-656.29885223 1627.25876976 -653.88128839 1626.73420243 -651.46372986 1626.20957947 C-561.03664244 1606.637985 -468.67771124 1594.90057736 -311.24957275 1587.02471924 C-308.98940512 1587.01769716 -306.72923768 1587.01061034 -304.46907043 1587.00346375 C-297.29303702 1586.9840785 -290.11703596 1586.97903028 -282.940979 1586.97784424 C-281.10799255 1586.97718145 -281.10799255 1586.97718145 -279.23797607 1586.97650528 C-244.26534972 1586.96987168 -209.3984537 1587.01082226 -174.52722168 1589.97137451 C-171.3244116 1590.24303249 -168.12081729 1590.50382564 -164.91705322 1590.76397705 C-68.43072614 1598.6965574 27.28582895 1615.94240939 141.50799561 1653.54156494 C143.40628738 1654.19670284 145.30586572 1654.84810933 147.20550537 1655.49932861 C189.18255013 1669.94129249 229.82641824 1687.62435166 269.59490967 1707.28973389 C271.42800466 1708.19404349 273.26340792 1709.09343164 275.10003662 1709.99053955 C289.56371426 1717.05829808 303.69036863 1724.54241123 317.63470459 1732.58526611 C320.58620501 1734.27931959 323.54892881 1735.95194368 326.51605225 1737.61846924 C327.5085498 1738.17598877 328.50104736 1738.7335083 329.52362061 1739.30792236 C330.50467773 1739.85899658 331.48573486 1740.4100708 332.496521 1740.97784424 C338.31790108 1744.24892864 344.09530612 1747.55857174 349.76898193 1751.08013916 C367.68504122 1762.17969038 387.34902621 1766.34197581 408.059021 1761.72784424 C427.70646065 1756.82615381 443.61648138 1745.29673229 454.496521 1728.22784424 C465.02745676 1710.49525958 467.93123753 1690.87754738 463.46917725 1670.82940674 C456.89076961 1646.47080496 439.99908246 1630.81101418 418.809021 1618.54034424 C417.61271689 1617.840999 416.4166767 1617.14120214 415.22088623 1616.440979 C411.65361114 1614.35678784 408.0761118 1612.29081361 404.496521 1610.22784424 C403.49298584 1609.64808838 402.48945068 1609.06833252 401.45550537 1608.4710083 C361.37073211 1585.3789919 320.07491419 1564.34832255 277.55731201 1546.11273193 C275.54658045 1545.24933938 273.53789638 1544.38135014 271.52972412 1543.51202393 C192.02253859 1509.14476893 108.77341334 1484.00832926 -201.65405273 1438.37600708 C-203.48958693 1438.28056402 -205.32493827 1438.18150091 -207.16003418 1438.07797241 C-228.7385478 1436.87611153 -250.35533673 1437.04050855 -271.95953369 1437.0425415 C-276.36615165 1437.04262201 -280.77266397 1437.03578809 -285.17926025 1437.02203369 C-325.28026035 1436.89902082 -365.25764459 1438.0428444 -405.253479 1441.04034424 Z " fill="#2DBD58" transform="translate(1295.5034790039063,2.77215576171875)"/>
</svg>
