<svg xmlns="http://www.w3.org/2000/svg" version="1.1" viewBox="485.00000000000006 310 950 790" style="max-height: 500px" width="950" height="790">
<path transform="translate(912,436)" fill="#00AFEF" d="M0 0 C0.90492188 0.73992187 1.80984375 1.47984375 2.7421875 2.2421875 C17.29712748 14.62068785 29.02501683 32.55079393 31.74609375 51.671875 C33.33349154 72.47899685 26.54629529 91.62376513 13.0625 107.375 C9.10857185 111.89142815 9.10857185 111.89142815 7 114 C6.89128408 115.46719706 6.84422076 116.93907288 6.82421875 118.41015625 C6.80037109 119.31830078 6.77652344 120.22644531 6.75195312 121.16210938 C6.70959678 123.06814494 6.67802021 124.97445624 6.65820312 126.88085938 C6.43744468 134.18642383 5.05913152 139.6732705 0.03515625 145.13671875 C-0.61582031 145.64847656 -1.26679687 146.16023437 -1.9375 146.6875 C-2.63617187 147.265 -3.33484375 147.8425 -4.0546875 148.4375 C-4.69664062 148.953125 -5.33859375 149.46875 -6 150 C-10.71741575 154.02706223 -13.36382396 158.79980182 -16.3515625 164.16015625 C-17.77445319 166.61143949 -19.14271711 168.86053325 -21 171 C-21.66 171 -22.32 171 -23 171 C-23 171.66 -23 172.32 -23 173 C-35.31526643 180.75624953 -49.948745 181.18008284 -63.91845703 178.51269531 C-68.08697002 177.48596798 -71.95901205 175.75902336 -75.88769531 174.05737305 C-82.00408196 171.45007777 -86.32018406 170.63463843 -92.58984375 172.9609375 C-97.59554441 175.26899919 -101.50219056 177.65658174 -105 182 C-105.73436666 185.04791649 -105.69403652 188.02168168 -105.6628418 191.14550781 C-105.67320969 192.05837051 -105.68357758 192.97123322 -105.69425964 193.91175842 C-105.72133595 196.92600639 -105.71166358 199.93879935 -105.69921875 202.953125 C-105.70512897 205.05434575 -105.71237624 207.15556313 -105.72090149 209.2567749 C-105.73278469 213.66175875 -105.72607215 218.06623748 -105.70678711 222.47119141 C-105.68395119 228.10151313 -105.7106211 233.73032054 -105.75184917 239.36049271 C-105.77749947 243.70160075 -105.77482668 248.04235032 -105.76395607 252.38350677 C-105.76247406 254.45823284 -105.77010499 256.53298702 -105.78720665 258.60764313 C-106.37614658 272.41500899 -106.37614658 272.41500899 -100.60920715 284.4508667 C-100.07816879 284.96208069 -99.54713043 285.47329468 -99 286 C-98.43113571 286.60169006 -97.86227142 287.20338013 -97.27616882 287.82330322 C-83.2373334 302.08772546 -59.4745428 311.37674205 -40.9375 317.75 C-39.85867554 318.12850098 -39.85867554 318.12850098 -38.75805664 318.51464844 C-34.4802102 319.89067456 -31.32357116 320.30942441 -27 319 C-24.95864555 317.68818757 -24.95864555 317.68818757 -23.3125 316 C-18.35088745 311.25510156 -13.57141081 311.78632196 -6.9609375 311.84765625 C4.54391324 312.29015051 17.88279684 313.37969538 27.625 320.1875 C30.80046374 323.94791759 31.88837767 327.08861739 32 332 C31.04040289 338.03175326 28.81273239 342.14981409 24 346 C23.49210937 346.40734375 22.98421875 346.8146875 22.4609375 347.234375 C-3.75751997 365.94534465 -48.34454518 360.46533389 -78.8125 359.6875 C-79.95446838 359.65873779 -79.95446838 359.65873779 -81.11950684 359.62939453 C-95.14337241 359.25509594 -109.06587482 358.23255773 -123.0292511 356.90971375 C-129.31238407 356.31502878 -135.59400279 355.77312569 -141.890625 355.34375 C-143.20579102 355.25287109 -144.52095703 355.16199219 -145.87597656 355.06835938 C-148.90677541 354.75894037 -148.90677541 354.75894037 -151 356 C-152.87168913 361.16125524 -152.45686983 367.10022256 -152.56982422 372.51489258 C-152.60628691 373.8680456 -152.66066415 375.22084742 -152.73388672 376.57250977 C-153.15509725 384.49107368 -152.84447217 389.88206059 -147.734375 396.17578125 C-146.19057095 397.81683154 -144.61303266 399.4269448 -143 401 C-142.23163818 401.81791016 -141.46327637 402.63582031 -140.67163086 403.47851562 C-129.36225657 415.33966542 -111.33444516 421.28716553 -95.37109375 421.9609375 C-74.91258041 422.38934032 -55.52514503 415.54790352 -36.76708984 408.11523438 C-17.70014177 400.61216739 0.03210988 397.54741984 20.46899414 396.77026367 C36.78248671 396.10133807 55.17584352 394.62143902 67.5078125 382.75 C71.50043248 378.06755563 71.25619548 372.85580135 71 367 C70.65231262 364.4687305 70.23375263 361.94632347 69.75 359.4375 C69.51796875 358.19871094 69.2859375 356.95992187 69.046875 355.68359375 C68.4973016 352.98844657 67.82077236 350.41197475 67.01782227 347.77758789 C63.97081605 337.58615932 63.42984116 328.1590454 63.4375 317.5625 C63.43386387 315.17744107 63.42412109 312.79309876 63.39674377 310.40818787 C63.38024785 308.94234662 63.37684268 307.47626843 63.38975525 306.01039124 C63.32123084 299.32332078 61.820415 294.03077407 57.36328125 289.05859375 C56.35964566 288.16965937 55.34216787 287.29614592 54.3125 286.4375 C53.5073999 285.73391357 53.5073999 285.73391357 52.68603516 285.01611328 C51.13487475 283.66414179 49.56885019 282.3313517 48 281 C46.62346898 279.79341109 45.24822628 278.58534872 43.875 277.375 C41.78769139 275.55562749 39.69837178 273.73872009 37.60546875 271.92578125 C17.62421288 254.3385929 17.62421288 254.3385929 15.5625 243.75390625 C15.07385204 234.94297263 19.2754397 228.80338133 24.625 222.1875 C28.64192731 217.05475955 30.11076553 213.15902467 30.5859375 206.69140625 C31.08934067 203.41928566 31.92507966 201.58242251 34 199 C36.59375 198.09375 36.59375 198.09375 39.5 197.5 C42.52182535 196.67931237 42.52182535 196.67931237 45 195 C46.12550379 191.74219412 46.51136372 188.60952738 47.0078125 185.203125 C48.2707061 181.12606693 49.7749843 180.13379605 53.375 177.9375 C54.31085938 177.45152344 55.24671875 176.96554687 56.2109375 176.46484375 C59.2270959 174.88072694 61.58543604 173.41456396 64 171 C64.6683096 168.17060395 64.6683096 168.17060395 64.5625 165.125 C64.78991502 159.93867402 65.42541191 156.98311244 69 153 C73.18806905 149.31957568 76.93557446 148.83594857 82.390625 148.46484375 C83.65777344 148.37783203 84.92492187 148.29082031 86.23046875 148.20117188 C86.89095215 148.15790771 87.55143555 148.11464355 88.23193359 148.07006836 C90.22916136 147.93886891 92.22591572 147.80052649 94.22265625 147.66210938 C100.16406252 147.26180186 106.04264749 146.95116147 112 147 C112.24621094 146.278125 112.49242187 145.55625 112.74609375 144.8125 C116.41474921 136.58374008 123.76480133 130.32839279 132 127 C139.53380098 124.23010409 147.19997369 121.836195 154.88671875 119.53125 C163.40262419 116.92634392 169.83005775 114.68410411 176 108 C188.44893766 96.07650452 197.27548954 93.59005895 214.1171875 93.7890625 C234.14468648 94.31456539 252.71426598 100.55354918 270.22167969 110.03710938 C271.83863828 110.91262896 273.46943156 111.76247582 275.1015625 112.609375 C304.35244524 128.53573164 329.56805358 158.49047549 339.03515625 190.5 C347.69896722 226.60592849 332.68148669 270.27144693 314.65722656 301.3125 C311.96647536 305.69176298 309.05106695 309.86513654 306 314 C305.35804688 314.88300781 304.71609375 315.76601563 304.0546875 316.67578125 C289.25398188 336.09009594 268.99606672 351.87531769 244.3515625 355.54296875 C240.29855033 356.02752676 236.2620352 356.17107698 232.18408203 356.2902832 C219.72467767 356.66603614 206.80311136 357.06970215 196 364 C190.20573598 371.47646971 191.43969044 382.01898075 192 391 C193.60860534 401.74092388 198.5355412 411.13291961 207 418 C213.26751954 422.48433637 219.52763186 425.18755326 227 427 C227 427.99 227 428.98 227 430 C225.50976562 431.29931641 225.50976562 431.29931641 223.40625 432.6015625 C222.24379761 433.33004395 222.24379761 433.33004395 221.05786133 434.07324219 C220.21376709 434.58532227 219.36967285 435.09740234 218.5 435.625 C217.20582153 436.42405762 217.20582153 436.42405762 215.88549805 437.23925781 C202.93358261 445.18071732 189.69228628 452.42091614 176 459 C175.28489258 459.35030273 174.56978516 459.70060547 173.83300781 460.06152344 C151.84709829 470.77063385 128.05943986 478.61730739 104 483 C103.16742676 483.16081055 102.33485352 483.32162109 101.47705078 483.48730469 C29.49922256 496.93203671 -51.81329317 475.39705565 -111.64453125 434.88671875 C-118.99379962 429.81638019 -126.07765376 424.50712236 -132.8984375 418.7421875 C-135.0840743 416.86885211 -135.0840743 416.86885211 -138 415 C-138 414.34 -138 413.68 -138 413 C-138.81392212 412.67177246 -138.81392212 412.67177246 -139.64428711 412.33691406 C-142.78713788 410.55328355 -145.15864187 408.14663419 -147.69140625 405.609375 C-148.23675522 405.06831116 -148.78210419 404.52724731 -149.34397888 403.9697876 C-150.50050355 402.81900222 -151.65442124 401.66559176 -152.8059082 400.50976562 C-154.5237239 398.78884616 -156.25424127 397.08153839 -157.98632812 395.375 C-165.68135029 387.72376312 -172.48038124 379.66721753 -179 371 C-179.84606812 369.90220215 -179.84606812 369.90220215 -180.70922852 368.78222656 C-206.41941057 335.39661898 -222.57699423 297.00854256 -230.8125 255.8125 C-231.00755127 254.85351807 -231.20260254 253.89453613 -231.40356445 252.90649414 C-234.92457514 234.14278436 -235.68296544 214.74542537 -236.0847168 195.70141602 C-236.15371005 193.17488638 -236.25672757 190.64907515 -236.39233398 188.12524414 C-237.46703048 167.67707146 -237.46703048 167.67707146 -233.39797974 161.61221313 C-229.5354027 157.59709962 -225.11834952 154.77507781 -220.2141571 152.18721008 C-217.31260387 150.6314247 -214.60738927 148.83201697 -211.87159729 147.00486755 C-205.75225323 142.97163654 -199.30694975 139.50072797 -192.875 136 C-172.82930978 125.23502684 -172.82930978 125.23502684 -159 108 C-157.4654615 101.45848158 -158.6532947 95.7207916 -159.875 89.1875 C-165.50567151 58.1799745 -165.75552402 24.39515723 -147.2265625 -2.58203125 C-133.64862721 -20.62128814 -113.1295586 -29.89526739 -91.26269531 -33.15258789 C-58.15407054 -37.32153104 -24.70841998 -20.83748622 0 0 Z"/>
<path transform="translate(1040,325)" fill="#00AFEF" d="M0 0 C1.06766602 0.25765137 2.13533203 0.51530273 3.23535156 0.78076172 C54.31965309 13.40522531 101.05838331 39.83438463 139.46191406 75.57958984 C141.02275698 77.02101589 142.5984711 78.44425331 144.1796875 79.86328125 C149.17033516 84.35254651 153.99794965 88.85051901 158.31640625 94.0078125 C160.18511177 96.21904177 162.15234194 98.31858701 164.125 100.4375 C219.87351886 162.50607092 246.1773363 246.42446117 241.89324951 329.05908203 C237.0172216 411.68685083 200.35682934 483.86409046 142.99609375 542.234375 C141 544 141 544 139 544 C139 544.66 139 545.32 139 546 C137.47162731 547.39599396 135.87349901 548.71587649 134.25 550 C132.73019531 551.21236328 132.73019531 551.21236328 131.1796875 552.44921875 C130.64956055 552.87122559 130.11943359 553.29323242 129.57324219 553.72802734 C127.12942095 555.70386668 124.7607136 557.76713059 122.375 559.8125 C75.98320231 598.39282533 16.63201775 621.26226813 -43 628 C-43.74564209 628.0942627 -44.49128418 628.18852539 -45.25952148 628.28564453 C-127.26785034 637.40221127 -211.80749809 611.07879607 -276 560 C-291.24293731 547.57108184 -306.40080528 534.29049494 -318.66796875 518.88671875 C-320.68420734 516.39090582 -322.76613964 513.97408719 -324.88476562 511.56542969 C-337.49293329 497.10842485 -347.44635306 480.57162669 -357 464 C-357.36931641 463.36739258 -357.73863281 462.73478516 -358.11914062 462.08300781 C-384.23288776 417.02056653 -396.21207177 362.72896943 -396.25 311 C-396.25067474 310.16674194 -396.25134949 309.33348389 -396.25204468 308.47497559 C-396.14021012 220.86775163 -359.5163003 141.90189933 -298.5 80.3125 C-297.63375 79.43311768 -296.7675 78.55373535 -295.875 77.64770508 C-289.89881296 71.66420531 -283.63267663 66.24191157 -277 61 C-276.11127197 60.28396606 -276.11127197 60.28396606 -275.20458984 59.5534668 C-198.54716422 -2.09156557 -95.02560478 -23.07921038 0 0 Z M-90 15 C-98.74570828 24.70128132 -105.44691593 35.75571842 -112 47 C-112.39719238 47.66660645 -112.79438477 48.33321289 -113.20361328 49.02001953 C-115.29899796 52.28745747 -115.29899796 52.28745747 -116 56 C-102.99139783 61.813368 -89.96286765 66.23102828 -75.625 66.0625 C-74.88894531 66.05798828 -74.15289063 66.05347656 -73.39453125 66.04882812 C-71.59631842 66.03715142 -69.79814803 66.01922011 -68 66 C-67.97435027 59.43872933 -67.9570093 52.8774719 -67.94506836 46.31616211 C-67.94008293 44.09057126 -67.93329219 41.8649836 -67.92456055 39.6394043 C-67.87772988 27.38354429 -67.89997591 15.21435988 -69 3 C-78.14554495 2.68796757 -83.9441699 8.82165311 -90 15 Z M-148 27 C-148.62390625 27.51304687 -149.2478125 28.02609375 -149.890625 28.5546875 C-151.26804944 29.69395912 -152.63542958 30.84536349 -154 32 C-145.67432671 41.18694984 -135.07194732 46.82770344 -124 52 C-116.08156759 39.9795932 -116.08156759 39.9795932 -108.8125 27.5625 C-105.41503203 21.49708172 -101.45233511 16.31348634 -97 11 C-94.96930761 8.35577927 -92.97872376 5.68326934 -91 3 C-110.54381232 3 -133.4745095 14.89542459 -148 27 Z M-57 4 C-57.02312764 11.93613787 -57.04091723 19.87226176 -57.05181217 27.80842495 C-57.05704008 31.49314498 -57.06413605 35.17784203 -57.07543945 38.86254883 C-57.08627162 42.41570831 -57.09227753 45.96884563 -57.09487724 49.52202034 C-57.0967309 50.88045666 -57.10035038 52.23889171 -57.10573006 53.59731865 C-57.11294475 55.49382223 -57.11340809 57.39034793 -57.11352539 59.28686523 C-57.115746 60.36830307 -57.11796661 61.44974091 -57.12025452 62.56394958 C-57.2758197 64.94797472 -57.2758197 64.94797472 -56 66 C-44.06382389 67.00274944 -31.72407196 66.65723363 -20 64.1875 C-19.20029785 64.0222583 -18.4005957 63.8570166 -17.57666016 63.68676758 C-15.15190025 63.15473791 -15.15190025 63.15473791 -12 62 C-10.67496057 58.0248817 -11.69509163 56.8359143 -13.4296875 53.07421875 C-13.97334961 51.89126221 -14.51701172 50.70830566 -15.07714844 49.48950195 C-15.67511435 48.22154559 -16.27442329 46.95422182 -16.875 45.6875 C-17.32317078 44.73367935 -17.32317078 44.73367935 -17.78039551 43.7605896 C-28.69987937 20.07708696 -28.69987937 20.07708696 -48.76171875 4.55859375 C-51.54843139 3.86313143 -54.13735477 3.96505691 -57 4 Z M-32 7 C-31.01 7.495 -31.01 7.495 -30 8 C-29.72414063 8.56976563 -29.44828125 9.13953125 -29.1640625 9.7265625 C-27.64291969 12.69738504 -25.58619207 14.8762845 -23.375 17.375 C-13.16139275 29.35935893 -7.20401525 43.68137541 -1 58 C11.84226437 55.49937846 21.53013757 48.49036263 32 41 C17.80666291 22.86406928 -4.54339326 11.28819626 -27 7 C-28.66614171 6.95817217 -30.3341845 6.94674125 -32 7 Z M-144 8.6875 C-145.12535156 8.9649707 -145.12535156 8.9649707 -146.2734375 9.24804688 C-155.9069982 11.4031938 -155.9069982 11.4031938 -165 15 C-166.05785497 16.88222801 -166.05785497 16.88222801 -166 19 C-163.51920633 23.66844708 -163.51920633 23.66844708 -159 26 C-157.04875632 25.00614483 -157.04875632 25.00614483 -155.0859375 23.4296875 C-154.32410156 22.8625 -153.56226563 22.2953125 -152.77734375 21.7109375 C-151.98457031 21.10507812 -151.19179688 20.49921875 -150.375 19.875 C-144.46608158 15.40124602 -138.5839412 11.42239422 -132 8 C-136.29669235 6.68929542 -139.74303996 7.61573886 -144 8.6875 Z M-178 19 C-219.02336927 34.67329478 -256.29505197 56.07244383 -288.72265625 85.91015625 C-290.25280764 87.31432605 -291.80288035 88.69706416 -293.37109375 90.05859375 C-305.31564345 100.47424108 -315.47742366 112.3782579 -325 125 C-325.45084961 125.58861816 -325.90169922 126.17723633 -326.36621094 126.78369141 C-375.17477644 190.57430416 -393.01774551 273.96531157 -382.609375 352.96484375 C-374.38156937 411.5498672 -349.8745551 465.4785294 -311 510 C-310.32195312 510.79019531 -309.64390625 511.58039063 -308.9453125 512.39453125 C-298.0230156 524.86804931 -286.20882723 536.9548567 -273 547 C-271.69317779 548.02237411 -270.38726178 549.04590712 -269.08203125 550.0703125 C-226.81786909 583.05367283 -177.80089082 604.65276783 -125 614 C-123.66582031 614.2477417 -123.66582031 614.2477417 -122.3046875 614.50048828 C-90.97406386 620.08616547 -55.29941366 619.42565517 -24 614 C-23.00468262 613.82839355 -22.00936523 613.65678711 -20.98388672 613.47998047 C18.69067395 606.37323589 57.37105831 592.47983024 91 570 C91.72364746 569.5167627 92.44729492 569.03352539 93.19287109 568.53564453 C102.98559443 561.93194938 112.14018524 554.80211215 121 547 C122.06734375 546.08154297 122.06734375 546.08154297 123.15625 545.14453125 C125.1219291 543.44873022 127.0632923 541.72881253 129 540 C129.90105469 539.20335937 130.80210937 538.40671875 131.73046875 537.5859375 C143.27056942 527.27983905 153.31418424 515.98597308 162.69287109 503.69677734 C163.93803145 502.08044106 165.21247315 500.48678783 166.48828125 498.89453125 C213.86692813 439.2745115 238.08068401 356.65117409 230.05273438 280.98925781 C229.73081009 278.32144011 229.37274041 275.66120367 229 273 C228.76603516 271.31704834 228.76603516 271.31704834 228.52734375 269.60009766 C222.84237429 229.98954658 210.19222545 193.05886694 191 158 C186.30645747 158 183.93796849 159.58197224 180.125 162 C178.77274743 162.83172502 177.41986884 163.66243299 176.06640625 164.4921875 C175.38465332 164.91338867 174.70290039 165.33458984 174.00048828 165.76855469 C159.64204269 174.60721707 144.77602709 181.13801733 129 187 C130.485 191.95 130.485 191.95 132 197 C130.35 197.33 128.7 197.66 127 198 C126.34 198.33 125.68 198.66 125 199 C124.5359375 197.576875 124.5359375 197.576875 124.0625 196.125 C123.12605258 193.13919592 123.12605258 193.13919592 122 191 C116.49191603 191.59015185 111.35121931 192.56663769 106 194 C105.67 191.36 105.34 188.72 105 186 C105.62648438 185.79503906 106.25296875 185.59007812 106.8984375 185.37890625 C107.71570312 185.10949219 108.53296875 184.84007812 109.375 184.5625 C110.18710938 184.29566406 110.99921875 184.02882813 111.8359375 183.75390625 C114.01031799 183.04820271 114.01031799 183.04820271 116 182 C115.35575652 177.129747 113.9785585 172.69748291 112.3046875 168.1015625 C112.03415558 167.34894135 111.76362366 166.59632019 111.4848938 165.82089233 C110.91076942 164.22814492 110.33404438 162.63633284 109.75488281 161.04541016 C108.89126126 158.66973199 108.03878139 156.29027962 107.1875 153.91015625 C102.50976014 140.927931 97.62771958 127.89931719 90.5625 116 C90.21251953 115.40445313 89.86253906 114.80890625 89.50195312 114.1953125 C88.67590947 112.79216986 87.83932372 111.39523943 87 110 C80.76991369 112.31194609 74.6017945 114.72555695 68.49609375 117.34765625 C52.64264084 124.14125151 36.98194249 129.81949495 20 133 C20.13575439 133.64098633 20.27150879 134.28197266 20.41137695 134.94238281 C25.81114594 160.7826654 28.15858138 186.69779801 30 213 C29.20722656 213.04898438 28.41445312 213.09796875 27.59765625 213.1484375 C21.75566198 213.52284155 15.91967246 213.90583977 10.08984375 214.44140625 C-12.22582952 216.44703796 -34.61756767 217.12590418 -57 218 C-57 225.92 -57 233.84 -57 242 C-60.3 242 -63.6 242 -67 242 C-67 233.75 -67 225.5 -67 217 C-72.61 217 -78.22 217 -84 217 C-84 213.7 -84 210.4 -84 207 C-78.39 207 -72.78 207 -67 207 C-67 184.89 -67 162.78 -67 140 C-73.93 140 -80.86 140 -88 140 C-87.67 136.7 -87.34 133.4 -87 130 C-77.1 129.505 -77.1 129.505 -67 129 C-67 111.51 -67 94.02 -67 76 C-73.6 75.34 -80.2 74.68 -87 74 C-90.48525626 73.30056973 -93.69451866 72.62293486 -97.0625 71.625 C-97.83779053 71.40948486 -98.61308105 71.19396973 -99.41186523 70.97192383 C-104.72259099 69.4652681 -109.9298277 67.72660467 -115.06640625 65.69921875 C-116.97077817 64.88664514 -116.97077817 64.88664514 -119 65 C-120.29241372 68.06218526 -121.58379765 71.12480378 -122.875 74.1875 C-123.42220703 75.48397461 -123.42220703 75.48397461 -123.98046875 76.80664062 C-124.68409548 78.47615496 -125.38567122 80.14653553 -126.08496094 81.81787109 C-126.80048453 83.52420778 -127.52703219 85.22592271 -128.2578125 86.92578125 C-129.16844898 89.10360328 -129.16844898 89.10360328 -129 92 C-130.7578125 90.95833333 -132.515625 89.91666667 -134.2734375 88.875 C-135.97472667 87.84931652 -135.97472667 87.84931652 -138 88 C-137.72736328 87.3294458 -137.45472656 86.6588916 -137.17382812 85.96801758 C-135.94027211 82.91971088 -134.72003179 79.86624323 -133.5 76.8125 C-133.07074219 75.75740234 -132.64148438 74.70230469 -132.19921875 73.61523438 C-131.79316406 72.59365234 -131.38710938 71.57207031 -130.96875 70.51953125 C-130.59169922 69.58214111 -130.21464844 68.64475098 -129.82617188 67.67895508 C-128.98770864 64.9601439 -128.83867254 62.82547116 -129 60 C-129.50748779 59.75991211 -130.01497559 59.51982422 -130.5378418 59.27246094 C-142.36787113 53.590626 -151.9116255 47.49629077 -161 38 C-165.11693317 40.26205119 -168.46918749 43.05203862 -171.875 46.25 C-172.66716919 46.98742432 -172.66716919 46.98742432 -173.4753418 47.73974609 C-174.98897621 49.15420575 -176.49546796 50.57587083 -178 52 C-178.68964844 52.64710938 -179.37929688 53.29421875 -180.08984375 53.9609375 C-184.51221951 58.23289231 -188.57305227 62.88561904 -192 68 C-192 68.66 -192 69.32 -192 70 C-195.66521894 68.0709374 -197.3327868 66.77070649 -199 63 C-188.97247584 50.47770534 -178.88090656 39.59571858 -166 30 C-169.80411834 26.08060535 -173.81576108 22.50897269 -178 19 Z M25 20 C29.27293882 25.23435005 33.81580806 29.67106815 39 34 C42.98440872 32.70775933 44.63628473 31.41040443 47 28 C44.46195542 26.84552129 41.92006371 25.70131573 39.375 24.5625 C38.66214844 24.23701172 37.94929688 23.91152344 37.21484375 23.57617188 C33.13828214 21.76228896 29.48213493 20.50194256 25 20 Z M55 32 C52.69 34.31 50.38 36.62 48 39 C50.98691971 43.72149235 54.35247808 47.83165216 58.0625 52 C66.66774211 61.8081124 74.59009906 72.08121573 82.4375 82.5 C82.93386963 83.15863037 83.43023926 83.81726074 83.94165039 84.49584961 C86.75495483 88.25573129 89.43303209 92.06762363 92 96 C109.28031458 88.67306922 109.28031458 88.67306922 121 75 C101.28673263 57.92303785 79.56233819 41.38177601 55 32 Z M33.875 50.9375 C27.29004682 56.04889722 20.20342527 60.01751904 12.88427734 63.97119141 C9.89672729 65.6023829 6.94989115 67.30180911 4 69 C4.51949219 70.20011719 5.03898437 71.40023437 5.57421875 72.63671875 C12.59871536 89.2655199 16.9791002 106.05320327 19 124 C25.64805133 123.42920771 31.73921839 122.23412342 38.125 120.3125 C39.0847876 120.02431396 40.0445752 119.73612793 41.03344727 119.43920898 C55.19196537 114.94025102 68.59520162 108.34422551 82 102 C82 87.84269535 60.49821698 67.79924029 50.859375 57.7734375 C49.73412165 56.66286137 48.60228803 55.55886999 47.4609375 54.46484375 C45.91241411 52.91217993 44.55584406 51.27490745 43.1875 49.5625 C42.465625 48.716875 41.74375 47.87125 41 47 C37.85262631 47 36.30325442 49.00217461 33.875 50.9375 Z M-14.67578125 73.65625 C-15.58908203 73.79160156 -16.50238281 73.92695313 -17.44335938 74.06640625 C-19.28359089 74.34450795 -21.12234469 74.63268304 -22.95898438 74.93359375 C-34.48162885 76.59665584 -44.98276279 76 -57 76 C-57 94.15 -57 112.3 -57 131 C-51.15168722 132.94943759 -44.57482534 132.29103996 -38.4375 132.3125 C-37.68089081 132.31578308 -36.92428162 132.31906616 -36.14474487 132.32244873 C-12.54520358 133.02247192 -12.54520358 133.02247192 9 126 C4.56483265 98.69120478 4.56483265 98.69120478 -5 73 C-8.31110228 72.93848665 -11.40772831 73.13277094 -14.67578125 73.65625 Z M124.6484375 84.45703125 C123.62931274 85.25330933 123.62931274 85.25330933 122.58959961 86.06567383 C121.85878174 86.64212646 121.12796387 87.2185791 120.375 87.8125 C112.13930567 94.22139016 103.66087991 100.18333907 95 106 C96.49530615 109.48120194 97.99649555 112.95983121 99.5 116.4375 C99.95632813 117.49428955 100.41265625 118.5510791 100.8828125 119.63989258 C103.17171663 124.90940702 105.5121209 130.12923912 108.05834961 135.27905273 C114.6471748 148.63265567 119.29812279 162.89436837 124 177 C130.50047434 176.13465725 136.1825118 173.68409514 142.18359375 171.18212891 C144.09460125 170.38763811 146.01160084 169.60924668 147.9296875 168.83203125 C158.39997537 164.53255634 168.43388892 159.49170157 177.25 152.3125 C178.16265625 151.58675781 179.0753125 150.86101562 180.015625 150.11328125 C182.45634907 147.99715852 182.45634907 147.99715852 182 144 C180.78284118 141.74502219 179.54428529 139.68294499 178.125 137.5625 C177.71862305 136.94560303 177.31224609 136.32870605 176.89355469 135.69311523 C172.57184851 129.21964908 167.91839155 123.0309268 163 117 C162.54206055 116.43764648 162.08412109 115.87529297 161.61230469 115.29589844 C154.61574771 106.79224397 147.07119225 98.87304593 139.3125 91.0625 C137.983396 89.71949829 137.983396 89.71949829 136.62744141 88.34936523 C135.38293213 87.11101929 135.38293213 87.11101929 134.11328125 85.84765625 C133.36860596 85.10523682 132.62393066 84.36281738 131.85668945 83.59790039 C128.75786544 80.93099662 127.53156675 82.17600595 124.6484375 84.45703125 Z M0.15625 137.9921875 C-11.01916407 139.53469494 -22.24403496 139.21379671 -33.5 139.125 C-40.925 139.08375 -48.35 139.0425 -56 139 C-56 161.77 -56 184.54 -56 208 C-43.00625 208.061875 -43.00625 208.061875 -29.75 208.125 C-27.06069336 208.14320801 -24.37138672 208.16141602 -21.60058594 208.18017578 C0.17909005 209.47024392 0.17909005 209.47024392 21 205 C21.67989926 187.43593579 19.13783096 169.9320287 16.4375 152.625 C16.26983627 151.54285217 16.26983627 151.54285217 16.0987854 150.43884277 C15.77865102 148.38794627 15.45158109 146.33831369 15.12109375 144.2890625 C14.9295874 143.10006348 14.73808105 141.91106445 14.54077148 140.68603516 C14.27638408 138.09183797 14.27638408 138.09183797 13 137 C8.59938914 136.79203933 4.49878389 137.32135624 0.15625 137.9921875 Z"/>
<path transform="translate(1409,1341)" fill="#00AFEF" d="M0 0 C1.27230469 0.87591797 1.27230469 0.87591797 2.5703125 1.76953125 C6.52690208 4.60255968 6.52690208 4.60255968 8 6 C8 6.66 8 7.32 8 8 C8.61875 8.2475 9.2375 8.495 9.875 8.75 C12.35068687 10.20628639 12.95125002 11.37812506 14 14 C14.66 14 15.32 14 16 14 C33.77588643 34.64595143 43.32324707 60.45509677 48 87 C48.14953125 87.84691406 48.2990625 88.69382812 48.453125 89.56640625 C51.22109236 105.95945435 51 121.1238775 51 138 C-12.36 138 -75.72 138 -141 138 C-138.54517672 165.00305607 -135.14392921 189.83846712 -113.625 208.0859375 C-101.75074341 216.74424959 -86.64897334 221.36880546 -72 222 C-71.12730469 222.0515625 -70.25460937 222.103125 -69.35546875 222.15625 C-48.74280666 222.8185042 -29.36685158 215.5172449 -14.3203125 201.4140625 C-5.93889854 192.69400555 -1.29079103 182.5177686 2 171 C17.18 171 32.36 171 48 171 C44.98784981 198.1093517 28.20389793 222.39132663 8 240 C-18.96401171 261.50992752 -54.83666032 266.12096577 -88.32421875 262.5 C-117.4762467 258.66267682 -144.26104157 244.94330447 -162.65234375 221.72265625 C-189.01936282 187.00381982 -194.92852175 142.07875404 -189.40234375 99.75537109 C-185.1701572 70.77208383 -176.04536852 43.62654893 -157 21 C-156.44183594 20.27941406 -155.88367187 19.55882812 -155.30859375 18.81640625 C-144.04441363 4.7855854 -126.60134401 -4.91138043 -110 -11 C-108.56527344 -11.53753906 -108.56527344 -11.53753906 -107.1015625 -12.0859375 C-72.61475942 -23.87705526 -30.20751963 -21.09391951 0 0 Z M-124 51 C-135.14865421 65.82815075 -141 82.54620667 -141 101 C-93.15 101 -45.3 101 4 101 C0.57164787 75.85875108 -3.4091184 53.81337398 -23.375 37 C-55.82718479 12.86888823 -98.55905695 22.22046143 -124 51 Z"/>
<path transform="translate(307,1330)" fill="#00AFEF" d="M0 0 C6.53278786 -0.02527002 13.06556321 -0.04283292 19.59838867 -0.05493164 C21.82267732 -0.05997317 24.04696263 -0.06680623 26.27124023 -0.07543945 C29.46078309 -0.08751298 32.65028229 -0.09322996 35.83984375 -0.09765625 C37.34139259 -0.10539818 37.34139259 -0.10539818 38.87327576 -0.11329651 C39.79415482 -0.11337204 40.71503387 -0.11344757 41.66381836 -0.11352539 C42.47878281 -0.115746 43.29374725 -0.11796661 44.13340759 -0.12025452 C46 0 46 0 47 1 C47.10121952 3.43264985 47.13713609 5.83714742 47.13130188 8.27041626 C47.13341759 9.0406457 47.13553331 9.81087514 47.13771313 10.60444486 C47.14374214 13.20587436 47.14271089 15.80725574 47.1418457 18.40869141 C47.14487556 20.26625145 47.14839653 22.12381076 47.15237427 23.98136902 C47.16028155 27.99413766 47.16541525 32.00689733 47.16866493 36.01967239 C47.17456868 42.37523372 47.19110652 48.73073882 47.21000671 55.08627319 C47.216345 57.26208683 47.22267061 59.43790051 47.22898388 61.61371422 C47.23214969 62.70380437 47.2353155 63.79389452 47.23857725 64.9170177 C47.28062899 79.71778016 47.31358503 94.51851779 47.32592773 109.31933594 C47.33433168 119.29430906 47.35691545 129.26914432 47.3952834 139.24404848 C47.41497909 144.52015227 47.42747058 149.79605026 47.42244911 155.07219315 C47.41777202 160.04795173 47.4317739 165.02332204 47.45946121 169.99900246 C47.46632401 171.81487948 47.46655318 173.63079709 47.45926094 175.44667244 C47.39967026 191.9689678 49.28930598 207.86934601 60.65625 220.8984375 C70.77699919 230.30309594 85.54212013 233.74735325 99.06640625 233.28515625 C118.68493599 231.37816201 135.73138202 225.25557005 148.87109375 209.8828125 C167.59817288 184.52394205 167.46237067 154.24770848 167.50611091 124.16871858 C167.51560122 119.79119276 167.54181158 115.41376477 167.56611633 111.03630066 C167.60949575 102.77794962 167.63821691 94.51961786 167.66143972 86.26118821 C167.68864611 76.84611736 167.73254691 67.43114632 167.77772844 58.01614726 C167.87016482 38.6774845 167.94203152 19.3387953 168 0 C174.53278786 -0.02527002 181.06556321 -0.04283292 187.59838867 -0.05493164 C189.82267732 -0.05997317 192.04696263 -0.06680623 194.27124023 -0.07543945 C197.46078309 -0.08751298 200.65028229 -0.09322996 203.83984375 -0.09765625 C205.34139259 -0.10539818 205.34139259 -0.10539818 206.87327576 -0.11329651 C207.79415482 -0.11337204 208.71503387 -0.11344757 209.66381836 -0.11352539 C210.47878281 -0.115746 211.29374725 -0.11796661 212.13340759 -0.12025452 C214 0 214 0 215 1 C215.0974502 2.41167575 215.12555435 3.82820506 215.12584114 5.24324036 C215.12844889 6.16423114 215.13105664 7.08522192 215.13374341 8.03412151 C215.13151268 9.0577369 215.12928196 10.08135229 215.12698364 11.13598633 C215.12854363 12.21419301 215.13010362 13.29239969 215.13171089 14.4032793 C215.13572598 18.04621018 215.13252928 21.6891 215.12939453 25.33203125 C215.13074835 27.93150863 215.13252817 30.53098582 215.13470459 33.13046265 C215.13916293 39.47606774 215.13818554 45.82166104 215.13529195 52.16726661 C215.13303817 57.3221749 215.13272528 62.47707988 215.13381577 67.63198853 C215.133969 68.36425968 215.13412223 69.09653083 215.13428011 69.85099202 C215.13459982 71.33835276 215.13492403 72.8257135 215.1352527 74.31307423 C215.13810768 88.27653865 215.13482019 102.23999651 215.12945233 116.20345986 C215.12498428 128.19781767 215.12576021 140.1921658 215.13037109 152.18652344 C215.13571654 166.09831114 215.13783299 180.01009309 215.13475883 193.92188168 C215.13444026 195.40392494 215.13412589 196.88596821 215.13381577 198.36801147 C215.13366149 199.09730089 215.13350721 199.8265903 215.13334826 200.57797939 C215.13248302 205.72969151 215.13394614 210.88140001 215.13629532 216.03311157 C215.1393846 222.96048275 215.13720103 229.88783527 215.13140106 236.81520462 C215.13007268 239.36585077 215.13046889 241.91649846 215.13266373 244.46714401 C215.13537217 247.93278849 215.13199786 251.39837307 215.12698364 254.86401367 C215.12921436 255.88762906 215.13144509 256.91124445 215.13374341 257.96587849 C215.13113566 258.88686927 215.12852791 259.80786005 215.12584114 260.75675964 C215.12567879 261.55780719 215.12551644 262.35885473 215.12534916 263.18417645 C215 265 215 265 214 266 C212.64905018 266.09268999 211.29332909 266.11747326 209.93920898 266.11352539 C209.07839218 266.11344986 208.21757538 266.11337433 207.33067322 266.11329651 C206.39526199 266.10813522 205.45985077 266.10297394 204.49609375 266.09765625 C203.54307877 266.0962413 202.59006378 266.09482635 201.60816956 266.09336853 C198.55124835 266.08775152 195.49439923 266.07519616 192.4375 266.0625 C190.37044376 266.05748719 188.30338638 266.05292391 186.23632812 266.04882812 C181.15750167 266.03862558 176.07883194 266.01905356 171 266 C170.67 254.12 170.34 242.24 170 230 C167.03 233.96 164.06 237.92 161 242 C144.84846684 261.10885614 125.31742964 271.70750602 100.1796875 273.859375 C74.79283289 275.49723659 46.02518237 272.29230929 25.97241211 254.97192383 C10.66926253 240.91989861 0.87384165 222.02526742 -0.09058011 201.02789128 C-0.12514743 198.83515331 -0.12855611 196.64454935 -0.12025452 194.45155334 C-0.12153615 193.19914019 -0.12153615 193.19914019 -0.12284368 191.92142576 C-0.12448419 189.13778054 -0.11900061 186.35419626 -0.11352539 183.57055664 C-0.11324318 181.56954958 -0.11340191 179.56854241 -0.1139679 177.5675354 C-0.11425456 172.14456006 -0.10837887 166.72160687 -0.10139394 161.29863667 C-0.09513872 155.6278388 -0.09455488 149.95704041 -0.09336853 144.28623962 C-0.09026161 133.55188816 -0.08205683 122.81754689 -0.07201904 112.08319992 C-0.06083806 99.86078057 -0.05534245 87.63836073 -0.05032361 75.41593754 C-0.0398737 50.27728604 -0.02228662 25.13864359 0 0 Z"/>
<path transform="translate(776.9375,1343.8125)" fill="#00AFEF" d="M0 0 C18.00040012 17.38324355 25.8495272 41.24363324 26.28419423 65.83324409 C26.3177718 70.05363213 26.30728305 74.27321364 26.28955078 78.49365234 C26.28898543 80.39717096 26.28930564 82.30069001 26.29043579 84.20420837 C26.29100547 89.32928795 26.27931393 94.45427235 26.26528788 99.57932997 C26.25271592 104.95112585 26.25160495 110.32292434 26.24923706 115.69473267 C26.24304119 125.84804511 26.22665618 136.00131405 26.20653808 146.15460742 C26.18411992 157.72181593 26.17317082 169.28902662 26.16314721 180.85625148 C26.14228812 204.63336392 26.10563574 228.41041681 26.0625 252.1875 C10.8825 252.1875 -4.2975 252.1875 -19.9375 252.1875 C-19.95731934 247.07137207 -19.97713867 241.95524414 -19.99755859 236.68408203 C-20.06461436 219.73670247 -20.14215476 202.78938268 -20.22502708 185.84207344 C-20.27499416 175.57197663 -20.3214379 165.30188716 -20.359375 155.03173828 C-20.39247812 146.07270384 -20.43240817 137.11372927 -20.48029006 128.1547612 C-20.50537438 123.4179571 -20.52720729 118.68119178 -20.54084396 113.94433975 C-20.55383048 109.47098561 -20.57605675 104.99776574 -20.60488319 100.52448654 C-20.61383124 98.89692909 -20.61961861 97.26935011 -20.62171364 95.64176941 C-20.65283618 75.10586911 -20.75556859 50.94411555 -35.11328125 34.73046875 C-47.87104125 22.85407386 -63.41788295 21.32710352 -80.1953125 21.78125 C-93.81419546 22.50349769 -104.92818747 27.36296657 -115.9375 35.1875 C-117.01 35.93 -118.0825 36.6725 -119.1875 37.4375 C-145.06789314 63.31789314 -144.22980216 99.35578803 -144.34221697 133.50388384 C-144.35803046 137.6878806 -144.38476071 141.87180862 -144.4102478 146.05575562 C-144.45671753 153.94934903 -144.49361371 161.84295585 -144.52692068 169.73661458 C-144.56536927 178.73569451 -144.61471846 187.73470486 -144.66490483 196.73372579 C-144.76775062 215.2182718 -144.85572421 233.70284793 -144.9375 252.1875 C-160.1175 252.1875 -175.2975 252.1875 -190.9375 252.1875 C-190.9375 164.4075 -190.9375 76.6275 -190.9375 -13.8125 C-176.4175 -13.8125 -161.8975 -13.8125 -146.9375 -13.8125 C-146.6075 -2.2625 -146.2775 9.2875 -145.9375 21.1875 C-142.9675 17.5575 -139.9975 13.9275 -136.9375 10.1875 C-102.63762138 -26.82026378 -39.70734393 -33.14700015 0 0 Z"/>
<path transform="translate(1153.671875,1343.92578125)" fill="#00AFEF" d="M0 0 C0.76828125 0.68449219 1.5365625 1.36898438 2.328125 2.07421875 C3.44960937 3.05455078 3.44960937 3.05455078 4.59375 4.0546875 C18.24851144 16.77844248 26.30278186 33.80343789 31.140625 51.57421875 C31.33567627 52.28416992 31.53072754 52.99412109 31.73168945 53.72558594 C33.69532366 61.50389876 34.31275119 68.95122827 35.328125 77.07421875 C20.478125 77.07421875 5.628125 77.07421875 -9.671875 77.07421875 C-11.321875 71.13421875 -12.971875 65.19421875 -14.671875 59.07421875 C-15.91966297 55.98960994 -17.05195057 53.26181142 -18.609375 50.38671875 C-18.95436035 49.72937744 -19.2993457 49.07203613 -19.65478516 48.39477539 C-26.48705432 35.71148407 -37.06153181 28.5772691 -50.671875 24.07421875 C-67.87407301 19.16172498 -87.52927441 20.79526379 -103.484375 28.76171875 C-122.34867268 39.91772243 -132.70905209 59.22024583 -138.12882996 79.84588623 C-141.44341999 93.44698407 -142.17850284 107.07017882 -142.046875 121.01171875 C-142.04255463 121.88441406 -142.03823425 122.75710938 -142.03378296 123.65625 C-141.96051165 136.29070888 -141.72068361 148.74694928 -138.671875 161.07421875 C-138.42244141 162.10579102 -138.42244141 162.10579102 -138.16796875 163.15820312 C-133.78213863 180.52284165 -125.48478106 199.43822912 -109.671875 209.07421875 C-93.48133498 218.4343747 -75.56611007 221.44619733 -57.32421875 217.16796875 C-41.95586485 212.56568095 -29.68462685 202.9707304 -21.671875 189.07421875 C-16.10081123 178.67972315 -13.04501539 168.54289609 -9.671875 157.07421875 C5.178125 157.07421875 20.028125 157.07421875 35.328125 157.07421875 C30.24227919 189.28457555 19.8833947 219.89705462 -6.984375 240.38671875 C-34.59952341 259.16660447 -67.22065738 264.0245607 -99.86328125 258.10546875 C-118.67300512 254.28361798 -136.56889643 246.2329808 -150.671875 233.07421875 C-151.49316895 232.32229248 -151.49316895 232.32229248 -152.33105469 231.55517578 C-179.14854153 206.81593323 -191.22846695 172.18326337 -192.7980957 136.17895508 C-193.84967238 95.80842585 -187.61374951 50.37131835 -159.671875 19.07421875 C-158.62773438 17.83478516 -158.62773438 17.83478516 -157.5625 16.5703125 C-137.86739402 -6.30254994 -109.96192098 -18.03609037 -80.29248047 -20.74267578 C-51.57275516 -22.74936425 -22.75381625 -19.26734441 0 0 Z"/>
<path transform="translate(1591.9375,1226.875)" fill="#00AFEF" d="M0 0 C0.82226074 -0.00467285 1.64452148 -0.0093457 2.49169922 -0.01416016 C8.78611235 0.0019953 14.7342176 0.5497016 21.0625 1.125 C21.0625 14.985 21.0625 28.845 21.0625 43.125 C8.0625 42.9375 8.0625 42.9375 4.01171875 42.85473633 C-3.49847438 42.80245729 -9.81382378 42.90885098 -15.9609375 47.703125 C-22.74365482 56.09330712 -23.01427115 66.1662035 -23.25390625 76.5625 C-23.27255737 77.24248047 -23.2912085 77.92246094 -23.3104248 78.62304688 C-23.37788239 81.12358648 -23.4385621 83.62430525 -23.5 86.125 C-23.644375 91.735 -23.78875 97.345 -23.9375 103.125 C-9.0875 103.125 5.7625 103.125 21.0625 103.125 C21.0625 115.995 21.0625 128.865 21.0625 142.125 C6.2125 142.125 -8.6375 142.125 -23.9375 142.125 C-23.9375 217.035 -23.9375 291.945 -23.9375 369.125 C-39.1175 369.125 -54.2975 369.125 -69.9375 369.125 C-69.9375 294.215 -69.9375 219.305 -69.9375 142.125 C-81.8175 142.125 -93.6975 142.125 -105.9375 142.125 C-105.9375 129.255 -105.9375 116.385 -105.9375 103.125 C-94.0575 103.125 -82.1775 103.125 -69.9375 103.125 C-69.97230469 99.54527344 -70.00710938 95.96554687 -70.04296875 92.27734375 C-70.06644835 88.7622965 -70.08461699 85.2472584 -70.10229492 81.73217773 C-70.11726573 79.31254079 -70.13764959 76.89293042 -70.16381836 74.47338867 C-70.39219338 52.79567302 -70.35846039 33.01362366 -54.41796875 16.37890625 C-44.621857 7.47755746 -32.86478812 3.10260446 -19.9375 1.125 C-19.22980469 1.01285156 -18.52210937 0.90070313 -17.79296875 0.78515625 C-11.88040938 0.02925987 -5.95146978 0.02311464 0 0 Z"/>
<path transform="translate(934.313232421875,998.509765625)" fill="#00AFEF" d="M0 0 C20.43252363 3.41760487 38.42624205 2.20329287 58.93676758 -0.44726562 C63.31641401 -1.0025628 67.69673206 -1.55237338 72.07739258 -2.09960938 C73.11414627 -2.22949753 74.15089996 -2.35938568 75.21907043 -2.49320984 C82.36808645 -3.37741262 89.49122955 -4.12154704 96.68676758 -4.50976562 C97.43812988 -4.55431885 98.18949219 -4.59887207 98.96362305 -4.64477539 C128.82927592 -6.12303085 157.91840986 4.3706966 186.00390625 13.19287109 C229.59354142 26.8174028 270.72630136 35.13389119 314.39379883 17.75976562 C316.84708816 16.8139542 319.12410334 16.02600549 321.68676758 15.49023438 C320.63011501 23.03029837 315.16177125 27.60273158 309.31176758 32.05273438 C271.67096463 56.84607763 207.27244457 60.33306923 163.94067383 51.74804688 C151.1960315 48.47870616 139.95053907 41.95926976 128.8215332 35.13476562 C110.86633784 24.23935296 91.06759997 12.26167499 69.56176758 12.36523438 C68.75094727 12.36136719 67.94012695 12.3575 67.10473633 12.35351562 C66.32485352 12.35480469 65.5449707 12.35609375 64.74145508 12.35742188 C63.681604 12.35911377 63.681604 12.35911377 62.6003418 12.36083984 C60.46417569 12.42470715 60.46417569 12.42470715 57.68676758 13.49023438 C58.64454102 13.89113281 59.60231445 14.29203125 60.58911133 14.70507812 C76.04637203 21.26175208 90.23162837 28.33793133 103.13598633 39.18652344 C105.4214338 41.10785365 107.74451656 42.98246792 110.06176758 44.86523438 C111.3843457 45.95384766 111.3843457 45.95384766 112.73364258 47.06445312 C116.24742738 49.95077636 119.77949822 52.81408992 123.31176758 55.67773438 C129.97114572 61.07777353 136.59361327 66.52140443 143.19116211 71.99682617 C143.86646973 72.55539307 144.54177734 73.11395996 145.23754883 73.68945312 C145.83220947 74.18276123 146.42687012 74.67606934 147.03955078 75.18432617 C148.52923531 76.3653433 150.10500486 77.43572589 151.68676758 78.49023438 C151.15499763 82.62837142 148.90744592 84.76105756 146.12426758 87.74023438 C145.29797852 88.63226562 144.47168945 89.52429687 143.62036133 90.44335938 C142.98227539 91.11882812 142.34418945 91.79429688 141.68676758 92.49023438 C136.14761546 87.12976458 130.95789496 81.39276542 126.00708008 75.48632812 C103.86196257 49.09948413 63.48560897 22.12686444 29.42114258 15.89257812 C2.35449219 14.022395 -31.57134048 38.99185244 -51.02416992 55.83789062 C-52.71280431 57.35664738 -54.39305248 58.88480014 -56.06323242 60.42382812 C-58.04765333 62.2463258 -60.06576746 64.00435872 -62.12573242 65.74023438 C-65.83377486 68.89990434 -69.26380443 72.17844939 -72.31323242 75.99023438 C-74.47993759 78.69861583 -76.8607043 81.03770626 -79.31323242 83.49023438 C-81.67751496 86.13034988 -84.00082176 88.80463929 -86.31323242 91.49023438 C-90.83939235 87.8119142 -94.70748241 84.07937075 -98.31323242 79.49023438 C-92.03655122 72.93458956 -85.40305095 67.14391018 -78.31323242 61.49023438 C-77.21273156 60.57802961 -76.11383527 59.6638864 -75.01635742 58.74804688 C-51.67072464 39.42281612 -24.93100227 24.75614522 1.68676758 10.49023438 C-27.51910216 9.32716877 -50.68339634 19.37999069 -75.06323242 34.67773438 C-81.6708352 38.8191791 -88.5260803 42.32477663 -95.56665039 45.66210938 C-97.00014722 46.34178805 -98.42548535 47.03864876 -99.84838867 47.74023438 C-136.76280804 64.40706217 -190.58867853 56.48262402 -227.13354492 43.14648438 C-241.54396142 37.58386206 -257.5379963 29.75248443 -266.31323242 16.49023438 C-266.67420473 15.16411678 -267.01139721 13.8310492 -267.31323242 12.49023438 C-261.93584115 14.23944834 -256.61521224 16.09688507 -251.32397461 18.09130859 C-211.37636854 33.14320028 -176.38599521 21.82640284 -136.86727905 11.01251221 C-90.1899317 -1.75428132 -48.06397841 -8.12802066 0 0 Z"/>
<path transform="translate(868,1330)" fill="#00AFEF" d="M0 0 C15.18 0 30.36 0 46 0 C46 87.78 46 175.56 46 266 C30.82 266 15.64 266 0 266 C0 178.22 0 90.44 0 0 Z"/>
<path transform="translate(1230,856)" fill="#00AFEF" d="M0 0 C-0.54626672 8.9324725 -3.13176253 17.27153634 -5.625 25.8125 C-5.85064636 26.59178864 -6.07629272 27.37107727 -6.30877686 28.17398071 C-15.75326516 60.75432698 -27.19081039 88.0117027 -52 112 C-47.22418828 114.38790586 -41.69502269 113.87546425 -36.71826172 112.25878906 C-32.36974752 110.60801989 -28.09617274 108.7821043 -23.80859375 106.98046875 C-11.81311394 101.95926752 -1.09903245 101.46084263 11.7734375 102.3046875 C22.43531744 102.99205208 32.47255763 103.26421709 43 101 C43.6604834 100.85804199 44.3209668 100.71608398 45.00146484 100.56982422 C65.51601555 95.74662323 84.01074232 81.7790851 101.44116211 70.45458984 C106.7926865 67 106.7926865 67 109 67 C107.78269797 78.31576535 99.25496291 88.65125451 92 97 C91.32453125 97.80824219 90.6490625 98.61648438 89.953125 99.44921875 C69.96120856 122.68799753 42.36284307 135.8927394 13 143 C12.27973633 143.17934082 11.55947266 143.35868164 10.81738281 143.54345703 C0.35404271 146.04146165 -10.15936791 146.30189356 -20.875 146.375 C-22.18259277 146.38901855 -23.49018555 146.40303711 -24.83740234 146.41748047 C-36.15637659 146.36138185 -45.89305988 144.37010174 -56.0625 139.4375 C-66.87159442 134.47042688 -76.98861725 132.86434036 -88.75 135 C-99.76372056 136.93223168 -110.02810251 135.81782917 -121 134 C-120 131 -120 131 -117.91796875 129.7109375 C-117.01691406 129.27007813 -116.11585937 128.82921875 -115.1875 128.375 C-108.57015663 124.89939663 -102.8109538 120.68379631 -97 116 C-96.04738281 115.23816406 -95.09476563 114.47632813 -94.11328125 113.69140625 C-83.26924076 104.48077772 -77.42796525 92.94520391 -71.0625 80.5 C-59.43641276 57.797003 -42.6481415 40.30541605 -24.6875 22.42675781 C-22.31243758 20.06076681 -19.94432326 17.68825849 -17.57972527 15.31183815 C-15.30537739 13.02857325 -13.02347904 10.75288659 -10.7421875 8.4765625 C-9.46890091 7.19720322 -9.46890091 7.19720322 -8.16989136 5.89199829 C-7.38792389 5.11633514 -6.60595642 4.340672 -5.80029297 3.54150391 C-4.7687056 2.51230331 -4.7687056 2.51230331 -3.71627808 1.46231079 C-2 0 -2 0 0 0 Z"/>
<path transform="translate(694,857)" fill="#00AFEF" d="M0 0 C16.13593923 2.74420735 36.58545829 30.13767744 46 42 C46.66773438 42.80050781 47.33546875 43.60101562 48.0234375 44.42578125 C57.59070503 55.97835132 64.53975211 68.54565195 71 82 C81.74109721 104.33944114 94.89111971 115.53190197 116.24511719 127.95361328 C117.8618776 128.91764154 119.433785 129.95585667 121 131 C121 131.66 121 132.32 121 133 C119.86385254 132.9685791 118.72770508 132.9371582 117.55712891 132.90478516 C96.20498808 132.3665555 76.41513301 132.20347842 55.75195312 138.22607422 C20.38161789 148.17319653 -19.3989526 145.36957638 -51.89233398 127.5769043 C-53.94452578 126.40991556 -55.97655453 125.21608568 -58 124 C-58.88800293 123.46777832 -58.88800293 123.46777832 -59.79394531 122.92480469 C-76.61933386 112.54195808 -90.45093438 96.86280829 -102 81 C-102.76957031 79.96746094 -103.53914062 78.93492187 -104.33203125 77.87109375 C-113 66.1420045 -113 66.1420045 -113 62 C-107.67887431 63.59844092 -103.8729046 67.07314932 -99.625 70.5 C-80.93251163 85.27031057 -61.8485467 98.03620003 -37.12890625 98.17578125 C-35.58038734 98.19571142 -34.03188448 98.21691971 -32.48339844 98.23925781 C-31.27774231 98.25599548 -31.27774231 98.25599548 -30.04772949 98.27307129 C-8.43467915 98.61596707 11.37873662 101.41016148 32 108 C36.88674915 109.54719817 41.31931013 110.33253201 46.4375 110.625 C47.67371094 110.69976563 48.90992188 110.77453125 50.18359375 110.8515625 C51.57771484 110.92503906 51.57771484 110.92503906 53 111 C50.28407892 107.52022612 47.56294494 104.53698804 44.1875 101.6875 C16.96838761 78.19633359 7.12942704 35.79425041 0 2 C0 1.34 0 0.68 0 0 Z"/>
<path transform="translate(1286,764)" fill="#00AFEF" d="M0 0 C0.66 0 1.32 0 2 0 C2.0501123 1.17804199 2.10022461 2.35608398 2.15185547 3.56982422 C2.34331304 8.03201987 2.54287931 12.49382525 2.74462891 16.95556641 C2.83009964 18.86953465 2.91350651 20.78359643 2.99462891 22.69775391 C3.47204412 33.92585244 4.19475459 45.04362155 5.5715332 56.19946289 C8.06196154 78.28977512 1.05368065 97.0935508 -7.703125 116.9140625 C-9.78056673 121.85737264 -11.27100495 125.97281688 -11.125 131.375 C-11.10695313 132.24898437 -11.08890625 133.12296875 -11.0703125 134.0234375 C-11.04710937 134.67570313 -11.02390625 135.32796875 -11 136 C-8.67825566 136.00067746 -8.67825566 136.00067746 -6 135 C-4.06936855 132.84412821 -2.41367679 130.78265373 -0.75 128.4375 C5.80340049 119.28055823 13.76327139 112.72678916 23.375 106.9375 C24.26203613 106.39512695 25.14907227 105.85275391 26.06298828 105.29394531 C35.80738356 99.40011736 45.79820468 93.94545122 55.76953125 88.44921875 C66.80906411 82.35518447 77.43743606 76.30687373 87 68 C87.80695313 67.31421875 88.61390625 66.6284375 89.4453125 65.921875 C99.01343155 57.58351419 107.31733293 48.47053698 114.44140625 37.984375 C115.21291016 37.00210938 115.21291016 37.00210938 116 36 C116.66 36 117.32 36 118 36 C116.05795029 52.92357603 109.13172769 69.19256342 101 84 C100.67386719 84.60924316 100.34773438 85.21848633 100.01171875 85.84619141 C93.22208822 98.51588543 84.87150161 109.57373632 75 120 C74.16855469 120.89589844 73.33710937 121.79179688 72.48046875 122.71484375 C41.08314173 155.49126273 -9.30565058 166.04293804 -53 169 C-52.30740073 165.98549964 -51.4605648 163.97907586 -49.6875 161.4375 C-44.47795304 153.33386943 -42.40543656 144.36315753 -41.0625 134.9375 C-40.90265625 133.88820313 -40.7428125 132.83890625 -40.578125 131.7578125 C-39.71575784 126.05039013 -38.90440674 120.33572675 -38.09185791 114.62104797 C-33.39811687 81.62617988 -24.79193306 53.46746147 -11 23 C-10.03612818 20.85431495 -9.07258403 18.70848267 -8.109375 16.5625 C-7.19869332 14.54131655 -6.28726622 12.52046876 -5.375 10.5 C-4.73618896 9.08364258 -4.73618896 9.08364258 -4.08447266 7.63867188 C-3.69308105 6.77822266 -3.30168945 5.91777344 -2.8984375 5.03125 C-2.55474121 4.27392578 -2.21104492 3.51660156 -1.85693359 2.73632812 C-1 1 -1 1 0 0 Z"/>
<path transform="translate(633,767)" fill="#00AFEF" d="M0 0 C2.9130009 2.70872967 4.87609246 5.22495104 6.69921875 8.75390625 C7.18189209 9.68138672 7.66456543 10.60886719 8.16186523 11.56445312 C8.66532471 12.55380859 9.16878418 13.54316406 9.6875 14.5625 C10.21351807 15.58666016 10.73953613 16.61082031 11.28149414 17.66601562 C12.8674011 20.770938 14.43737724 23.88330164 16 27 C16.44666016 27.88929199 16.89332031 28.77858398 17.35351562 29.69482422 C27.91219377 50.88196959 32.63599278 71.28934753 35.21875 94.73828125 C35.37790894 96.17792488 35.37790894 96.17792488 35.5402832 97.64665222 C36.07265596 102.4964805 36.58694314 107.34733715 37.07421875 112.2019043 C38.51539492 126.13032007 40.62470583 139.32440932 46.9375 152 C47.25912109 152.68449219 47.58074219 153.36898437 47.91210938 154.07421875 C49.60314823 157.57637022 51.45256226 160.73628781 53.75390625 163.875 C56 167 56 167 56 169 C10.7186048 167.7386798 -34.58367739 151.98755551 -69 122 C-69.69738281 121.39929688 -70.39476562 120.79859375 -71.11328125 120.1796875 C-75.31090304 116.29331222 -78.57583907 111.92294504 -81.73046875 107.171875 C-82.16748108 106.51381866 -82.60449341 105.85576233 -83.05474854 105.17776489 C-87.55460968 98.30040454 -91.45187224 91.1567659 -95.25 83.875 C-95.97446781 82.4991545 -96.69899702 81.12334134 -97.42358398 79.74755859 C-102.47029123 70.12230264 -107.32740925 60.40698639 -112.0625 50.625 C-112.36812866 49.99527283 -112.67375732 49.36554565 -112.98864746 48.71673584 C-118 38.36023609 -118 38.36023609 -118 36 C-115.10109192 37.28960771 -113.2689328 38.53702727 -111.2578125 40.984375 C-110.75644775 41.58282227 -110.25508301 42.18126953 -109.73852539 42.79785156 C-109.20606201 43.44206055 -108.67359863 44.08626953 -108.125 44.75 C-88.87353725 67.42583072 -67.51228399 82.70323835 -41.16455078 96.24462891 C-24.72358406 104.71193977 -11.03477955 113.03938117 0.15917969 128.12768555 C2.78162224 131.63463515 5.32197266 134.51702194 9 137 C11.26424351 136.87436418 11.26424351 136.87436418 13 136 C12.51448087 131.43467091 11.16058201 127.84960111 9.27001953 123.73413086 C1.84504886 107.55291941 -0.50753201 90.60868234 -2 73 C-2.16822266 71.03160156 -2.16822266 71.03160156 -2.33984375 69.0234375 C-3.41407463 54.33737697 -3.62168179 39.84407619 -1.51171875 25.25390625 C-0.39857381 16.9022778 -0.30184884 8.41250258 0 0 Z"/>
<path transform="translate(606,677)" fill="#00AFEF" d="M0 0 C0.99 0 1.98 0 3 0 C6.69110041 34.25118946 6.69110041 34.25118946 7 45 C7.03254883 45.98774414 7.06509766 46.97548828 7.09863281 47.99316406 C7.64685999 67.03713649 5.90729107 85.19951774 3 104 C2.53881984 107.07562029 2.08542998 110.15194595 1.64575195 113.23071289 C1.39574558 114.9801406 1.13639248 116.72828096 0.86401367 118.47436523 C-1.04858254 131.65345323 0.34581108 144.17706636 2.5 157.1875 C2.85932371 159.41603048 3.21559323 161.64501788 3.56994629 163.87434387 C3.88826855 165.86785871 4.21440907 167.86012057 4.54101562 169.85229492 C5 173 5 173 5 176 C1.98804398 175.39669909 -0.05342829 174.48069032 -2.546875 172.69921875 C-3.55512329 171.98427246 -3.55512329 171.98427246 -4.58374023 171.25488281 C-5.29860596 170.73764648 -6.01347168 170.22041016 -6.75 169.6875 C-7.49644775 169.15350586 -8.24289551 168.61951172 -9.01196289 168.06933594 C-25.24690624 156.4043677 -41.00619974 144.23064042 -56 131 C-56.804375 130.29488281 -57.60875 129.58976563 -58.4375 128.86328125 C-70.2638358 117.79783103 -79.15080419 103.06559284 -87 89 C-87.39783691 88.29327148 -87.79567383 87.58654297 -88.20556641 86.85839844 C-98.26486198 68.84350703 -106.49994431 50.42115232 -110 30 C-110.22300781 28.75992188 -110.44601562 27.51984375 -110.67578125 26.2421875 C-111.59073096 20.77738582 -112.25768064 15.54013376 -112 10 C-111.34 10 -110.68 10 -110 10 C-109.53851563 11.00417969 -109.07703125 12.00835938 -108.6015625 13.04296875 C-103.01831675 24.87392466 -96.6006523 35.68001716 -86.33203125 44.06640625 C-77.98407373 50.98807957 -69.74047757 58.48830205 -63 67 C-62.37738281 67.76183594 -61.75476563 68.52367187 -61.11328125 69.30859375 C-54.95852484 77.14709129 -49.83541177 85.57306267 -44.60644531 94.04370117 C-36.07387963 110.02281073 -36.07387963 110.02281073 -23 121 C-23.13631836 119.82981323 -23.13631836 119.82981323 -23.27539062 118.63598633 C-23.69118305 115.02898701 -24.0956375 111.42079784 -24.5 107.8125 C-24.64308594 106.58595703 -24.78617188 105.35941406 -24.93359375 104.09570312 C-26.13314197 93.27120846 -26.85012523 82.46715091 -24.9375 71.6875 C-24.80666016 70.94298584 -24.67582031 70.19847168 -24.54101562 69.43139648 C-19.95881005 45.13430099 -10.31449915 22.34622603 0 0 Z"/>
<path transform="translate(1314,672)" fill="#00AFEF" d="M0 0 C0.99 0 1.98 0 3 0 C26.12012843 60.68755024 26.12012843 60.68755024 26.1328125 73.56640625 C26.13571289 75.48924438 26.13571289 75.48924438 26.13867188 77.45092773 C26.134565 78.82145325 26.12999948 80.19197745 26.125 81.5625 C26.12411377 82.25175568 26.12322754 82.94101135 26.12231445 83.65115356 C26.10496917 95.12289166 25.76225894 106.55250421 25 118 C35.58031928 107.04449209 44.89955565 95.40976961 53.1875 82.625 C56.94917102 76.88554318 61.24623913 71.93598837 66 67 C67.19109375 65.74896484 67.19109375 65.74896484 68.40625 64.47265625 C73.39539549 59.34930906 78.58920801 54.75396168 84.26171875 50.3984375 C91.39174343 44.15330889 96.35009409 36.69877398 101.3125 28.6875 C102.53770432 26.73303775 103.7629623 24.77860913 104.98828125 22.82421875 C105.51977783 21.96916748 106.05127441 21.11411621 106.59887695 20.2331543 C107.70456401 18.47087524 108.84598743 16.73101886 110 15 C110.66 15 111.32 15 112 15 C111.32755739 22.42450336 109.49139473 29.43624347 107.5625 36.625 C107.30231079 37.59593597 107.30231079 37.59593597 107.03686523 38.58648682 C98.76019624 69.3071045 89.74444014 96.69529076 67.48046875 120.30859375 C64.99730159 122.9365015 64.99730159 122.9365015 62.8984375 125.6484375 C61.18710198 127.76823993 59.51570463 129.44144903 57.4375 131.1875 C54.17565019 133.96878262 51.01509195 136.83188804 47.875 139.75 C6.9168552 177 6.9168552 177 -5 177 C-4.88406494 176.3201001 -4.76812988 175.6402002 -4.64868164 174.93969727 C-4.11731073 171.81440781 -3.58988115 168.68846509 -3.0625 165.5625 C-2.88009766 164.49322266 -2.69769531 163.42394531 -2.50976562 162.32226562 C-0.65609794 151.30136864 0.26686468 140.68957855 0.3125 129.5 C0.31611542 128.81534668 0.31973083 128.13069336 0.32345581 127.42529297 C0.35913915 110.35635216 -1.80233494 93.60623934 -4.33886719 76.74780273 C-7.9500621 51.32723928 -3.51358836 25.16701112 0 0 Z"/>
<path transform="translate(1413,554)" fill="#00AFEF" d="M0 0 C0.66 0 1.32 0 2 0 C12.22783334 42.35452457 7.94983348 93.4009085 -15 131 C-20.34640018 139.4156717 -26.48531572 146.87776697 -33.32421875 154.109375 C-36.71454741 157.77191983 -39.82895717 161.61900875 -42.9296875 165.52734375 C-45.1579278 168.18861943 -47.44825583 170.64616338 -50 173 C-50.66 173 -51.32 173 -52 173 C-52.17172729 171.70461304 -52.17172729 171.70461304 -52.34692383 170.38305664 C-53.01453495 166.92470625 -54.05250923 164.09959443 -55.44921875 160.87109375 C-55.96057373 159.68555908 -56.47192871 158.50002441 -56.9987793 157.27856445 C-57.56100762 155.99791151 -58.12393287 154.71756435 -58.6875 153.4375 C-58.9735611 152.7826059 -59.25962219 152.12771179 -59.55435181 151.45297241 C-67.55811085 133.14328369 -76.11399772 115.07740892 -85.625 97.5 C-99.01328532 72.4935406 -99.01090625 41.77101856 -100 14 C-96.96831268 15.31254038 -95.34022102 16.4870737 -93.50390625 19.2265625 C-93.03823242 19.91258545 -92.57255859 20.5986084 -92.09277344 21.30541992 C-91.5877832 22.07088135 -91.08279297 22.83634277 -90.5625 23.625 C-90.01754883 24.43751221 -89.47259766 25.25002441 -88.91113281 26.0871582 C-86.93024573 29.05122593 -84.96576275 32.02588115 -83 35 C-82.16244911 36.25830987 -81.32437052 37.51626862 -80.48583984 38.77392578 C-78.19358053 42.21269595 -75.90890528 45.65640269 -73.62911987 49.10345459 C-72.72522953 50.46936089 -71.81994446 51.83434547 -70.91311646 53.19830322 C-66.02668605 60.55798301 -61.327905 67.9806028 -56.984375 75.67578125 C-56.61137268 76.33587692 -56.23837036 76.9959726 -55.85406494 77.67607117 C-52.42329467 83.85445802 -50.71370322 89.17030948 -49.6875 96.125 C-48.54855689 103.15857954 -47.04298055 109.98483382 -43 116 C-42.01 116.33 -41.02 116.66 -40 117 C-39.91363281 116.37738281 -39.82726563 115.75476563 -39.73828125 115.11328125 C-36.29040898 92.43324075 -29.59284758 72.96301765 -18.11352539 53.09277344 C-11.41175586 41.46591822 -7.08048402 30.56766476 -4.25 17.5 C-3.79703822 15.4643251 -3.34074503 13.42942121 -2.88372803 11.39465332 C-2.47597501 9.57094834 -2.07613015 7.74548045 -1.67675781 5.91992188 C-1 3 -1 3 0 0 Z"/>
<path transform="translate(503,556)" fill="#00AFEF" d="M0 0 C0.66 0 1.32 0 2 0 C4.55866399 6.61687286 6.89827387 13.09274806 8.32348633 20.04785156 C11.2270458 34.18836903 17.76516741 46.6326585 24.25585938 59.42749023 C33.28185435 77.22243018 38.74928078 92.89380814 39.75390625 112.9453125 C39.80150633 115.91463317 39.80150633 115.91463317 41 118 C43.33071879 118.41870553 43.33071879 118.41870553 46 118 C49.25990423 114.57387389 50.79821474 111.38800779 52.19140625 106.90625 C52.57288818 105.72119873 52.95437012 104.53614746 53.34741211 103.31518555 C53.54478973 102.69267914 53.74216736 102.07017273 53.94552612 101.42880249 C60.3518956 81.40101547 69.61475735 63.9555029 82 47 C83.11244624 45.46648455 84.22440743 43.93261714 85.3359375 42.3984375 C87.02755482 40.0636821 88.7195902 37.72928061 90.41625977 35.39819336 C94.51938946 29.73812523 98.37662518 23.98186243 102 18 C103.485 18.495 103.485 18.495 105 19 C103.47770994 37.47968939 101.85738774 55.83094467 98 74 C97.73364746 75.26505371 97.73364746 75.26505371 97.46191406 76.55566406 C93.57937798 94.37657391 85.34895871 108.47039508 76.15258789 124.0715332 C66.62306604 140.34336218 60.09048191 156.87407842 55 175 C45.73503202 170.36751601 39.25900433 160.9445338 33 153 C32.27941406 152.10796875 31.55882812 151.2159375 30.81640625 150.296875 C4.74391264 117.02075125 -1.4142165 81.25111577 -1.20581055 40.05981445 C-1.18734141 36.2800431 -1.18530309 32.50051534 -1.18554688 28.72070312 C-1.18063721 26.2890604 -1.17481132 23.85741931 -1.16796875 21.42578125 C-1.16685593 20.31004227 -1.1657431 19.19430328 -1.16459656 18.04475403 C-1.12777372 11.95021108 -0.79455737 6.04378775 0 0 Z"/>
<path transform="translate(1363,428)" fill="#00AFEF" d="M0 0 C3.46033448 1.15344483 3.68246394 1.65844046 5.41796875 4.69140625 C5.86366211 5.46307129 6.30935547 6.23473633 6.76855469 7.02978516 C7.23680664 7.86558105 7.70505859 8.70137695 8.1875 9.5625 C8.67508789 10.42149902 9.16267578 11.28049805 9.66503906 12.16552734 C23.77364276 37.23771114 34.64850973 61.69113815 34 91 C33.97317139 92.31653564 33.97317139 92.31653564 33.94580078 93.65966797 C33.41742261 116.31050727 28.59838353 132.82441204 18 152.7890625 C13.0636585 162.19896349 9.95912074 171.83276464 7 182 C6.01 182 5.02 182 4 182 C2.535505 179.79410441 1.26114138 177.6313366 0 175.3125 C-4.18534356 167.97596183 -9.09122167 161.80391289 -14.68310547 155.50683594 C-16.71205054 153.18524733 -18.63207888 150.77866369 -20.5625 148.375 C-23.49786569 144.75384975 -26.54854907 141.32454229 -29.75 137.9375 C-40.72897883 125.93244839 -49.2890102 112.7700644 -56 98 C-56.96767282 95.90314839 -57.9365151 93.80683625 -58.90625 91.7109375 C-60.48357278 88.29852413 -62.05795539 84.88493071 -63.62231445 81.46655273 C-66.87714106 74.36335696 -70.25532171 67.35713799 -73.890625 60.44140625 C-75 58 -75 58 -75 55 C-69.0872151 56.50680647 -64.67504995 59.67508344 -59.75 63.125 C-58.48192505 64.00406006 -58.48192505 64.00406006 -57.18823242 64.90087891 C-51.26540338 69.03722259 -45.4827944 73.28982349 -40 78 C-39.39679932 78.49749756 -38.79359863 78.99499512 -38.17211914 79.50756836 C-33.37899131 83.54445599 -29.52260483 87.77561454 -25.8125 92.8125 C-25.267146 93.53808105 -24.72179199 94.26366211 -24.15991211 95.01123047 C-19.51321093 101.22322721 -14.97184695 107.5154289 -10.48950195 113.84692383 C-4.99694088 122.46118654 -4.99694088 122.46118654 3 128 C3.10570109 122.69145636 2.99996577 117.47587034 2.5 112.1875 C1.49644785 100.93034496 2.16839176 89.93112366 3.28393555 78.71994019 C5.72365606 53.65319027 6.28285963 29.98272044 0.45898438 5.26708984 C0 3 0 3 0 0 Z"/>
<path transform="translate(554,431)" fill="#00AFEF" d="M0 0 C0.66 0 1.32 0 2 0 C1.42141286 10.32783538 -0.10938594 20.39657662 -1.91870117 30.56420898 C-4.03021553 42.51289613 -4.78965939 53.31687963 -2.5 65.25 C0.34475508 81.75976866 -0.86490187 98.11972236 -4.375 114.4375 C-5.47274483 120.45014783 -3.83338356 124.70789516 -1 130 C0.10794922 128.51113281 0.10794922 128.51113281 1.23828125 126.9921875 C3.93317696 123.37793584 6.64210657 119.77446426 9.35839844 116.17626953 C10.38755696 114.81191512 11.41458752 113.44595008 12.43847656 112.07763672 C18.87447126 103.49863727 25.8328694 95.82387253 33.56225586 88.38989258 C35.73633341 86.28817352 37.86359895 84.1399091 40 82 C47.72022151 74.30930133 65.577696 57 77 57 C76.44620939 61.0596514 75.5671423 64.41815713 73.84765625 68.1328125 C73.40599121 69.09396973 72.96432617 70.05512695 72.50927734 71.04541016 C72.03184082 72.0616748 71.5544043 73.07793945 71.0625 74.125 C70.32314209 75.71320557 70.32314209 75.71320557 69.56884766 77.33349609 C68.05803266 80.56156385 66.5324703 83.78216214 65 87 C64.55350098 87.93972656 64.10700195 88.87945313 63.64697266 89.84765625 C51.83453667 114.54189292 36.48690104 134.69745084 17.05859375 153.91796875 C8.75334805 162.31777133 2.1998607 171.31196521 -3.484375 181.65625 C-3.98453125 182.4296875 -4.4846875 183.203125 -5 184 C-5.66 184 -6.32 184 -7 184 C-7.11480713 183.44763672 -7.22961426 182.89527344 -7.34790039 182.32617188 C-9.99947886 169.81828632 -13.38707521 158.48326559 -19 147 C-34.46505734 115.11252464 -35.35281 77.78685872 -23.85302734 44.36914062 C-18.22088863 28.72681834 -10.2456196 13.13170963 0 0 Z"/>
<path transform="translate(626,358)" fill="#00AFEF" d="M0 0 C-0.57592921 3.60630051 -1.52661109 6.31562848 -3.328125 9.484375 C-3.79589355 10.32798584 -4.26366211 11.17159668 -4.74560547 12.04077148 C-5.24205566 12.93481689 -5.73850586 13.8288623 -6.25 14.75 C-12.11990708 25.67449704 -15.58909049 36.10947604 -18.0859375 48.20703125 C-18.47184748 50.05512953 -18.85990593 51.90278036 -19.25 53.75 C-19.54028076 55.12986084 -19.54028076 55.12986084 -19.83642578 56.53759766 C-21.615457 64.42165954 -24.49016505 71.5768298 -27.96582031 78.86035156 C-30.8294239 84.97149193 -32.75018598 90.76403608 -31.546875 97.55859375 C-30.04176815 101.1073996 -29.27216797 102.81855469 -26 105 C-25.67128906 104.32195312 -25.34257813 103.64390625 -25.00390625 102.9453125 C-15.97075347 85.27068837 -1.81785239 77.52653127 15.0625 68.5625 C24.1339585 63.73930973 32.23747723 58.74354854 40 52 C40.91523437 51.20980469 41.83046875 50.41960937 42.7734375 49.60546875 C44.87307319 47.76101956 46.94857793 45.89769793 49 44 C50.485 44.495 50.485 44.495 52 45 C39.08085968 72.78697778 20.33908246 92.34734943 -6.02734375 107.98828125 C-6.90148926 108.50801514 -7.77563477 109.02774902 -8.67626953 109.56323242 C-10.38279998 110.57422291 -12.0931915 111.57873588 -13.80810547 112.57543945 C-19.57389871 115.97386309 -24.78645712 119.81173994 -30 124 C-30.86625 124.639375 -31.7325 125.27875 -32.625 125.9375 C-38.89208504 131.37996859 -43.60308747 138.082264 -48.30078125 144.875 C-48.86152344 145.57625 -49.42226563 146.2775 -50 147 C-50.66 147 -51.32 147 -52 147 C-55.95784741 134.44407029 -55.13661856 121.67435156 -53.6875 108.75 C-53.39201714 105.95377587 -53.10564829 103.15665073 -52.8203125 100.359375 C-52.74798904 99.66090454 -52.67566559 98.96243408 -52.60115051 98.24279785 C-52.00467048 92.36302008 -51.62209947 86.47940706 -51.27587891 80.57958984 C-49.63848408 53.11107388 -41.7107224 33.70997395 -21.625 14.75 C-4.84136213 0 -4.84136213 0 0 0 Z"/>
<path transform="translate(1297,356)" fill="#00AFEF" d="M0 0 C4.01463502 1.64059604 6.89215746 4.44293307 10 7.375 C10.56887939 7.90883301 11.13775879 8.44266602 11.72387695 8.99267578 C12.90680579 10.10800401 14.08687591 11.2263715 15.26416016 12.34765625 C16.3768101 13.40678632 17.4933406 14.46186347 18.61474609 15.51171875 C42.71851808 38.12273906 47.81497232 62.24611814 48.93292236 94.43548584 C49.38221285 111.61277271 49.13886502 128.81931106 49 146 C48.34 146 47.68 146 47 146 C45.66015625 144.6015625 45.66015625 144.6015625 44.0625 142.625 C35.95360025 133.17290827 26.55696565 126.09535543 16.38671875 119.0625 C11.55415656 115.71401989 6.86056371 112.19696095 2.17456055 108.64770508 C-1.48420808 105.87991561 -5.16217071 103.14422572 -8.875 100.44921875 C-28.56077155 86.15533625 -43.7725341 71.4420762 -52 48 C-52 47.01 -52 46.02 -52 45 C-51.01 45 -50.02 45 -49 45 C-49 45.66 -49 46.32 -49 47 C-48.45859375 47.2371875 -47.9171875 47.474375 -47.359375 47.71875 C-44.3703 49.34195629 -41.90394982 51.37145141 -39.25 53.5 C-29.98140941 60.76815627 -20.00436153 66.83634482 -9.68701172 72.49389648 C-0.51479528 77.52525793 7.22941531 83.09031848 14.5625 90.625 C19.57668368 95.76364923 24.89288009 100.36153501 32 102 C31.54838046 94.63860148 29.61050886 88.88301682 26.75 82.125 C21.99937073 70.44390861 18.480945 58.76376903 16.09375 46.3828125 C14.24902389 36.96890075 11.50644185 29.23379777 6.97265625 20.77734375 C3.53571727 14.34816833 0 7.35717083 0 0 Z"/>
<path transform="translate(868,1232)" fill="#00AFEF" d="M0 0 C15.18 0 30.36 0 46 0 C46 17.16 46 34.32 46 52 C30.82 52 15.64 52 0 52 C0 34.84 0 17.68 0 0 Z"/>
<path transform="translate(1216,325)" fill="#00AFEF" d="M0 0 C5.97186782 0.57066301 11.02274283 2.30623073 16.5625 4.5625 C17.44147949 4.91892578 18.32045898 5.27535156 19.22607422 5.64257812 C46.21048762 16.84792841 60.37187767 33.96978828 72.8125 59.6875 C73.26850586 60.624729 73.72451172 61.56195801 74.19433594 62.52758789 C77.35326798 69.19405188 79.81021776 75.95827163 82 83 C78.68751789 82.44337971 76.03859575 81.69206351 73.1015625 80.06640625 C72.38226562 79.66993896 71.66296875 79.27347168 70.921875 78.86499023 C70.16390625 78.43516846 69.4059375 78.00534668 68.625 77.5625 C67.43777344 76.89359741 67.43777344 76.89359741 66.2265625 76.21118164 C40.07611429 61.28939644 25.31741307 42.87131951 9.55957031 17.50830078 C8.16085146 15.25870193 6.75108274 13.01662861 5.3359375 10.77734375 C0 2.27389813 0 2.27389813 0 0 Z"/>
<path transform="translate(703,328)" fill="#00AFEF" d="M0 0 C0.6496582 1.74438477 0.6496582 1.74438477 1 4 C0.07885742 5.99194336 0.07885742 5.99194336 -1.39453125 8.08984375 C-1.93279541 8.86755127 -2.47105957 9.64525879 -3.02563477 10.4465332 C-3.61530029 11.26855225 -4.20496582 12.09057129 -4.8125 12.9375 C-5.41054443 13.78852295 -6.00858887 14.6395459 -6.62475586 15.51635742 C-11.55907574 22.49319188 -16.60965001 29.36682378 -22 36 C-22.46229004 36.57057129 -22.92458008 37.14114258 -23.40087891 37.72900391 C-38.29136321 55.96052508 -55.68461506 69.25134365 -76 81 C-76.92554688 81.5775 -77.85109375 82.155 -78.8046875 82.75 C-81 84 -81 84 -83 84 C-82.46893701 78.4361889 -81.40718187 73.53839004 -79.375 68.3125 C-79.10848633 67.62115967 -78.84197266 66.92981934 -78.56738281 66.2175293 C-66.47964492 35.6858127 -44.54553712 19.25383608 -15.3125 6.49609375 C-10.22154389 4.29923552 -5.11625104 2.13724372 0 0 Z"/>
</svg>